<svg width="1034" height="635" viewBox="0 0 1034 635" fill="none" xmlns="http://www.w3.org/2000/svg">
<path d="M452.145 0.000119352H187.435L0.228516 184.161V444.564L187.435 628.682H452.145L639.309 444.564V184.161L452.145 0.000119352Z" fill="#6C44FC"/>
<path d="M846.474 0H581.763L394.557 184.161V444.564L581.763 628.682H846.474L1033.68 444.564V184.161L846.474 0Z" fill="#6C44FC"/>
<path d="M678.535 0H413.781L226.618 184.161V444.564L413.781 628.682H678.535L865.698 444.564V184.161L678.535 0Z" fill="#6C44FC"/>
<g clip-path="url(#clip0_5807_3376)">
<path d="M203.003 45.4183C211.49 45.4183 218.371 38.5377 218.371 30.0502C218.371 21.5626 211.49 14.6821 203.003 14.6821C194.515 14.6821 187.635 21.5626 187.635 30.0502C187.635 38.5377 194.515 45.4183 203.003 45.4183Z" fill="black"/>
<path d="M260.534 45.4183C269.022 45.4183 275.902 38.5377 275.902 30.0502C275.902 21.5626 269.022 14.6821 260.534 14.6821C252.047 14.6821 245.166 21.5626 245.166 30.0502C245.166 38.5377 252.047 45.4183 260.534 45.4183Z" fill="black"/>
<path d="M318.025 50.5269C329.334 50.5269 338.501 41.3593 338.501 30.0505C338.501 18.7418 329.334 9.57422 318.025 9.57422C306.716 9.57422 297.549 18.7418 297.549 30.0505C297.549 41.3593 306.716 50.5269 318.025 50.5269Z" fill="black"/>
<path d="M375.513 50.5269C386.822 50.5269 395.99 41.3593 395.99 30.0505C395.99 18.7418 386.822 9.57422 375.513 9.57422C364.205 9.57422 355.037 18.7418 355.037 30.0505C355.037 41.3593 364.205 50.5269 375.513 50.5269Z" fill="black"/>
<path d="M433.005 45.4183C441.492 45.4183 448.373 38.5377 448.373 30.0502C448.373 21.5626 441.492 14.6821 433.005 14.6821C424.517 14.6821 417.637 21.5626 417.637 30.0502C417.637 38.5377 424.517 45.4183 433.005 45.4183Z" fill="black"/>
<path d="M145.513 102.908C154 102.908 160.881 96.0275 160.881 87.5399C160.881 79.0524 154 72.1719 145.513 72.1719C137.025 72.1719 130.145 79.0524 130.145 87.5399C130.145 96.0275 137.025 102.908 145.513 102.908Z" fill="black"/>
<path d="M203.004 108.017C214.312 108.017 223.48 98.8491 223.48 87.5403C223.48 76.2315 214.312 67.064 203.004 67.064C191.695 67.064 182.527 76.2315 182.527 87.5403C182.527 98.8491 191.695 108.017 203.004 108.017Z" fill="black"/>
<path d="M260.537 108.017C271.846 108.017 281.013 98.8491 281.013 87.5403C281.013 76.2315 271.846 67.064 260.537 67.064C249.228 67.064 240.061 76.2315 240.061 87.5403C240.061 98.8491 249.228 108.017 260.537 108.017Z" fill="black"/>
<path d="M318.025 108.017C329.334 108.017 338.501 98.8491 338.501 87.5403C338.501 76.2315 329.334 67.064 318.025 67.064C306.716 67.064 297.549 76.2315 297.549 87.5403C297.549 98.8491 306.716 108.017 318.025 108.017Z" fill="black"/>
<path d="M375.513 108.017C386.822 108.017 395.99 98.8491 395.99 87.5403C395.99 76.2315 386.822 67.064 375.513 67.064C364.205 67.064 355.037 76.2315 355.037 87.5403C355.037 98.8491 364.205 108.017 375.513 108.017Z" fill="black"/>
<path d="M433.004 108.017C444.312 108.017 453.48 98.8491 453.48 87.5403C453.48 76.2315 444.312 67.064 433.004 67.064C421.695 67.064 412.527 76.2315 412.527 87.5403C412.527 98.8491 421.695 108.017 433.004 108.017Z" fill="black"/>
<path d="M490.537 108.017C501.846 108.017 511.013 98.8491 511.013 87.5403C511.013 76.2315 501.846 67.064 490.537 67.064C479.228 67.064 470.061 76.2315 470.061 87.5403C470.061 98.8491 479.228 108.017 490.537 108.017Z" fill="black"/>
<path d="M88.0224 160.441C96.5099 160.441 103.39 153.561 103.39 145.073C103.39 136.586 96.5099 129.705 88.0224 129.705C79.5348 129.705 72.6543 136.586 72.6543 145.073C72.6543 153.561 79.5348 160.441 88.0224 160.441Z" fill="black"/>
<path d="M145.513 165.549C156.822 165.549 165.99 156.382 165.99 145.073C165.99 133.764 156.822 124.597 145.513 124.597C134.205 124.597 125.037 133.764 125.037 145.073C125.037 156.382 134.205 165.549 145.513 165.549Z" fill="black"/>
<path d="M203.003 164.727C213.858 164.727 222.657 155.927 222.657 145.073C222.657 134.218 213.858 125.419 203.003 125.419C192.149 125.419 183.35 134.218 183.35 145.073C183.35 155.927 192.149 164.727 203.003 164.727Z" fill="black"/>
<path d="M260.537 164.727C271.391 164.727 280.19 155.927 280.19 145.073C280.19 134.218 271.391 125.419 260.537 125.419C249.682 125.419 240.883 134.218 240.883 145.073C240.883 155.927 249.682 164.727 260.537 164.727Z" fill="black"/>
<path d="M318.025 164.727C328.879 164.727 337.679 155.927 337.679 145.073C337.679 134.218 328.879 125.419 318.025 125.419C307.17 125.419 298.371 134.218 298.371 145.073C298.371 155.927 307.17 164.727 318.025 164.727Z" fill="black"/>
<path d="M375.515 164.727C386.37 164.727 395.169 155.927 395.169 145.073C395.169 134.218 386.37 125.419 375.515 125.419C364.661 125.419 355.861 134.218 355.861 145.073C355.861 155.927 364.661 164.727 375.515 164.727Z" fill="black"/>
<path d="M433.003 164.727C443.858 164.727 452.657 155.927 452.657 145.073C452.657 134.218 443.858 125.419 433.003 125.419C422.149 125.419 413.35 134.218 413.35 145.073C413.35 155.927 422.149 164.727 433.003 164.727Z" fill="black"/>
<path d="M490.537 165.549C501.846 165.549 511.013 156.382 511.013 145.073C511.013 133.764 501.846 124.597 490.537 124.597C479.228 124.597 470.061 133.764 470.061 145.073C470.061 156.382 479.228 165.549 490.537 165.549Z" fill="black"/>
<path d="M548.025 165.549C559.334 165.549 568.501 156.382 568.501 145.073C568.501 133.764 559.334 124.597 548.025 124.597C536.716 124.597 527.549 133.764 527.549 145.073C527.549 156.382 536.716 165.549 548.025 165.549Z" fill="black"/>
<path d="M30.5348 214.077C36.8944 214.077 42.05 208.922 42.05 202.562C42.05 196.202 36.8944 191.047 30.5348 191.047C24.1751 191.047 19.0195 196.202 19.0195 202.562C19.0195 208.922 24.1751 214.077 30.5348 214.077Z" fill="black"/>
<path d="M88.0224 217.93C96.5099 217.93 103.39 211.05 103.39 202.562C103.39 194.075 96.5099 187.194 88.0224 187.194C79.5348 187.194 72.6543 194.075 72.6543 202.562C72.6543 211.05 79.5348 217.93 88.0224 217.93Z" fill="black"/>
<path d="M145.513 222.216C156.368 222.216 165.167 213.417 165.167 202.563C165.167 191.708 156.368 182.909 145.513 182.909C134.659 182.909 125.859 191.708 125.859 202.563C125.859 213.417 134.659 222.216 145.513 222.216Z" fill="black"/>
<path d="M203.003 222.216C213.858 222.216 222.657 213.417 222.657 202.563C222.657 191.708 213.858 182.909 203.003 182.909C192.149 182.909 183.35 191.708 183.35 202.563C183.35 213.417 192.149 222.216 203.003 222.216Z" fill="black"/>
<path d="M260.537 228.796C275.025 228.796 286.771 217.051 286.771 202.563C286.771 188.074 275.025 176.329 260.537 176.329C246.048 176.329 234.303 188.074 234.303 202.563C234.303 217.051 246.048 228.796 260.537 228.796Z" fill="black"/>
<path d="M318.025 228.796C332.514 228.796 344.259 217.051 344.259 202.563C344.259 188.074 332.514 176.329 318.025 176.329C303.536 176.329 291.791 188.074 291.791 202.563C291.791 217.051 303.536 228.796 318.025 228.796Z" fill="black"/>
<path d="M375.515 228.796C390.004 228.796 401.749 217.051 401.749 202.563C401.749 188.074 390.004 176.329 375.515 176.329C361.027 176.329 349.281 188.074 349.281 202.563C349.281 217.051 361.027 228.796 375.515 228.796Z" fill="black"/>
<path d="M433.003 222.216C443.858 222.216 452.657 213.417 452.657 202.563C452.657 191.708 443.858 182.909 433.003 182.909C422.149 182.909 413.35 191.708 413.35 202.563C413.35 213.417 422.149 222.216 433.003 222.216Z" fill="black"/>
<path d="M490.537 222.216C501.391 222.216 510.19 213.417 510.19 202.563C510.19 191.708 501.391 182.909 490.537 182.909C479.682 182.909 470.883 191.708 470.883 202.563C470.883 213.417 479.682 222.216 490.537 222.216Z" fill="black"/>
<path d="M548.025 223.039C559.334 223.039 568.501 213.872 568.501 202.563C568.501 191.254 559.334 182.086 548.025 182.086C536.716 182.086 527.549 191.254 527.549 202.563C527.549 213.872 536.716 223.039 548.025 223.039Z" fill="black"/>
<path d="M605.514 217.93C614.002 217.93 620.883 211.05 620.883 202.562C620.883 194.075 614.002 187.194 605.514 187.194C597.027 187.194 590.146 194.075 590.146 202.562C590.146 211.05 597.027 217.93 605.514 217.93Z" fill="black"/>
<path d="M30.5341 275.42C39.0216 275.42 45.9021 268.54 45.9021 260.052C45.9021 251.565 39.0216 244.684 30.5341 244.684C22.0465 244.684 15.166 251.565 15.166 260.052C15.166 268.54 22.0465 275.42 30.5341 275.42Z" fill="black"/>
<path d="M88.0232 280.528C99.332 280.528 108.5 271.36 108.5 260.052C108.5 248.743 99.332 239.575 88.0232 239.575C76.7144 239.575 67.5469 248.743 67.5469 260.052C67.5469 271.36 76.7144 280.528 88.0232 280.528Z" fill="black"/>
<path d="M145.513 279.706C156.368 279.706 165.167 270.907 165.167 260.052C165.167 249.198 156.368 240.398 145.513 240.398C134.659 240.398 125.859 249.198 125.859 260.052C125.859 270.907 134.659 279.706 145.513 279.706Z" fill="black"/>
<path d="M203.003 286.286C217.492 286.286 229.237 274.541 229.237 260.052C229.237 245.564 217.492 233.818 203.003 233.818C188.515 233.818 176.77 245.564 176.77 260.052C176.77 274.541 188.515 286.286 203.003 286.286Z" fill="black"/>
<path d="M260.537 286.286C275.025 286.286 286.771 274.541 286.771 260.052C286.771 245.564 275.025 233.818 260.537 233.818C246.048 233.818 234.303 245.564 234.303 260.052C234.303 274.541 246.048 286.286 260.537 286.286Z" fill="black"/>
<path d="M318.025 286.286C332.514 286.286 344.259 274.541 344.259 260.052C344.259 245.564 332.514 233.818 318.025 233.818C303.536 233.818 291.791 245.564 291.791 260.052C291.791 274.541 303.536 286.286 318.025 286.286Z" fill="black"/>
<path d="M375.515 286.286C390.004 286.286 401.749 274.541 401.749 260.052C401.749 245.564 390.004 233.818 375.515 233.818C361.027 233.818 349.281 245.564 349.281 260.052C349.281 274.541 361.027 286.286 375.515 286.286Z" fill="black"/>
<path d="M433.003 286.286C447.492 286.286 459.237 274.541 459.237 260.052C459.237 245.564 447.492 233.818 433.003 233.818C418.515 233.818 406.77 245.564 406.77 260.052C406.77 274.541 418.515 286.286 433.003 286.286Z" fill="black"/>
<path d="M490.537 279.706C501.391 279.706 510.19 270.907 510.19 260.052C510.19 249.198 501.391 240.398 490.537 240.398C479.682 240.398 470.883 249.198 470.883 260.052C470.883 270.907 479.682 279.706 490.537 279.706Z" fill="black"/>
<path d="M548.025 280.528C559.334 280.528 568.501 271.36 568.501 260.052C568.501 248.743 559.334 239.575 548.025 239.575C536.716 239.575 527.549 248.743 527.549 260.052C527.549 271.36 536.716 280.528 548.025 280.528Z" fill="black"/>
<path d="M605.517 280.528C616.826 280.528 625.994 271.36 625.994 260.052C625.994 248.743 616.826 239.575 605.517 239.575C594.209 239.575 585.041 248.743 585.041 260.052C585.041 271.36 594.209 280.528 605.517 280.528Z" fill="black"/>
<path d="M30.5341 332.91C39.0216 332.91 45.9021 326.029 45.9021 317.542C45.9021 309.054 39.0216 302.174 30.5341 302.174C22.0465 302.174 15.166 309.054 15.166 317.542C15.166 326.029 22.0465 332.91 30.5341 332.91Z" fill="black"/>
<path d="M88.0232 338.018C99.332 338.018 108.5 328.85 108.5 317.541C108.5 306.232 99.332 297.065 88.0232 297.065C76.7144 297.065 67.5469 306.232 67.5469 317.541C67.5469 328.85 76.7144 338.018 88.0232 338.018Z" fill="black"/>
<path d="M145.513 337.196C156.368 337.196 165.167 328.396 165.167 317.542C165.167 306.687 156.368 297.888 145.513 297.888C134.659 297.888 125.859 306.687 125.859 317.542C125.859 328.396 134.659 337.196 145.513 337.196Z" fill="black"/>
<path d="M203.003 343.776C217.492 343.776 229.237 332.031 229.237 317.542C229.237 303.053 217.492 291.308 203.003 291.308C188.515 291.308 176.77 303.053 176.77 317.542C176.77 332.031 188.515 343.776 203.003 343.776Z" fill="black"/>
<path d="M260.537 343.776C275.025 343.776 286.771 332.031 286.771 317.542C286.771 303.053 275.025 291.308 260.537 291.308C246.048 291.308 234.303 303.053 234.303 317.542C234.303 332.031 246.048 343.776 260.537 343.776Z" fill="black"/>
<path d="M318.025 343.776C332.514 343.776 344.259 332.031 344.259 317.542C344.259 303.053 332.514 291.308 318.025 291.308C303.536 291.308 291.791 303.053 291.791 317.542C291.791 332.031 303.536 343.776 318.025 343.776Z" fill="black"/>
<path d="M375.515 343.776C390.004 343.776 401.749 332.031 401.749 317.542C401.749 303.053 390.004 291.308 375.515 291.308C361.027 291.308 349.281 303.053 349.281 317.542C349.281 332.031 361.027 343.776 375.515 343.776Z" fill="black"/>
<path d="M433.003 343.776C447.492 343.776 459.237 332.031 459.237 317.542C459.237 303.053 447.492 291.308 433.003 291.308C418.515 291.308 406.77 303.053 406.77 317.542C406.77 332.031 418.515 343.776 433.003 343.776Z" fill="black"/>
<path d="M490.537 337.196C501.391 337.196 510.19 328.396 510.19 317.542C510.19 306.687 501.391 297.888 490.537 297.888C479.682 297.888 470.883 306.687 470.883 317.542C470.883 328.396 479.682 337.196 490.537 337.196Z" fill="black"/>
<path d="M548.025 338.018C559.334 338.018 568.501 328.85 568.501 317.541C568.501 306.232 559.334 297.065 548.025 297.065C536.716 297.065 527.549 306.232 527.549 317.541C527.549 328.85 536.716 338.018 548.025 338.018Z" fill="black"/>
<path d="M605.517 338.018C616.826 338.018 625.994 328.85 625.994 317.541C625.994 306.232 616.826 297.065 605.517 297.065C594.209 297.065 585.041 306.232 585.041 317.541C585.041 328.85 594.209 338.018 605.517 338.018Z" fill="black"/>
<path d="M30.5341 390.4C39.0216 390.4 45.9021 383.519 45.9021 375.032C45.9021 366.544 39.0216 359.664 30.5341 359.664C22.0465 359.664 15.166 366.544 15.166 375.032C15.166 383.519 22.0465 390.4 30.5341 390.4Z" fill="black"/>
<path d="M88.0232 395.507C99.332 395.507 108.5 386.34 108.5 375.031C108.5 363.722 99.332 354.555 88.0232 354.555C76.7144 354.555 67.5469 363.722 67.5469 375.031C67.5469 386.34 76.7144 395.507 88.0232 395.507Z" fill="black"/>
<path d="M145.513 394.685C156.368 394.685 165.167 385.885 165.167 375.031C165.167 364.176 156.368 355.377 145.513 355.377C134.659 355.377 125.859 364.176 125.859 375.031C125.859 385.885 134.659 394.685 145.513 394.685Z" fill="black"/>
<path d="M203.003 401.266C217.492 401.266 229.237 389.52 229.237 375.032C229.237 360.543 217.492 348.798 203.003 348.798C188.515 348.798 176.77 360.543 176.77 375.032C176.77 389.52 188.515 401.266 203.003 401.266Z" fill="black"/>
<path d="M260.537 401.266C275.025 401.266 286.771 389.52 286.771 375.032C286.771 360.543 275.025 348.798 260.537 348.798C246.048 348.798 234.303 360.543 234.303 375.032C234.303 389.52 246.048 401.266 260.537 401.266Z" fill="black"/>
<path d="M318.025 401.266C332.514 401.266 344.259 389.52 344.259 375.032C344.259 360.543 332.514 348.798 318.025 348.798C303.536 348.798 291.791 360.543 291.791 375.032C291.791 389.52 303.536 401.266 318.025 401.266Z" fill="black"/>
<path d="M375.515 401.266C390.004 401.266 401.749 389.52 401.749 375.032C401.749 360.543 390.004 348.798 375.515 348.798C361.027 348.798 349.281 360.543 349.281 375.032C349.281 389.52 361.027 401.266 375.515 401.266Z" fill="black"/>
<path d="M433.003 401.266C447.492 401.266 459.237 389.52 459.237 375.032C459.237 360.543 447.492 348.798 433.003 348.798C418.515 348.798 406.77 360.543 406.77 375.032C406.77 389.52 418.515 401.266 433.003 401.266Z" fill="black"/>
<path d="M490.537 394.685C501.391 394.685 510.19 385.885 510.19 375.031C510.19 364.176 501.391 355.377 490.537 355.377C479.682 355.377 470.883 364.176 470.883 375.031C470.883 385.885 479.682 394.685 490.537 394.685Z" fill="black"/>
<path d="M548.025 395.507C559.334 395.507 568.501 386.34 568.501 375.031C568.501 363.722 559.334 354.555 548.025 354.555C536.716 354.555 527.549 363.722 527.549 375.031C527.549 386.34 536.716 395.507 548.025 395.507Z" fill="black"/>
<path d="M605.517 395.507C616.826 395.507 625.994 386.34 625.994 375.031C625.994 363.722 616.826 354.555 605.517 354.555C594.209 354.555 585.041 363.722 585.041 375.031C585.041 386.34 594.209 395.507 605.517 395.507Z" fill="black"/>
<path d="M30.5348 444.079C36.8944 444.079 42.05 438.924 42.05 432.564C42.05 426.204 36.8944 421.049 30.5348 421.049C24.1751 421.049 19.0195 426.204 19.0195 432.564C19.0195 438.924 24.1751 444.079 30.5348 444.079Z" fill="black"/>
<path d="M88.0224 447.931C96.5099 447.931 103.39 441.051 103.39 432.563C103.39 424.076 96.5099 417.195 88.0224 417.195C79.5348 417.195 72.6543 424.076 72.6543 432.563C72.6543 441.051 79.5348 447.931 88.0224 447.931Z" fill="black"/>
<path d="M145.513 452.217C156.368 452.217 165.167 443.418 165.167 432.563C165.167 421.709 156.368 412.91 145.513 412.91C134.659 412.91 125.859 421.709 125.859 432.563C125.859 443.418 134.659 452.217 145.513 452.217Z" fill="black"/>
<path d="M203.003 452.217C213.858 452.217 222.657 443.418 222.657 432.563C222.657 421.709 213.858 412.91 203.003 412.91C192.149 412.91 183.35 421.709 183.35 432.563C183.35 443.418 192.149 452.217 203.003 452.217Z" fill="black"/>
<path d="M260.537 458.797C275.025 458.797 286.771 447.052 286.771 432.564C286.771 418.075 275.025 406.33 260.537 406.33C246.048 406.33 234.303 418.075 234.303 432.564C234.303 447.052 246.048 458.797 260.537 458.797Z" fill="black"/>
<path d="M318.025 458.797C332.514 458.797 344.259 447.052 344.259 432.564C344.259 418.075 332.514 406.33 318.025 406.33C303.536 406.33 291.791 418.075 291.791 432.564C291.791 447.052 303.536 458.797 318.025 458.797Z" fill="black"/>
<path d="M375.515 458.797C390.004 458.797 401.749 447.052 401.749 432.564C401.749 418.075 390.004 406.33 375.515 406.33C361.027 406.33 349.281 418.075 349.281 432.564C349.281 447.052 361.027 458.797 375.515 458.797Z" fill="black"/>
<path d="M433.003 452.217C443.858 452.217 452.657 443.418 452.657 432.563C452.657 421.709 443.858 412.91 433.003 412.91C422.149 412.91 413.35 421.709 413.35 432.563C413.35 443.418 422.149 452.217 433.003 452.217Z" fill="black"/>
<path d="M490.537 452.217C501.391 452.217 510.19 443.418 510.19 432.563C510.19 421.709 501.391 412.91 490.537 412.91C479.682 412.91 470.883 421.709 470.883 432.563C470.883 443.418 479.682 452.217 490.537 452.217Z" fill="black"/>
<path d="M548.025 453.04C559.334 453.04 568.501 443.872 568.501 432.564C568.501 421.255 559.334 412.087 548.025 412.087C536.716 412.087 527.549 421.255 527.549 432.564C527.549 443.872 536.716 453.04 548.025 453.04Z" fill="black"/>
<path d="M605.514 447.931C614.002 447.931 620.883 441.051 620.883 432.563C620.883 424.076 614.002 417.195 605.514 417.195C597.027 417.195 590.146 424.076 590.146 432.563C590.146 441.051 597.027 447.931 605.514 447.931Z" fill="black"/>
<path d="M88.0224 505.421C96.5099 505.421 103.39 498.541 103.39 490.053C103.39 481.566 96.5099 474.685 88.0224 474.685C79.5348 474.685 72.6543 481.566 72.6543 490.053C72.6543 498.541 79.5348 505.421 88.0224 505.421Z" fill="black"/>
<path d="M145.513 510.53C156.822 510.53 165.99 501.362 165.99 490.053C165.99 478.745 156.822 469.577 145.513 469.577C134.205 469.577 125.037 478.745 125.037 490.053C125.037 501.362 134.205 510.53 145.513 510.53Z" fill="black"/>
<path d="M203.003 509.707C213.858 509.707 222.657 500.908 222.657 490.053C222.657 479.199 213.858 470.399 203.003 470.399C192.149 470.399 183.35 479.199 183.35 490.053C183.35 500.908 192.149 509.707 203.003 509.707Z" fill="black"/>
<path d="M260.537 509.707C271.391 509.707 280.19 500.908 280.19 490.053C280.19 479.199 271.391 470.399 260.537 470.399C249.682 470.399 240.883 479.199 240.883 490.053C240.883 500.908 249.682 509.707 260.537 509.707Z" fill="black"/>
<path d="M318.025 509.707C328.879 509.707 337.679 500.908 337.679 490.053C337.679 479.199 328.879 470.399 318.025 470.399C307.17 470.399 298.371 479.199 298.371 490.053C298.371 500.908 307.17 509.707 318.025 509.707Z" fill="black"/>
<path d="M375.515 509.707C386.37 509.707 395.169 500.908 395.169 490.053C395.169 479.199 386.37 470.399 375.515 470.399C364.661 470.399 355.861 479.199 355.861 490.053C355.861 500.908 364.661 509.707 375.515 509.707Z" fill="black"/>
<path d="M433.003 509.707C443.858 509.707 452.657 500.908 452.657 490.053C452.657 479.199 443.858 470.399 433.003 470.399C422.149 470.399 413.35 479.199 413.35 490.053C413.35 500.908 422.149 509.707 433.003 509.707Z" fill="black"/>
<path d="M490.537 510.53C501.846 510.53 511.013 501.362 511.013 490.053C511.013 478.745 501.846 469.577 490.537 469.577C479.228 469.577 470.061 478.745 470.061 490.053C470.061 501.362 479.228 510.53 490.537 510.53Z" fill="black"/>
<path d="M548.025 510.53C559.334 510.53 568.501 501.362 568.501 490.053C568.501 478.745 559.334 469.577 548.025 469.577C536.716 469.577 527.549 478.745 527.549 490.053C527.549 501.362 536.716 510.53 548.025 510.53Z" fill="black"/>
<path d="M145.513 562.911C154 562.911 160.881 556.03 160.881 547.543C160.881 539.055 154 532.175 145.513 532.175C137.025 532.175 130.145 539.055 130.145 547.543C130.145 556.03 137.025 562.911 145.513 562.911Z" fill="black"/>
<path d="M203.004 568.02C214.312 568.02 223.48 558.852 223.48 547.543C223.48 536.234 214.312 527.067 203.004 527.067C191.695 527.067 182.527 536.234 182.527 547.543C182.527 558.852 191.695 568.02 203.004 568.02Z" fill="black"/>
<path d="M260.537 568.02C271.846 568.02 281.013 558.852 281.013 547.543C281.013 536.234 271.846 527.067 260.537 527.067C249.228 527.067 240.061 536.234 240.061 547.543C240.061 558.852 249.228 568.02 260.537 568.02Z" fill="black"/>
<path d="M318.025 568.02C329.334 568.02 338.501 558.852 338.501 547.543C338.501 536.234 329.334 527.067 318.025 527.067C306.716 527.067 297.549 536.234 297.549 547.543C297.549 558.852 306.716 568.02 318.025 568.02Z" fill="black"/>
<path d="M375.513 568.02C386.822 568.02 395.99 558.852 395.99 547.543C395.99 536.234 386.822 527.067 375.513 527.067C364.205 527.067 355.037 536.234 355.037 547.543C355.037 558.852 364.205 568.02 375.513 568.02Z" fill="black"/>
<path d="M433.004 568.02C444.312 568.02 453.48 558.852 453.48 547.543C453.48 536.234 444.312 527.067 433.004 527.067C421.695 527.067 412.527 536.234 412.527 547.543C412.527 558.852 421.695 568.02 433.004 568.02Z" fill="black"/>
<path d="M490.537 568.02C501.846 568.02 511.013 558.852 511.013 547.543C511.013 536.234 501.846 527.067 490.537 527.067C479.228 527.067 470.061 536.234 470.061 547.543C470.061 558.852 479.228 568.02 490.537 568.02Z" fill="black"/>
<path d="M203.003 620.401C211.49 620.401 218.371 613.52 218.371 605.033C218.371 596.545 211.49 589.665 203.003 589.665C194.515 589.665 187.635 596.545 187.635 605.033C187.635 613.52 194.515 620.401 203.003 620.401Z" fill="black"/>
<path d="M260.534 620.401C269.022 620.401 275.902 613.52 275.902 605.033C275.902 596.545 269.022 589.665 260.534 589.665C252.047 589.665 245.166 596.545 245.166 605.033C245.166 613.52 252.047 620.401 260.534 620.401Z" fill="black"/>
<path d="M318.025 625.509C329.334 625.509 338.501 616.342 338.501 605.033C338.501 593.724 329.334 584.557 318.025 584.557C306.716 584.557 297.549 593.724 297.549 605.033C297.549 616.342 306.716 625.509 318.025 625.509Z" fill="black"/>
<path d="M375.513 625.509C386.822 625.509 395.99 616.342 395.99 605.033C395.99 593.724 386.822 584.557 375.513 584.557C364.205 584.557 355.037 593.724 355.037 605.033C355.037 616.342 364.205 625.509 375.513 625.509Z" fill="black"/>
<path d="M433.005 620.401C441.492 620.401 448.373 613.52 448.373 605.033C448.373 596.545 441.492 589.665 433.005 589.665C424.517 589.665 417.637 596.545 417.637 605.033C417.637 613.52 424.517 620.401 433.005 620.401Z" fill="black"/>
<path d="M606.858 45.4183C615.346 45.4183 622.226 38.5377 622.226 30.0502C622.226 21.5626 615.346 14.6821 606.858 14.6821C598.371 14.6821 591.49 21.5626 591.49 30.0502C591.49 38.5377 598.371 45.4183 606.858 45.4183Z" fill="black"/>
<path d="M664.347 50.5269C675.656 50.5269 684.824 41.3593 684.824 30.0505C684.824 18.7418 675.656 9.57422 664.347 9.57422C653.039 9.57422 643.871 18.7418 643.871 30.0505C643.871 41.3593 653.039 50.5269 664.347 50.5269Z" fill="black"/>
<path d="M721.881 50.5269C733.189 50.5269 742.357 41.3593 742.357 30.0505C742.357 18.7418 733.189 9.57422 721.881 9.57422C710.572 9.57422 701.404 18.7418 701.404 30.0505C701.404 41.3593 710.572 50.5269 721.881 50.5269Z" fill="black"/>
<path d="M779.37 45.4183C787.858 45.4183 794.738 38.5377 794.738 30.0502C794.738 21.5626 787.858 14.6821 779.37 14.6821C770.882 14.6821 764.002 21.5626 764.002 30.0502C764.002 38.5377 770.882 45.4183 779.37 45.4183Z" fill="black"/>
<path d="M836.858 45.4183C845.346 45.4183 852.226 38.5377 852.226 30.0502C852.226 21.5626 845.346 14.6821 836.858 14.6821C828.371 14.6821 821.49 21.5626 821.49 30.0502C821.49 38.5377 828.371 45.4183 836.858 45.4183Z" fill="black"/>
<path d="M606.858 102.908C615.346 102.908 622.226 96.0275 622.226 87.5399C622.226 79.0524 615.346 72.1719 606.858 72.1719C598.371 72.1719 591.49 79.0524 591.49 87.5399C591.49 96.0275 598.371 102.908 606.858 102.908Z" fill="black"/>
<path d="M548.243 47.9295C556.731 47.9295 563.611 41.049 563.611 32.5614C563.611 24.0739 556.731 17.1934 548.243 17.1934C539.756 17.1934 532.875 24.0739 532.875 32.5614C532.875 41.049 539.756 47.9295 548.243 47.9295Z" fill="black"/>
<path d="M548.243 624.168C556.731 624.168 563.611 617.287 563.611 608.8C563.611 600.312 556.731 593.432 548.243 593.432C539.756 593.432 532.875 600.312 532.875 608.8C532.875 617.287 539.756 624.168 548.243 624.168Z" fill="black"/>
<path d="M664.349 102.908C672.836 102.908 679.717 96.0275 679.717 87.5399C679.717 79.0524 672.836 72.1719 664.349 72.1719C655.861 72.1719 648.98 79.0524 648.98 87.5399C648.98 96.0275 655.861 102.908 664.349 102.908Z" fill="black"/>
<path d="M721.881 108.017C733.189 108.017 742.357 98.8491 742.357 87.5403C742.357 76.2315 733.189 67.064 721.881 67.064C710.572 67.064 701.404 76.2315 701.404 87.5403C701.404 98.8491 710.572 108.017 721.881 108.017Z" fill="black"/>
<path d="M779.369 108.017C790.678 108.017 799.845 98.8491 799.845 87.5403C799.845 76.2315 790.678 67.064 779.369 67.064C768.06 67.064 758.893 76.2315 758.893 87.5403C758.893 98.8491 768.06 108.017 779.369 108.017Z" fill="black"/>
<path d="M836.859 108.017C848.168 108.017 857.335 98.8491 857.335 87.5403C857.335 76.2315 848.168 67.064 836.859 67.064C825.55 67.064 816.383 76.2315 816.383 87.5403C816.383 98.8491 825.55 108.017 836.859 108.017Z" fill="black"/>
<path d="M894.349 102.908C902.836 102.908 909.717 96.0275 909.717 87.5399C909.717 79.0524 902.836 72.1719 894.349 72.1719C885.861 72.1719 878.98 79.0524 878.98 87.5399C878.98 96.0275 885.861 102.908 894.349 102.908Z" fill="black"/>
<path d="M664.346 159.835C672.499 159.835 679.108 153.225 679.108 145.073C679.108 136.92 672.499 130.311 664.346 130.311C656.193 130.311 649.584 136.92 649.584 145.073C649.584 153.225 656.193 159.835 664.346 159.835Z" fill="black"/>
<path d="M721.879 159.835C730.032 159.835 736.641 153.225 736.641 145.073C736.641 136.92 730.032 130.311 721.879 130.311C713.726 130.311 707.117 136.92 707.117 145.073C707.117 153.225 713.726 159.835 721.879 159.835Z" fill="black"/>
<path d="M779.371 164.727C790.225 164.727 799.024 155.927 799.024 145.073C799.024 134.218 790.225 125.419 779.371 125.419C768.516 125.419 759.717 134.218 759.717 145.073C759.717 155.927 768.516 164.727 779.371 164.727Z" fill="black"/>
<path d="M836.859 164.727C847.713 164.727 856.513 155.927 856.513 145.073C856.513 134.218 847.713 125.419 836.859 125.419C826.004 125.419 817.205 134.218 817.205 145.073C817.205 155.927 826.004 164.727 836.859 164.727Z" fill="black"/>
<path d="M894.349 165.549C905.658 165.549 914.826 156.382 914.826 145.073C914.826 133.764 905.658 124.597 894.349 124.597C883.041 124.597 873.873 133.764 873.873 145.073C873.873 156.382 883.041 165.549 894.349 165.549Z" fill="black"/>
<path d="M951.839 160.441C960.326 160.441 967.207 153.561 967.207 145.073C967.207 136.586 960.326 129.705 951.839 129.705C943.351 129.705 936.471 136.586 936.471 145.073C936.471 153.561 943.351 160.441 951.839 160.441Z" fill="black"/>
<path d="M721.879 217.324C730.032 217.324 736.641 210.715 736.641 202.562C736.641 194.409 730.032 187.8 721.879 187.8C713.726 187.8 707.117 194.409 707.117 202.562C707.117 210.715 713.726 217.324 721.879 217.324Z" fill="black"/>
<path d="M779.371 222.216C790.225 222.216 799.024 213.417 799.024 202.563C799.024 191.708 790.225 182.909 779.371 182.909C768.516 182.909 759.717 191.708 759.717 202.563C759.717 213.417 768.516 222.216 779.371 222.216Z" fill="black"/>
<path d="M836.859 222.216C847.713 222.216 856.513 213.417 856.513 202.563C856.513 191.708 847.713 182.909 836.859 182.909C826.004 182.909 817.205 191.708 817.205 202.563C817.205 213.417 826.004 222.216 836.859 222.216Z" fill="black"/>
<path d="M894.349 222.216C905.204 222.216 914.003 213.417 914.003 202.563C914.003 191.708 905.204 182.909 894.349 182.909C883.495 182.909 874.695 191.708 874.695 202.563C874.695 213.417 883.495 222.216 894.349 222.216Z" fill="black"/>
<path d="M951.839 217.93C960.326 217.93 967.207 211.05 967.207 202.562C967.207 194.075 960.326 187.194 951.839 187.194C943.351 187.194 936.471 194.075 936.471 202.562C936.471 211.05 943.351 217.93 951.839 217.93Z" fill="black"/>
<path d="M1009.37 214.077C1015.73 214.077 1020.89 208.922 1020.89 202.562C1020.89 196.202 1015.73 191.047 1009.37 191.047C1003.01 191.047 997.855 196.202 997.855 202.562C997.855 208.922 1003.01 214.077 1009.37 214.077Z" fill="black"/>
<path d="M721.879 274.814C730.032 274.814 736.641 268.205 736.641 260.052C736.641 251.899 730.032 245.29 721.879 245.29C713.726 245.29 707.117 251.899 707.117 260.052C707.117 268.205 713.726 274.814 721.879 274.814Z" fill="black"/>
<path d="M779.371 279.706C790.225 279.706 799.024 270.907 799.024 260.052C799.024 249.198 790.225 240.398 779.371 240.398C768.516 240.398 759.717 249.198 759.717 260.052C759.717 270.907 768.516 279.706 779.371 279.706Z" fill="black"/>
<path d="M836.859 286.286C851.348 286.286 863.093 274.541 863.093 260.052C863.093 245.564 851.348 233.818 836.859 233.818C822.37 233.818 810.625 245.564 810.625 260.052C810.625 274.541 822.37 286.286 836.859 286.286Z" fill="black"/>
<path d="M894.349 279.706C905.204 279.706 914.003 270.907 914.003 260.052C914.003 249.198 905.204 240.398 894.349 240.398C883.495 240.398 874.695 249.198 874.695 260.052C874.695 270.907 883.495 279.706 894.349 279.706Z" fill="black"/>
<path d="M951.84 280.528C963.148 280.528 972.316 271.36 972.316 260.052C972.316 248.743 963.148 239.575 951.84 239.575C940.531 239.575 931.363 248.743 931.363 260.052C931.363 271.36 940.531 280.528 951.84 280.528Z" fill="black"/>
<path d="M1009.37 275.42C1017.86 275.42 1024.74 268.54 1024.74 260.052C1024.74 251.565 1017.86 244.684 1009.37 244.684C1000.88 244.684 994.002 251.565 994.002 260.052C994.002 268.54 1000.88 275.42 1009.37 275.42Z" fill="black"/>
<path d="M721.879 332.303C730.032 332.303 736.641 325.694 736.641 317.541C736.641 309.388 730.032 302.779 721.879 302.779C713.726 302.779 707.117 309.388 707.117 317.541C707.117 325.694 713.726 332.303 721.879 332.303Z" fill="black"/>
<path d="M779.371 337.196C790.225 337.196 799.024 328.396 799.024 317.542C799.024 306.687 790.225 297.888 779.371 297.888C768.516 297.888 759.717 306.687 759.717 317.542C759.717 328.396 768.516 337.196 779.371 337.196Z" fill="black"/>
<path d="M836.859 343.776C851.348 343.776 863.093 332.031 863.093 317.542C863.093 303.053 851.348 291.308 836.859 291.308C822.37 291.308 810.625 303.053 810.625 317.542C810.625 332.031 822.37 343.776 836.859 343.776Z" fill="black"/>
<path d="M894.349 337.196C905.204 337.196 914.003 328.396 914.003 317.542C914.003 306.687 905.204 297.888 894.349 297.888C883.495 297.888 874.695 306.687 874.695 317.542C874.695 328.396 883.495 337.196 894.349 337.196Z" fill="black"/>
<path d="M951.84 338.018C963.148 338.018 972.316 328.85 972.316 317.541C972.316 306.232 963.148 297.065 951.84 297.065C940.531 297.065 931.363 306.232 931.363 317.541C931.363 328.85 940.531 338.018 951.84 338.018Z" fill="black"/>
<path d="M1009.37 332.91C1017.86 332.91 1024.74 326.029 1024.74 317.542C1024.74 309.054 1017.86 302.174 1009.37 302.174C1000.88 302.174 994.002 309.054 994.002 317.542C994.002 326.029 1000.88 332.91 1009.37 332.91Z" fill="black"/>
<path d="M721.879 389.793C730.032 389.793 736.641 383.184 736.641 375.031C736.641 366.878 730.032 360.269 721.879 360.269C713.726 360.269 707.117 366.878 707.117 375.031C707.117 383.184 713.726 389.793 721.879 389.793Z" fill="black"/>
<path d="M779.371 394.685C790.225 394.685 799.024 385.885 799.024 375.031C799.024 364.176 790.225 355.377 779.371 355.377C768.516 355.377 759.717 364.176 759.717 375.031C759.717 385.885 768.516 394.685 779.371 394.685Z" fill="black"/>
<path d="M836.859 401.266C851.348 401.266 863.093 389.52 863.093 375.032C863.093 360.543 851.348 348.798 836.859 348.798C822.37 348.798 810.625 360.543 810.625 375.032C810.625 389.52 822.37 401.266 836.859 401.266Z" fill="black"/>
<path d="M894.349 394.685C905.204 394.685 914.003 385.885 914.003 375.031C914.003 364.176 905.204 355.377 894.349 355.377C883.495 355.377 874.695 364.176 874.695 375.031C874.695 385.885 883.495 394.685 894.349 394.685Z" fill="black"/>
<path d="M951.84 395.507C963.148 395.507 972.316 386.34 972.316 375.031C972.316 363.722 963.148 354.555 951.84 354.555C940.531 354.555 931.363 363.722 931.363 375.031C931.363 386.34 940.531 395.507 951.84 395.507Z" fill="black"/>
<path d="M1009.37 390.4C1017.86 390.4 1024.74 383.519 1024.74 375.032C1024.74 366.544 1017.86 359.664 1009.37 359.664C1000.88 359.664 994.002 366.544 994.002 375.032C994.002 383.519 1000.88 390.4 1009.37 390.4Z" fill="black"/>
<path d="M721.879 447.326C730.032 447.326 736.641 440.717 736.641 432.564C736.641 424.411 730.032 417.802 721.879 417.802C713.726 417.802 707.117 424.411 707.117 432.564C707.117 440.717 713.726 447.326 721.879 447.326Z" fill="black"/>
<path d="M779.371 452.217C790.225 452.217 799.024 443.418 799.024 432.563C799.024 421.709 790.225 412.91 779.371 412.91C768.516 412.91 759.717 421.709 759.717 432.563C759.717 443.418 768.516 452.217 779.371 452.217Z" fill="black"/>
<path d="M836.859 452.217C847.713 452.217 856.513 443.418 856.513 432.563C856.513 421.709 847.713 412.91 836.859 412.91C826.004 412.91 817.205 421.709 817.205 432.563C817.205 443.418 826.004 452.217 836.859 452.217Z" fill="black"/>
<path d="M894.349 452.217C905.204 452.217 914.003 443.418 914.003 432.563C914.003 421.709 905.204 412.91 894.349 412.91C883.495 412.91 874.695 421.709 874.695 432.563C874.695 443.418 883.495 452.217 894.349 452.217Z" fill="black"/>
<path d="M951.839 447.931C960.326 447.931 967.207 441.051 967.207 432.563C967.207 424.076 960.326 417.195 951.839 417.195C943.351 417.195 936.471 424.076 936.471 432.563C936.471 441.051 943.351 447.931 951.839 447.931Z" fill="black"/>
<path d="M1009.37 444.079C1015.73 444.079 1020.89 438.924 1020.89 432.564C1020.89 426.204 1015.73 421.049 1009.37 421.049C1003.01 421.049 997.855 426.204 997.855 432.564C997.855 438.924 1003.01 444.079 1009.37 444.079Z" fill="black"/>
<path d="M664.346 504.816C672.499 504.816 679.108 498.207 679.108 490.054C679.108 481.901 672.499 475.292 664.346 475.292C656.193 475.292 649.584 481.901 649.584 490.054C649.584 498.207 656.193 504.816 664.346 504.816Z" fill="black"/>
<path d="M721.879 504.816C730.032 504.816 736.641 498.207 736.641 490.054C736.641 481.901 730.032 475.292 721.879 475.292C713.726 475.292 707.117 481.901 707.117 490.054C707.117 498.207 713.726 504.816 721.879 504.816Z" fill="black"/>
<path d="M779.371 509.707C790.225 509.707 799.024 500.908 799.024 490.053C799.024 479.199 790.225 470.399 779.371 470.399C768.516 470.399 759.717 479.199 759.717 490.053C759.717 500.908 768.516 509.707 779.371 509.707Z" fill="black"/>
<path d="M836.859 509.707C847.713 509.707 856.513 500.908 856.513 490.053C856.513 479.199 847.713 470.399 836.859 470.399C826.004 470.399 817.205 479.199 817.205 490.053C817.205 500.908 826.004 509.707 836.859 509.707Z" fill="black"/>
<path d="M894.349 510.53C905.658 510.53 914.826 501.362 914.826 490.053C914.826 478.745 905.658 469.577 894.349 469.577C883.041 469.577 873.873 478.745 873.873 490.053C873.873 501.362 883.041 510.53 894.349 510.53Z" fill="black"/>
<path d="M951.839 505.421C960.326 505.421 967.207 498.541 967.207 490.053C967.207 481.566 960.326 474.685 951.839 474.685C943.351 474.685 936.471 481.566 936.471 490.053C936.471 498.541 943.351 505.421 951.839 505.421Z" fill="black"/>
<path d="M606.858 562.911C615.346 562.911 622.226 556.03 622.226 547.543C622.226 539.055 615.346 532.175 606.858 532.175C598.371 532.175 591.49 539.055 591.49 547.543C591.49 556.03 598.371 562.911 606.858 562.911Z" fill="black"/>
<path d="M664.349 562.911C672.836 562.911 679.717 556.03 679.717 547.543C679.717 539.055 672.836 532.175 664.349 532.175C655.861 532.175 648.98 539.055 648.98 547.543C648.98 556.03 655.861 562.911 664.349 562.911Z" fill="black"/>
<path d="M721.881 568.02C733.189 568.02 742.357 558.852 742.357 547.543C742.357 536.234 733.189 527.067 721.881 527.067C710.572 527.067 701.404 536.234 701.404 547.543C701.404 558.852 710.572 568.02 721.881 568.02Z" fill="black"/>
<path d="M779.369 568.02C790.678 568.02 799.845 558.852 799.845 547.543C799.845 536.234 790.678 527.067 779.369 527.067C768.06 527.067 758.893 536.234 758.893 547.543C758.893 558.852 768.06 568.02 779.369 568.02Z" fill="black"/>
<path d="M836.859 568.02C848.168 568.02 857.335 558.852 857.335 547.543C857.335 536.234 848.168 527.067 836.859 527.067C825.55 527.067 816.383 536.234 816.383 547.543C816.383 558.852 825.55 568.02 836.859 568.02Z" fill="black"/>
<path d="M894.349 562.911C902.836 562.911 909.717 556.03 909.717 547.543C909.717 539.055 902.836 532.175 894.349 532.175C885.861 532.175 878.98 539.055 878.98 547.543C878.98 556.03 885.861 562.911 894.349 562.911Z" fill="black"/>
<path d="M606.858 620.401C615.346 620.401 622.226 613.52 622.226 605.033C622.226 596.545 615.346 589.665 606.858 589.665C598.371 589.665 591.49 596.545 591.49 605.033C591.49 613.52 598.371 620.401 606.858 620.401Z" fill="black"/>
<path d="M664.347 625.509C675.656 625.509 684.824 616.342 684.824 605.033C684.824 593.724 675.656 584.557 664.347 584.557C653.039 584.557 643.871 593.724 643.871 605.033C643.871 616.342 653.039 625.509 664.347 625.509Z" fill="black"/>
<path d="M721.881 625.509C733.189 625.509 742.357 616.342 742.357 605.033C742.357 593.724 733.189 584.557 721.881 584.557C710.572 584.557 701.404 593.724 701.404 605.033C701.404 616.342 710.572 625.509 721.881 625.509Z" fill="black"/>
<path d="M779.37 620.401C787.858 620.401 794.738 613.52 794.738 605.033C794.738 596.545 787.858 589.665 779.37 589.665C770.882 589.665 764.002 596.545 764.002 605.033C764.002 613.52 770.882 620.401 779.37 620.401Z" fill="black"/>
<path d="M836.858 620.401C845.346 620.401 852.226 613.52 852.226 605.033C852.226 596.545 845.346 589.665 836.858 589.665C828.371 589.665 821.49 596.545 821.49 605.033C821.49 613.52 828.371 620.401 836.858 620.401Z" fill="black"/>
</g>
<defs>
<clipPath id="clip0_5807_3376">
<rect width="1009.53" height="615.935" fill="white" transform="translate(15.166 9.57422)"/>
</clipPath>
</defs>
</svg>
