<svg version="1.1" xmlns="http://www.w3.org/2000/svg" style="display: block;" viewBox="0 0 2048 2048" width="1024" height="1024" preserveAspectRatio="none">
<path transform="translate(0,0)" fill="rgb(0,0,0)" d="M 1294.36 1135.46 C 1346.89 1130.92 1386.92 1080.24 1387.71 1028.82 C 1388.14 1000.66 1375.79 961.54 1363.59 936.31 C 1357.78 924.295 1345.76 910.985 1338.8 899.143 C 1294.81 834.14 1266.5 751.001 1338.36 693.446 C 1360.63 675.744 1389.78 672.276 1417.57 676.07 C 1441.91 679.393 1483.02 699.087 1475.95 729.946 C 1475.18 733.256 1473.09 736.104 1470.16 737.82 C 1454.28 747.209 1439.78 725.274 1429.1 718.183 C 1386.08 689.606 1339.01 719.906 1330.81 766.451 C 1324.21 803.854 1335.9 838.962 1354.72 868.947 L 1356.06 871.421 C 1362.55 882.401 1370.47 893.399 1377.74 903.941 C 1380.04 907.752 1385.87 918.062 1388.18 921.176 C 1420.13 984.132 1436.19 1037.58 1397.34 1104.02 C 1396.05 1106.23 1390.35 1114.93 1389.63 1116.82 C 1381.17 1125.26 1374.26 1131.99 1364.77 1139.48 C 1346.85 1148.54 1334 1159.66 1312.63 1162.68 C 1303.53 1163.96 1283.54 1161.1 1280.32 1169.44 C 1287 1176.06 1298.71 1168.48 1312.03 1191.89 C 1315.98 1198.95 1318.95 1206.5 1320.89 1214.36 C 1325.08 1231.14 1334.52 1297.28 1332.58 1317.89 C 1332.41 1319.78 1330.25 1320.43 1328.63 1320.85 C 1318.49 1317.46 1321.43 1299.42 1319.97 1289.72 C 1315.21 1258.32 1314.57 1222.63 1298.93 1194.31 C 1293.61 1184.68 1283.1 1182.34 1273.38 1180.25 C 1269.9 1183.37 1266.18 1187.39 1262.76 1190.76 C 1246.21 1207.08 1225.69 1214.97 1215.78 1236.68 C 1229.63 1269.49 1249.5 1296.24 1267.73 1327.07 C 1284.61 1355.59 1238.89 1382.81 1219.15 1395.04 C 1215.74 1397.15 1210.11 1398.87 1206.11 1399.06 C 1202.18 1399.25 1203.02 1395.6 1200.37 1394.64 C 1190.96 1393.3 1180.1 1397.19 1175.66 1385.53 C 1175.61 1376.67 1181.56 1375 1185.41 1366.91 C 1179.83 1364.41 1177.07 1364.17 1175.58 1357.88 C 1178.52 1344.88 1199.94 1340.35 1210.89 1335.65 C 1214.51 1334.1 1217.11 1334.89 1220.6 1332.1 C 1220.61 1326.08 1180.81 1297.82 1172.96 1290.71 C 1143.81 1264.35 1119.61 1246.17 1132.18 1203.19 C 1117.28 1202.97 1109.43 1202.17 1094.92 1198.94 C 1090.26 1239.9 1080.09 1282.94 1074.07 1323.98 C 1069.01 1358.44 1118.23 1363.38 1107 1384.87 C 1104.3 1387.43 1102.64 1386.9 1099.09 1387.46 C 1092.92 1388.45 1098.05 1394.03 1092.87 1399.85 C 1083.66 1402.75 1080.13 1396.26 1074.07 1396.61 C 1072.92 1400.08 1072.63 1402.3 1069.78 1404.51 C 1053.51 1408.06 1041.3 1381.57 1036.2 1369.95 C 1032.25 1375.16 1024.8 1383.77 1017.45 1380.95 C 1015.79 1379.38 1013.62 1377.2 1013.75 1374.81 C 1014.56 1359.32 1024.73 1346.1 1028.2 1330.58 C 1032.53 1311.19 1031.35 1295.57 1032.95 1276.44 C 1038.7 1207.8 1040.28 1136.57 1034.87 1067.81 L 1034.79 1067.26 C 1034.91 1052.2 1031.21 999.326 1024.82 986.87 L 1023.61 986.343 C 1020.22 1001.94 1033.09 1026.34 1025.52 1038.87 C 1023.85 1041.64 1013.26 1050.13 1010.03 1052.93 C 1013.38 1060.19 1019.56 1072.55 1021.06 1080.04 C 1024.53 1097.38 1030.8 1121.22 1031.77 1138.49 C 1033.06 1161.59 1030.95 1184.81 1032.87 1207.95 C 1022.23 1211.33 1002.09 1216.45 997.728 1227.71 C 987.077 1255.18 999.207 1296.35 1006.25 1324.01 C 1010.08 1339.07 1021.73 1345.85 1005.28 1358.85 C 997.484 1365.14 996.142 1379.53 982.347 1380.09 C 973.609 1380.45 973.528 1371.72 972.638 1365.56 C 961.694 1364.79 930.64 1388.03 918.123 1382.59 C 916.578 1381.92 913.254 1378.26 911.981 1376.88 C 909.01 1376 908.857 1375.85 905.807 1375.76 C 904.472 1367.03 901.395 1365.88 903.329 1357.08 C 913.013 1339.85 949.185 1335.35 967.893 1330.93 C 964.425 1321.19 957.963 1312.5 953.261 1303.32 C 936.534 1270.68 905.668 1210.32 929.795 1176.1 C 942.333 1158.31 1000.56 1136.51 1022.8 1133.55 C 1013.29 1114.67 1015.49 1098.97 1009.75 1080.79 C 997.936 1043.36 979.982 1029.28 948.14 1011.64 C 913.494 1022.74 883.551 1021.68 849.227 1008.22 C 842.466 1005.57 838.147 1000.96 830.645 997.911 C 827.729 998.586 820.834 1001.91 818.722 1001.51 C 801.817 998.258 775.788 988.349 758.804 995.614 L 759.416 996.387 C 769.938 999.063 782.276 997.938 792.269 1000.26 C 823.285 1007.46 872.515 1011.97 892.775 1038.8 C 904.568 1054.42 913.468 1077.06 911.481 1096.25 C 910.443 1106.29 905.405 1110.47 895.663 1106.55 C 891.404 1110.54 892.958 1122.46 881.774 1119.86 C 876.624 1118.66 876.626 1111.96 873.238 1109.81 C 854.908 1140.52 847.647 1084.81 846.456 1074.55 C 845.86 1069.42 842.93 1062.63 840.389 1058.12 L 839.692 1056.91 C 801.612 1040.1 764.544 1056.03 722.728 1046.24 C 716.649 1048.84 708.916 1050.98 704.68 1056.31 C 686.087 1079.69 707.417 1161.64 697.89 1173.81 C 696.88 1175.11 695.525 1174.95 694.014 1175.25 C 688.541 1171.59 688.263 1159.6 688.293 1153.43 C 688.427 1125.94 680.62 1076.13 692.549 1051.35 C 695.343 1048.12 697.656 1046.11 700.81 1043.26 C 703.795 1042.08 705.926 1041.36 708.686 1039.64 C 708.648 1034.77 704.647 1032.59 703.733 1029.09 C 692.52 986.146 776.766 944.895 803.668 932.726 C 805.283 926.178 806.17 922.545 808.627 916.234 C 806.245 912.556 803.876 908.451 801.594 904.674 C 788.615 909.701 779.072 907.954 766.666 903.638 L 766.095 903.286 C 722.272 874.236 744.827 801.844 791.08 825.465 L 791.341 823.794 C 796.358 793.496 810.537 770.715 835.267 752.939 L 837.266 750.935 C 848.893 743.551 856.32 740.337 869.171 735.21 C 874.635 724.742 879.508 715.974 889.677 709.151 L 891.633 708.941 C 892.584 715.934 882.975 726.535 879.171 732.499 L 880.683 732.157 C 897.88 728.171 911.223 704.337 929.599 707.656 L 930.073 709.094 C 924.916 717.083 912.688 719.964 904.462 727.13 C 922.434 727.052 940.065 718.389 949.856 719.256 C 951.298 722.968 951.386 721.268 950.34 724.513 C 946.807 727.42 941.939 727.573 937.151 728.492 C 981.97 736.044 1006.9 749.656 1027.87 791.394 C 1049.29 775.722 1073.51 779.103 1088.65 801.38 C 1090.06 803.496 1091.39 805.666 1092.64 807.885 C 1097.51 808.54 1103.99 810.066 1108.5 809.959 C 1119.11 809.706 1140.67 800.599 1149.78 806.313 C 1151.05 809.04 1151.07 807.713 1150.27 810.353 C 1143.26 815.679 1125.24 812.88 1123.32 817.666 C 1132.3 819.784 1157.54 813.994 1166.56 823.783 L 1167.03 826.152 C 1162.09 830.985 1142.53 826.232 1135.58 825.352 C 1144.21 829.37 1152.74 833.434 1160.94 838.308 C 1171.61 844.656 1224.08 879.019 1227.45 888.39 C 1227.59 888.77 1227.64 889.177 1227.73 889.571 L 1226.35 891.866 C 1220.85 892.757 1213.09 884.856 1208.21 881.317 C 1213.12 887.287 1218.18 893.67 1223.48 899.24 C 1233.77 914.252 1252.26 937.119 1259.9 953.104 C 1283.56 1002.56 1302.86 1081.42 1294.36 1135.46 z M 831.731 984.135 C 834.688 986.445 838.87 989.925 841.946 991.82 C 847.646 996.351 859.459 1000.64 866.883 1003.19 C 920.212 1021.48 1014.84 990.426 1010.26 922.932 C 1009.08 905.602 996.935 888.927 982.17 880.412 C 975.374 876.672 977.237 870.883 981.219 864.994 C 1007.55 826.048 983.117 769.919 931.752 776.81 C 912.51 779.392 899.505 790 887.232 806.531 C 875.772 796.993 866.613 789.834 850.304 789.813 C 839.677 789.748 829.465 793.935 821.942 801.441 C 803.035 820.353 804.474 855.952 818.811 876.96 C 822.705 882.666 826.144 886.389 831.023 891.288 C 827.513 902.257 818.94 912.225 815.8 925.027 C 809.839 949.323 814.704 966.278 831.731 984.135 z M 783.472 1018.7 C 781.201 1012.65 771.289 1011.77 765.41 1012.16 C 769.819 1016.79 777.236 1018.32 783.472 1018.7 z M 954.054 1203.48 C 956.222 1198.25 962.938 1185.53 962.587 1181.72 C 958.082 1186.56 951.106 1196.75 954.054 1203.48 z M 1067.31 1397.23 L 1066.73 1395.92 C 1062.84 1387.28 1051.91 1373.21 1054.45 1365.6 C 1060.85 1364.52 1064.77 1371.18 1068.23 1375.75 C 1072.2 1381.33 1078.89 1390.53 1086.36 1390.9 L 1086.33 1390.83 L 1085.33 1390.6 L 1086.2 1389.33 C 1079.98 1379.28 1069.48 1373.93 1067.98 1364.65 L 1068.98 1362.89 C 1077.43 1362 1091.47 1377.21 1101.99 1381.96 C 1092.68 1370.2 1080.53 1364.05 1071.08 1352.54 C 1067.61 1348.32 1067.37 1336.5 1064.79 1334.51 L 1061.96 1336.98 C 1057.7 1335.69 1054.82 1330.75 1052.23 1327 C 1050.71 1330.95 1050.67 1331.92 1047.61 1334.57 C 1041.3 1335.62 1040.06 1330.6 1038.03 1325.57 C 1035.07 1344 1030 1354.32 1021.86 1371.3 C 1030.56 1360.35 1038.24 1347.98 1045.43 1368.44 C 1049.44 1379.84 1057.79 1389.84 1067.31 1397.23 z M 1220.55 1291.45 C 1215.76 1283.46 1211.51 1277.44 1204.77 1270.93 C 1206.46 1276.47 1215.07 1289.61 1220.55 1291.45 z M 1026.55 890.498 C 1028.04 894.585 1030.38 901.096 1034.35 903.273 C 1033.41 898.797 1031.39 891.986 1026.55 890.498 z M 1091.29 1086.48 C 1094.23 1079.72 1096.27 1066.8 1094.47 1059.67 C 1093.18 1064.01 1089.6 1082.69 1091.29 1086.48 z M 1062.19 1244.14 C 1063.22 1238.94 1066.3 1226 1064.22 1221.39 L 1063.23 1220.58 C 1062.51 1225.11 1060.06 1240.77 1061.54 1244.05 L 1062.19 1244.14 z M 973.121 756.877 C 976.758 760.339 983.809 766.913 989.171 766.26 C 986.086 762.031 978.538 756.715 973.121 756.877 z M 908.626 765.516 C 913.301 762.389 917.342 759.923 921.46 756.056 L 921.641 754.584 L 921.065 753.989 C 916.388 756.506 910.494 759.546 907.693 764.181 L 908.626 765.516 z M 1243.99 1159.25 C 1248.76 1152.91 1252.75 1148.6 1254 1140.65 L 1253 1138.43 C 1250.76 1143.67 1243.55 1155.91 1243.99 1159.25 z M 1198.31 1366.38 C 1193.88 1369.87 1188.62 1373.36 1186.83 1378.8 C 1191.06 1376.34 1196.5 1370.92 1200.27 1367.47 C 1204.75 1364.25 1208.14 1360.46 1213.74 1361.85 L 1214.11 1363.51 C 1211.27 1370.79 1197.73 1381.17 1191.31 1388.55 L 1190.38 1389.64 C 1199.22 1384.66 1218.26 1365.41 1225.74 1367.33 L 1226.55 1369.31 C 1225.03 1374.76 1210.25 1385.42 1205.13 1391.43 C 1218.58 1385.72 1269.68 1351.84 1261.61 1333.88 C 1258.39 1331.07 1251.38 1327.42 1247.98 1331.18 C 1248.22 1334.25 1248.54 1335.64 1247.73 1338.65 C 1240.94 1341.41 1240.68 1334.37 1234.74 1333.53 L 1234.49 1335.28 C 1229.8 1339.17 1199.77 1348.78 1190.98 1353.88 C 1192.02 1354.43 1203.23 1352.26 1206.43 1352.07 C 1210.25 1358.6 1203.02 1362.54 1198.31 1366.38 z M 1082.21 1147.53 C 1081.45 1152.18 1078.07 1170.59 1078.62 1174.27 C 1081.57 1168.93 1084.78 1153.15 1082.21 1147.53 z M 1202.25 1291.98 C 1199.44 1287.54 1187.09 1272.95 1182.52 1270.77 C 1186.32 1277.49 1195.34 1288.55 1202.25 1291.98 z M 1208.29 920.492 C 1204.99 914.441 1200.38 906.755 1193.35 904.76 C 1197.25 909.819 1202.75 917.984 1208.29 920.492 z M 853.455 761.738 C 848.646 764.395 840.701 768.876 837.518 773.299 C 838.632 774.286 838.068 774.119 839.017 774.233 C 842 772.042 853.758 764.371 854.601 762.213 L 853.455 761.738 z M 1175.49 1232.58 C 1176.24 1238.16 1176.45 1243.59 1181.77 1246.59 C 1180.78 1242.34 1178.89 1235.42 1175.49 1232.58 z M 1045.09 844.665 L 1041.39 841.989 C 1035.76 843.088 1035.1 848.483 1031.32 852.735 C 1033.67 865.79 1032.72 878.459 1050.65 873.868 C 1063.2 870.535 1073.84 862.219 1080.11 850.847 C 1090.42 831.92 1086.95 806.027 1066.42 795.154 C 1062.55 793.104 1055.31 791.533 1050.92 792.363 C 1034.98 794.553 1029.41 801.765 1023.47 816.204 C 1025.76 824.791 1027.06 831.511 1028.64 840.293 C 1035.53 828.712 1048.42 813.252 1063.68 815.545 L 1065.07 817.569 C 1062.87 822.166 1049.83 828.477 1043.86 834.359 C 1051.2 838.016 1055.56 839.792 1056.34 848.434 L 1055.15 850.273 C 1050.03 850.848 1048.52 848.258 1045.09 844.665 z M 998.491 997.724 C 999.684 1002.72 1001.36 1007.26 1006.4 1009.47 C 1004.25 1004.96 1002.59 1000.74 998.491 997.724 z M 1150.59 904.596 C 1146.72 896.725 1135.23 887.81 1126.32 887.888 C 1129.85 890.932 1147.2 903.979 1150.59 904.596 z M 1213.95 1135.79 C 1217.09 1132.22 1219.95 1127.95 1219.37 1122.91 C 1217.13 1126.36 1214.33 1129.95 1213.49 1133.89 L 1213.95 1135.79 z M 766.467 975.338 C 771.29 972.692 778.256 969.236 782.348 965.852 C 782.112 964.165 782.51 964.725 781.614 963.927 C 777.555 965.944 767.32 970.49 765.649 974.522 L 766.467 975.338 z M 901.477 752.954 C 896.291 756.86 892.078 761.136 888.715 766.722 C 888.716 767.621 888.653 769.126 888.798 769.947 C 891.803 766.602 900.636 757.55 901.608 754.005 L 901.477 752.954 z M 1164.07 1228.59 C 1164.76 1222.71 1165.37 1216.69 1166.31 1210.86 L 1165.52 1209.87 C 1163.22 1215.41 1160.3 1223.06 1164.07 1228.59 z M 999.995 1192.84 C 997.021 1195.4 991.42 1200.53 990.677 1204.44 L 991.42 1205.13 C 993.904 1202.46 999.914 1196.73 1000.73 1193.69 L 999.995 1192.84 z M 917.714 1364.99 C 923.249 1362.47 928.683 1360.19 933.865 1357 L 933.999 1356.27 L 933.064 1356.1 C 926.621 1357.65 921.23 1359.26 916.596 1364.31 C 917.609 1365.06 917.297 1364.98 917.714 1364.99 z M 1107.79 904.31 C 1103.71 898.357 1097.5 893.279 1090.01 892.812 C 1093.27 897.553 1102.14 903.504 1107.79 904.31 z M 1063.31 1282.47 C 1065.01 1277.08 1067.44 1271.03 1065.44 1265.6 C 1064.01 1271.69 1062.47 1276.25 1063.31 1282.47 z M 1026.72 909.585 C 1025.25 904.651 1024.3 899.373 1019.63 896.746 C 1020.83 902.156 1021.52 906.782 1026.72 909.585 z M 997.269 1017.49 C 995.306 1011.9 991.988 1007.34 988.06 1002.93 C 987.623 1008.98 992.836 1013.84 997.269 1017.49 z M 924.25 1374.43 C 937.434 1369.28 968.423 1353.57 980.636 1354.16 C 985.747 1357.11 983.305 1365.68 982.56 1370.77 C 987.222 1366.9 1001.63 1350.06 1003.84 1345.2 C 1002.53 1339.76 998.58 1335.47 995.099 1330.86 C 993.48 1334.49 991.766 1340.03 988.842 1342.15 C 983.442 1340.44 983.691 1334.66 979.321 1333.53 L 977.992 1334.8 C 963.918 1348.2 948.484 1341.27 937.788 1351.6 C 940.226 1353.99 945.333 1351.82 949.751 1353.63 C 948.559 1364.52 927.481 1365.29 922.588 1373.52 L 924.25 1374.43 z M 973.14 1202.22 C 974.887 1199.4 977.084 1196.7 977.234 1193.54 L 976.188 1192.62 C 973.927 1195.57 972.497 1196.84 971.964 1200.51 L 973.14 1202.22 z M 1209.26 1051.52 C 1208.26 1043.28 1205.14 1027.69 1198.07 1022.88 C 1200.33 1029.21 1205.28 1048.9 1209.26 1051.52 z M 996.215 1168.72 C 992.439 1170.72 986.75 1173.27 985.353 1177.34 L 986.511 1177.43 C 989.87 1175.47 995.266 1172.77 997.571 1169.94 C 996.55 1168.75 997.094 1169.02 996.215 1168.72 z M 974.643 770.143 C 969.287 765.431 967.174 763.415 960.145 762.974 C 963.789 766.598 969.259 770.418 974.643 770.143 z M 941.991 1203.47 C 941.251 1210.28 939.509 1228.7 945.925 1232.56 C 945.006 1226.26 944.253 1205.25 941.991 1203.47 z M 1063.27 931.481 C 1066.15 936.775 1072.4 951.648 1076.49 953.594 C 1074.56 945.877 1071.57 934.306 1063.27 931.481 z M 1059.23 1115.43 C 1058.96 1119.65 1056.98 1144.98 1057.84 1147.96 L 1058.76 1148.03 L 1059 1147.74 C 1060.09 1140.74 1063.02 1122.67 1060.68 1116.57 L 1059.23 1115.43 z M 1227.49 1145.55 C 1223.98 1152.29 1210.27 1166.92 1210.55 1170.15 L 1211.03 1170.36 C 1216.04 1165.43 1228.47 1153.94 1228.73 1146.84 L 1227.49 1145.55 z M 1174.54 957.803 C 1174.72 958.176 1197.05 988.757 1196.61 988.382 C 1194.6 978.307 1183.77 962.359 1174.54 957.803 z M 1231.1 967.164 C 1229.75 960.491 1223.61 948.607 1217.43 945.584 C 1219.96 950.044 1227.55 964.254 1231.1 967.164 z M 1161.09 1192.79 C 1153.02 1203.64 1143.71 1223.45 1152.75 1235.84 C 1151.72 1228.52 1150.76 1222.55 1152.03 1215.06 C 1153.01 1209.28 1161.86 1197.01 1161.09 1192.79 z M 1150.42 963.575 C 1158.07 969.798 1163.21 974.878 1168.96 982.964 C 1171.54 986.593 1173.54 990.763 1177.35 992.57 C 1173.79 982.44 1161.46 965.657 1150.42 963.575 z M 737.566 1012.77 C 743.001 1023.54 756.593 1027.66 767.985 1027.75 C 764.18 1023.56 754.923 1022.96 748.663 1019.29 C 744.906 1017.09 741.553 1015.32 737.566 1012.77 z M 788.871 860.019 C 788.845 851.473 788.712 842.874 789.171 834.344 C 781.414 831.046 779.245 830.574 770.836 831.184 C 742.076 843.686 750.803 888.737 778.712 896.382 C 785.938 898.361 790.923 897.787 798.2 897.263 C 795.26 888.911 792.345 878.495 789.404 870.663 L 787.158 870.455 C 782.744 874.235 782.582 879.912 778.595 882.968 L 776.61 882.565 C 772.487 875.789 777.356 869.283 781.7 863.635 C 776.443 860.919 766.602 857.176 765.164 851.153 C 770.705 846.179 782.779 854.373 787.189 858.461 L 788.246 859.428 C 788.455 859.625 788.663 859.822 788.871 860.019 z M 1230.46 996.718 C 1229.53 988.929 1222.11 972.302 1215.23 968.626 C 1217.39 973.38 1224.69 989.558 1227.62 995.447 C 1228.57 995.871 1229.52 996.295 1230.46 996.718 z M 1054.83 993.243 C 1055.9 1000.01 1058.12 1030 1060.69 1033.24 C 1061.55 1023.88 1060.93 1003.83 1057.91 995.101 C 1056.19 993.699 1056.83 993.951 1054.83 993.243 z M 1251.79 1031.56 C 1253.21 1038.59 1256.85 1064.92 1259.96 1067.42 C 1260.62 1059.55 1258.77 1035.89 1251.79 1031.56 z M 1071.41 916.657 C 1074.01 919.701 1076.73 922.783 1078.95 926.119 C 1082.82 931.945 1087.31 943.977 1092.17 948.299 C 1090.81 937.944 1083.15 917.988 1071.41 916.657 z M 1071.08 1008.56 C 1072.06 1025.02 1071.9 1037.71 1071.47 1054.04 C 1072.73 1054.87 1072.08 1054.69 1073.36 1054.74 C 1074.44 1046.98 1077.72 1013.45 1071.08 1008.56 z M 1236.51 1053.43 C 1236.39 1058.18 1240.05 1092.68 1242.47 1094.39 C 1243.67 1085.44 1245.53 1058.23 1236.51 1053.43 z M 1124.21 866.201 C 1125.06 868.785 1126.7 870.189 1129.46 871.018 C 1144.21 875.459 1153 888.478 1164.45 896.136 C 1162.6 885.835 1135.2 865.964 1124.21 866.201 z M 1109.93 1111.33 C 1106.84 1134.3 1101.43 1167.45 1097.25 1189.9 C 1111.2 1190.87 1123.34 1192.5 1137.9 1193.16 C 1146.43 1175.89 1165.74 1156.5 1180.22 1144.12 C 1185.44 1139.66 1193.76 1134.06 1197.83 1129.3 L 1197.46 1128 C 1192.84 1127.74 1183.67 1135.34 1179.8 1138.22 C 1183.96 1088.77 1167.52 1063.26 1124.94 1039.9 C 1125.48 1030.97 1130.95 975.595 1124.7 971.244 C 1123.29 974.139 1122.09 978.804 1122.05 982.032 C 1121.55 1016.96 1118.1 1052.17 1113.46 1086.84 C 1112.47 1093.26 1110.26 1105.26 1109.93 1111.33 z M 858.478 1027.11 C 856.655 1031.42 857.786 1030.38 854.335 1032.73 C 850.85 1032.6 850.599 1032.3 847.428 1031.05 L 845.699 1032.05 C 848.247 1037.2 849.978 1035.64 851.059 1040.22 C 847.787 1042.45 846.053 1041.49 841.414 1042.17 C 842.838 1047.72 851.286 1055.8 853.832 1065.4 L 854.366 1067.37 C 856.806 1076.6 858.966 1105 864.939 1109.12 C 870.957 1101.32 864.618 1074.9 870.22 1069.36 L 871.977 1069.45 C 877.538 1076.06 878.308 1097.57 881.742 1108.83 L 883.338 1110.73 C 892.984 1105.01 881.487 1072.91 885.604 1063.94 C 892.633 1064.53 897.037 1092.68 900.453 1099.5 C 902.341 1097.26 902.643 1091.16 902.312 1088.37 C 900.142 1070.05 889.981 1047.25 875.623 1035.26 C 872.065 1032.29 862.844 1027 858.478 1027.11 z"/>
<path transform="translate(0,0)" fill="rgb(0,0,0)" d="M 963.729 906.076 C 975.081 907.412 993.624 920.23 981.262 929.704 C 977.34 928.855 976.404 927.189 974.374 923.733 C 970.653 926.824 968.099 933.216 964.969 937.085 C 962.716 939.871 959.848 942.427 957.213 944.86 C 958.586 960.587 956.19 975.332 940.172 982.757 C 933.012 986.095 924.783 986.292 917.472 983.3 C 907.183 979.132 901.905 971.456 897.968 961.568 C 893.452 961.634 889.261 961.98 884.771 962.317 C 875.236 963.238 848.708 972.66 843.877 966.519 C 844.968 962.42 851.878 959.352 855.541 958.023 C 891.203 945.084 943.14 960.366 964.443 918.856 C 964.396 916.267 960.833 914.965 957.544 911.725 L 957.545 909.806 C 959.851 907.139 960.426 907.26 963.729 906.076 z M 932.181 955.889 L 935.634 972.329 C 944.36 970.798 951.57 954.85 946.951 951.058 C 940.814 953.592 938.746 954.439 932.181 955.889 z M 922.123 974.384 L 926.375 974.087 C 929.561 968.988 926.391 963.553 923.079 959.612 C 920.247 958.495 919.668 958.888 916.648 959.356 C 912.201 959.873 911.649 959.13 909.073 961.545 C 909.719 967.305 917.12 972.085 922.123 974.384 z"/>
<path transform="translate(0,0)" fill="rgb(0,0,0)" d="M 944.95 820.618 L 947.722 821.432 C 952.007 827.15 943.498 833.182 939.302 837.484 C 944.182 842.196 952.331 849.998 949.699 857.345 L 947.425 858.092 C 939.538 856.185 936.62 850.99 931.245 844.602 C 927.41 849.552 925.311 852.993 922.064 858.318 C 919.3 860.289 919.479 860.457 916.182 860.87 C 910.542 855.309 919.746 843.145 923.643 838.38 C 918.995 834.997 913.292 831.998 913.806 825.736 L 915.703 824.396 C 922.138 824.05 925.599 827.808 930.688 831.728 C 936.171 826.046 938.414 824.406 944.95 820.618 z"/>
<path transform="translate(0,0)" fill="rgb(0,0,0)" d="M 860.299 829.552 C 864.167 829.613 864.457 829.487 866.474 832.252 C 865.933 837.243 860.736 842.222 857.3 846.188 C 861.882 850.055 870.121 857.041 866.524 863.574 C 860.035 865.627 854.615 858.478 850.506 854.262 C 847.827 858.132 844.693 863.369 842.113 867.425 C 839.261 868.621 837.962 868.304 835.674 867.593 L 834.68 864.87 C 835.563 856.986 838.124 854.041 842.801 847.989 C 838.681 844.987 829.27 839.811 833.399 834.246 C 839.65 833.146 843.601 837.13 848.89 840.801 C 852.497 836.908 856.463 833.232 860.299 829.552 z"/>
<path transform="translate(0,0)" fill="rgb(0,0,0)" d="M 905.02 885.113 L 908.16 886.535 C 910.505 889.772 910.004 888.021 909.795 891.948 C 906.454 898.055 900.846 901.375 895.159 905.275 C 891.688 903.573 893.079 904.755 890.848 901.566 C 889.902 893.688 898.269 887.286 905.02 885.113 z"/>
<path transform="translate(0,0)" fill="rgb(0,0,0)" d="M 859.626 890.879 C 870.928 890.558 878.974 895.236 877.51 907.52 C 872.061 907.247 862.847 904.66 859.677 899.694 C 857.962 897.01 859.01 893.813 859.626 890.879 z"/>
<path transform="translate(0,0)" fill="rgb(0,0,0)" d="M 1119.61 1139.29 C 1121.83 1140.2 1123.72 1140.43 1124.33 1143.05 C 1125.81 1149.34 1125.01 1158.91 1122.89 1164.75 C 1114.65 1159.92 1114.91 1146.43 1119.61 1139.29 z"/>
<path transform="translate(0,0)" fill="rgb(0,0,0)" d="M 1129.84 1149.29 C 1137.15 1151.43 1135.85 1157.36 1133.21 1162.68 C 1126 1160.16 1127.48 1154.86 1129.84 1149.29 z"/>
<path transform="translate(0,0)" fill="rgb(231,230,229)" fill-opacity="0.00784314" d="M 1124.21 866.201 C 1135.2 865.964 1162.6 885.835 1164.45 896.136 C 1153 888.478 1144.21 875.459 1129.46 871.018 C 1126.7 870.189 1125.06 868.785 1124.21 866.201 z"/>
<path transform="translate(0,0)" fill="rgb(231,230,229)" fill-opacity="0.0470588" d="M 1071.08 1008.56 C 1077.72 1013.45 1074.44 1046.98 1073.36 1054.74 C 1072.08 1054.69 1072.73 1054.87 1071.47 1054.04 C 1071.9 1037.71 1072.06 1025.02 1071.08 1008.56 z"/>
<path transform="translate(0,0)" fill="rgb(231,230,229)" fill-opacity="0.0117647" d="M 1054.83 993.243 C 1056.83 993.951 1056.19 993.699 1057.91 995.101 C 1060.93 1003.83 1061.55 1023.88 1060.69 1033.24 C 1058.12 1030 1055.9 1000.01 1054.83 993.243 z"/>
<path transform="translate(0,0)" fill="rgb(231,230,229)" fill-opacity="0.00784314" d="M 737.566 1012.77 C 741.553 1015.32 744.906 1017.09 748.663 1019.29 C 754.923 1022.96 764.18 1023.56 767.985 1027.75 C 756.593 1027.66 743.001 1023.54 737.566 1012.77 z"/>
<path transform="translate(0,0)" fill="rgb(231,230,229)" fill-opacity="0.0392157" d="M 1150.42 963.575 C 1161.46 965.657 1173.79 982.44 1177.35 992.57 C 1173.54 990.763 1171.54 986.593 1168.96 982.964 C 1163.21 974.878 1158.07 969.798 1150.42 963.575 z"/>
<path transform="translate(0,0)" fill="rgb(231,230,229)" fill-opacity="0.0235294" d="M 1161.09 1192.79 C 1161.86 1197.01 1153.01 1209.28 1152.03 1215.06 C 1150.76 1222.55 1151.72 1228.52 1152.75 1235.84 C 1143.71 1223.45 1153.02 1203.64 1161.09 1192.79 z"/>
<path transform="translate(0,0)" fill="rgb(231,230,229)" fill-opacity="0.027451" d="M 1174.54 957.803 C 1183.77 962.359 1194.6 978.307 1196.61 988.382 C 1197.05 988.757 1174.72 958.176 1174.54 957.803 z"/>
<path transform="translate(0,0)" fill="rgb(231,230,229)" fill-opacity="0.0431373" d="M 1227.49 1145.55 L 1228.73 1146.84 C 1228.47 1153.94 1216.04 1165.43 1211.03 1170.36 L 1210.55 1170.15 C 1210.27 1166.92 1223.98 1152.29 1227.49 1145.55 z"/>
<path transform="translate(0,0)" fill="rgb(231,230,229)" fill-opacity="0.0313725" d="M 1059.23 1115.43 L 1060.68 1116.57 C 1063.02 1122.67 1060.09 1140.74 1059 1147.74 L 1058.76 1148.03 L 1057.84 1147.96 C 1056.98 1144.98 1058.96 1119.65 1059.23 1115.43 z"/>
<path transform="translate(0,0)" fill="rgb(231,230,229)" fill-opacity="0.0117647" d="M 1198.07 1022.88 C 1205.14 1027.69 1208.26 1043.28 1209.26 1051.52 C 1205.28 1048.9 1200.33 1029.21 1198.07 1022.88 z"/>
<path transform="translate(0,0)" fill="rgb(231,230,229)" fill-opacity="0.0156863" d="M 941.991 1203.47 C 944.253 1205.25 945.006 1226.26 945.925 1232.56 C 939.509 1228.7 941.251 1210.28 941.991 1203.47 z"/>
<path transform="translate(0,0)" fill="rgb(231,230,229)" fill-opacity="0.027451" d="M 962.587 1181.72 C 962.938 1185.53 956.222 1198.25 954.054 1203.48 C 951.106 1196.75 958.082 1186.56 962.587 1181.72 z"/>
<path transform="translate(0,0)" fill="rgb(231,230,229)" fill-opacity="0.054902" d="M 1182.52 1270.77 C 1187.09 1272.95 1199.44 1287.54 1202.25 1291.98 C 1195.34 1288.55 1186.32 1277.49 1182.52 1270.77 z"/>
<path transform="translate(0,0)" fill="rgb(183,181,174)" fill-opacity="0.0588235" d="M 1204.77 1270.93 C 1211.51 1277.44 1215.76 1283.46 1220.55 1291.45 C 1215.07 1289.61 1206.46 1276.47 1204.77 1270.93 z"/>
<path transform="translate(0,0)" fill="rgb(231,230,229)" fill-opacity="0.0313725" d="M 1094.47 1059.67 C 1096.27 1066.8 1094.23 1079.72 1091.29 1086.48 C 1089.6 1082.69 1093.18 1064.01 1094.47 1059.67 z"/>
<path transform="translate(0,0)" fill="rgb(231,230,229)" fill-opacity="0.113725" d="M 1063.23 1220.58 L 1064.22 1221.39 C 1066.3 1226 1063.22 1238.94 1062.19 1244.14 L 1061.54 1244.05 C 1060.06 1240.77 1062.51 1225.11 1063.23 1220.58 z"/>
<path transform="translate(0,0)" fill="rgb(231,230,229)" fill-opacity="0.0980392" d="M 1217.43 945.584 C 1223.61 948.607 1229.75 960.491 1231.1 967.164 C 1227.55 964.254 1219.96 950.044 1217.43 945.584 z"/>
<path transform="translate(0,0)" fill="rgb(231,230,229)" fill-opacity="0.156863" d="M 1253 1138.43 L 1254 1140.65 C 1252.75 1148.6 1248.76 1152.91 1243.99 1159.25 C 1243.55 1155.91 1250.76 1143.67 1253 1138.43 z"/>
<path transform="translate(0,0)" fill="rgb(231,230,229)" fill-opacity="0.0352941" d="M 781.614 963.927 C 782.51 964.725 782.112 964.165 782.348 965.852 C 778.256 969.236 771.29 972.692 766.467 975.338 L 765.649 974.522 C 767.32 970.49 777.555 965.944 781.614 963.927 z"/>
<path transform="translate(0,0)" fill="rgb(183,181,174)" fill-opacity="0.0745098" d="M 901.477 752.954 L 901.608 754.005 C 900.636 757.55 891.803 766.602 888.798 769.947 C 888.653 769.126 888.716 767.621 888.715 766.722 C 892.078 761.136 896.291 756.86 901.477 752.954 z"/>
<path transform="translate(0,0)" fill="rgb(231,230,229)" fill-opacity="0.0392157" d="M 1082.21 1147.53 C 1084.78 1153.15 1081.57 1168.93 1078.62 1174.27 C 1078.07 1170.59 1081.45 1152.18 1082.21 1147.53 z"/>
<path transform="translate(0,0)" fill="rgb(231,230,229)" fill-opacity="0.0431373" d="M 1193.35 904.76 C 1200.38 906.755 1204.99 914.441 1208.29 920.492 C 1202.75 917.984 1197.25 909.819 1193.35 904.76 z"/>
<path transform="translate(0,0)" fill="rgb(231,230,229)" fill-opacity="0.0784314" d="M 853.455 761.738 L 854.601 762.213 C 853.758 764.371 842 772.042 839.017 774.233 C 838.068 774.119 838.632 774.286 837.518 773.299 C 840.701 768.876 848.646 764.395 853.455 761.738 z"/>
<path transform="translate(0,0)" fill="rgb(183,181,174)" fill-opacity="0.0470588" d="M 921.065 753.989 L 921.641 754.584 L 921.46 756.056 C 917.342 759.923 913.301 762.389 908.626 765.516 L 907.693 764.181 C 910.494 759.546 916.388 756.506 921.065 753.989 z"/>
<path transform="translate(0,0)" fill="rgb(231,230,229)" fill-opacity="0.0392157" d="M 973.121 756.877 C 978.538 756.715 986.086 762.031 989.171 766.26 C 983.809 766.913 976.758 760.339 973.121 756.877 z"/>
<path transform="translate(0,0)" fill="rgb(231,230,229)" fill-opacity="0.0313725" d="M 933.064 1356.1 L 933.999 1356.27 L 933.865 1357 C 928.683 1360.19 923.249 1362.47 917.714 1364.99 C 917.297 1364.98 917.609 1365.06 916.596 1364.31 C 921.23 1359.26 926.621 1357.65 933.064 1356.1 z"/>
<path transform="translate(0,0)" fill="rgb(231,230,229)" fill-opacity="0.101961" d="M 1200.27 1367.47 C 1196.5 1370.92 1191.06 1376.34 1186.83 1378.8 C 1188.62 1373.36 1193.88 1369.87 1198.31 1366.38 L 1200.27 1367.47 z"/>
<path transform="translate(0,0)" fill="rgb(231,230,229)" fill-opacity="0.0627451" d="M 1165.52 1209.87 L 1166.31 1210.86 C 1165.37 1216.69 1164.76 1222.71 1164.07 1228.59 C 1160.3 1223.06 1163.22 1215.41 1165.52 1209.87 z"/>
<path transform="translate(0,0)" fill="rgb(231,230,229)" fill-opacity="0.0196078" d="M 960.145 762.974 C 967.174 763.415 969.287 765.431 974.643 770.143 C 969.259 770.418 963.789 766.598 960.145 762.974 z"/>
<path transform="translate(0,0)" fill="rgb(231,230,229)" fill-opacity="0.0980392" d="M 988.06 1002.93 C 991.988 1007.34 995.306 1011.9 997.269 1017.49 C 992.836 1013.84 987.623 1008.98 988.06 1002.93 z"/>
<path transform="translate(0,0)" fill="rgb(183,181,174)" fill-opacity="0.0392157" d="M 996.215 1168.72 C 997.094 1169.02 996.55 1168.75 997.571 1169.94 C 995.266 1172.77 989.87 1175.47 986.511 1177.43 L 985.353 1177.34 C 986.75 1173.27 992.439 1170.72 996.215 1168.72 z"/>
<path transform="translate(0,0)" fill="rgb(231,230,229)" fill-opacity="0.0156863" d="M 1019.63 896.746 C 1024.3 899.373 1025.25 904.651 1026.72 909.585 C 1021.52 906.782 1020.83 902.156 1019.63 896.746 z"/>
<path transform="translate(0,0)" fill="rgb(183,181,174)" fill-opacity="0.0666667" d="M 999.995 1192.84 L 1000.73 1193.69 C 999.914 1196.73 993.904 1202.46 991.42 1205.13 L 990.677 1204.44 C 991.42 1200.53 997.021 1195.4 999.995 1192.84 z"/>
<path transform="translate(0,0)" fill="rgb(183,181,174)" fill-opacity="0.0431373" d="M 1175.49 1232.58 C 1178.89 1235.42 1180.78 1242.34 1181.77 1246.59 C 1176.45 1243.59 1176.24 1238.16 1175.49 1232.58 z"/>
<path transform="translate(0,0)" fill="rgb(231,230,229)" fill-opacity="0.0470588" d="M 1026.55 890.498 C 1031.39 891.986 1033.41 898.797 1034.35 903.273 C 1030.38 901.096 1028.04 894.585 1026.55 890.498 z"/>
<path transform="translate(0,0)" fill="rgb(183,181,174)" fill-opacity="0.0470588" d="M 1219.37 1122.91 C 1219.95 1127.95 1217.09 1132.22 1213.95 1135.79 L 1213.49 1133.89 C 1214.33 1129.95 1217.13 1126.36 1219.37 1122.91 z"/>
<path transform="translate(0,0)" fill="rgb(231,230,229)" fill-opacity="0.0235294" d="M 998.491 997.724 C 1002.59 1000.74 1004.25 1004.96 1006.4 1009.47 C 1001.36 1007.26 999.684 1002.72 998.491 997.724 z"/>
<path transform="translate(0,0)" fill="rgb(231,230,229)" fill-opacity="0.0509804" d="M 1065.44 1265.6 C 1067.44 1271.03 1065.01 1277.08 1063.31 1282.47 C 1062.47 1276.25 1064.01 1271.69 1065.44 1265.6 z"/>
<path transform="translate(0,0)" fill="rgb(147,145,145)" fill-opacity="0.0980392" d="M 976.188 1192.62 L 977.234 1193.54 C 977.084 1196.7 974.887 1199.4 973.14 1202.22 L 971.964 1200.51 C 972.497 1196.84 973.927 1195.57 976.188 1192.62 z"/>
<path transform="translate(0,0)" fill="rgb(0,0,0)" d="M 1461.87 1223.38 C 1492.05 1220.32 1543.54 1224.52 1556.21 1256.09 C 1568.19 1285.96 1570.76 1317.33 1560.4 1348.47 C 1555.86 1362.12 1534.92 1369.01 1523.01 1375.38 C 1482.59 1390.32 1432.15 1393.16 1391.08 1379.09 C 1386.18 1377.41 1372.55 1369.24 1376.29 1362.84 C 1379.47 1362.11 1380.51 1362.94 1383.52 1364.27 L 1384.59 1364.76 C 1400.54 1365.22 1398.18 1337.04 1398.01 1326.36 C 1388.47 1328.56 1378.09 1330.54 1369.45 1335.12 C 1365.85 1317.65 1364.44 1301.24 1369 1283.76 C 1370.28 1278.81 1375.89 1273.35 1374.07 1268.64 C 1371.76 1269.67 1368.89 1272.7 1368.08 1274.85 C 1359.74 1297 1358.81 1315.31 1365.25 1337.07 C 1363.24 1340.12 1361.47 1341.48 1357.82 1341.02 C 1347.27 1330.85 1351.38 1276.75 1363.39 1264.26 C 1388.48 1238.16 1427.56 1228.06 1461.87 1223.38 z M 1452.77 1306.01 C 1453.75 1320.64 1454.09 1328.74 1453.05 1343.54 L 1466.36 1342.77 C 1484.77 1340.69 1502.63 1337.93 1520.6 1333.2 C 1520.94 1321.11 1521.16 1310.83 1520.29 1298.68 L 1508.21 1299.5 C 1489.63 1301.07 1471.27 1303.8 1452.77 1306.01 z M 1459.53 1297.14 C 1479.24 1293.27 1499.22 1290.89 1519.3 1290.03 C 1516.58 1279.58 1513.74 1268.54 1509.67 1258.56 L 1500.44 1258.45 C 1476.54 1259.26 1464.38 1261.43 1441 1266.39 C 1444.75 1275.47 1448.89 1291.26 1451.71 1297.43 C 1454.86 1298.32 1456.33 1297.75 1459.53 1297.14 z M 1452.27 1351.12 C 1451.61 1360.84 1449.68 1366.92 1446.58 1376.01 C 1469.6 1376.48 1491.64 1372.74 1513.66 1366.2 C 1515.54 1359.13 1517.16 1350.25 1518.69 1342.98 L 1508.74 1345.47 C 1494.67 1348.94 1484.53 1349.98 1470.1 1351.38 C 1465.99 1351.89 1456.86 1351.3 1452.27 1351.12 z M 1425.41 1242.47 C 1429.52 1248.05 1434.03 1253.93 1437.77 1259.72 C 1443.05 1257.97 1447.77 1256.33 1453.24 1255.18 C 1474.06 1250.74 1483.34 1249.95 1504.99 1250.09 C 1502.41 1245.23 1499.52 1240.14 1497.45 1235.08 C 1490.5 1234.85 1481.46 1234.3 1474.66 1234.49 C 1456.99 1235.44 1442.54 1237.03 1425.41 1242.47 z M 1408.73 1312.69 C 1409.02 1318.58 1408.67 1339.83 1411 1342.85 L 1414.75 1342.92 C 1420.69 1343.24 1425.91 1343.61 1431.84 1344.23 C 1432.52 1337 1433.91 1316.47 1430.49 1310.54 C 1428.85 1310.22 1429.09 1310.01 1427.67 1310.39 C 1421.35 1311.24 1415.09 1312.15 1408.73 1312.69 z M 1554.52 1295.88 C 1549.82 1296 1544.58 1296.01 1539.94 1296.31 C 1540.47 1306.12 1541.05 1314.84 1540.64 1324.7 L 1551.75 1319.53 C 1557.2 1316.16 1554.85 1302.31 1554.52 1295.88 z M 1539.15 1288.8 C 1544.38 1288.36 1548.51 1288.06 1553.82 1288.03 C 1550.14 1269.62 1552.3 1264.44 1532.12 1261.6 C 1535.52 1272.19 1537.43 1277.73 1539.15 1288.8 z M 1430.62 1302.56 C 1428.56 1295.38 1423.96 1276.52 1418.3 1272.97 C 1412.11 1275.22 1405.68 1277.67 1399.43 1279.62 C 1402.61 1286.32 1406.83 1303.74 1408.63 1305.91 L 1411.2 1305.31 C 1418.56 1303.9 1423.19 1303.12 1430.62 1302.56 z M 1552.29 1329.01 L 1538.94 1335.28 C 1538.92 1340.43 1536.33 1353.34 1537.09 1354.58 L 1537.6 1354.6 C 1541.39 1352.3 1545.6 1349.61 1549.47 1347.53 C 1550.24 1344.25 1553.81 1331.36 1552.83 1329.21 L 1552.29 1329.01 z M 1528.89 1252.69 L 1542.69 1255.79 C 1539.67 1248.8 1537.04 1247.07 1529.8 1244.2 C 1527.63 1243.34 1525.44 1242.51 1523.25 1241.71 C 1525.07 1245.52 1526.65 1249.09 1528.89 1252.69 z M 1401.63 1250.89 L 1385.3 1259.94 L 1386.27 1260.88 C 1389.69 1264.24 1395.35 1272.3 1397.7 1272.69 L 1398.25 1272.38 C 1404.47 1269.61 1409.43 1267.58 1415.82 1265.25 C 1411.61 1259.39 1409.38 1255.88 1403.96 1251.09 L 1401.63 1250.89 z M 1430.92 1352.17 C 1422.19 1351.91 1417 1351.59 1408.38 1349.54 C 1407.03 1359.06 1406.55 1361.09 1401.29 1369.64 L 1425.24 1374.54 C 1427.61 1366.56 1429.16 1360.32 1430.92 1352.17 z"/>
<path transform="translate(0,0)" fill="rgb(0,0,0)" d="M 734.696 1117.15 C 749.451 1116.25 774.996 1124.36 755.507 1140.37 C 752.493 1153.56 751.343 1185 751.941 1198.6 C 765.839 1211.46 772.221 1219.18 769.951 1239.55 C 765.367 1280.71 758.051 1321.73 751.659 1362.65 C 751.289 1365.02 749.78 1370.15 747.603 1371.48 C 734.672 1379.58 705.833 1378.24 691.496 1373.22 C 649.951 1358.66 687.004 1334.3 629.798 1332.91 C 623.609 1310.24 620.982 1290.92 616.352 1268.67 C 608.548 1270.05 600.706 1271.21 592.836 1272.15 C 596.309 1286.78 603.099 1311.63 604.252 1326.97 C 604.409 1329.06 602.156 1330.04 600.582 1331.01 L 598.793 1330.28 C 592.719 1322.44 587.846 1292.51 585.628 1281.46 C 583.221 1270.93 580.409 1259.96 579.244 1249.26 C 577.284 1231.28 586.959 1223.36 596.976 1211.1 C 595.9 1190.4 593.336 1169.8 589.304 1149.46 C 581.194 1146.4 577.112 1140.91 583.918 1133.09 C 591.204 1124.72 598.467 1124.74 608.59 1124.38 C 612.906 1128.26 618.377 1130.24 619.072 1136.29 C 617.939 1140.41 616.518 1141.16 613.256 1144.25 C 618.694 1162.47 622.086 1187.9 630.172 1203.87 C 634.242 1205.48 643.062 1208.7 646.505 1211.19 C 662.439 1222.71 664.605 1249.7 668.359 1267.59 C 671.497 1282.55 674.098 1296.89 677.165 1311.49 C 680.092 1284.68 683.471 1256.01 687.823 1229.64 C 690.675 1213.04 695.362 1205.21 710.481 1197.26 C 721.805 1191.31 722.798 1172.15 725.481 1160.83 C 727.29 1153.2 728.74 1144.66 730.304 1136.82 C 720.291 1127.78 725.309 1123.54 734.696 1117.15 z M 711.43 1333.71 C 714.762 1307.89 721.138 1272.83 723.332 1248.38 C 712.601 1247.04 704.568 1245.42 694.334 1241.9 C 692.921 1258.29 690.485 1275.97 688.397 1292.36 C 687.143 1302.2 685.737 1317.54 683.841 1326.88 C 690.202 1328.86 705.509 1333.9 711.43 1333.71 z M 600.992 1224.37 C 593.008 1233.1 588.052 1244.97 594.805 1255.98 L 597.864 1257.63 C 599.337 1250.82 597.661 1244.83 598.402 1238.07 C 598.921 1233.33 603.31 1230.25 603.234 1225.44 L 600.992 1224.37 z M 721.651 1203.87 C 712.622 1209.3 696.256 1220.89 703.378 1233.28 C 708.652 1228.73 707.494 1222.22 712.115 1216.37 C 715.161 1212.52 721.766 1209.42 722.851 1205.53 L 721.651 1203.87 z M 689.7 1357.32 C 691.271 1351.82 692.238 1347.37 691.345 1341.71 C 690.349 1340.76 689.9 1340.21 688.756 1339.45 C 685.575 1346.19 684.09 1351.48 689.7 1357.32 z"/>
<path transform="translate(0,0)" fill="rgb(0,0,0)" d="M 461.26 1330.79 C 473.649 1329.99 472.555 1342.63 473.123 1351.91 C 483.789 1352.14 494.457 1352.27 505.126 1352.29 C 510.882 1346.94 520.814 1335.32 528.143 1333 C 542.65 1329.39 563.265 1332.08 578.209 1334.02 C 598.863 1336.71 636.74 1336.12 655.787 1342.86 C 664.476 1350.21 654.118 1406.58 647.441 1415.73 C 636.965 1420.88 580.692 1412.09 566.213 1412.34 C 555.818 1412.51 535.468 1409.51 524.996 1407 C 514.688 1404.53 506.93 1390.6 502.193 1381.69 C 492.409 1379.3 481.174 1378.21 471.137 1377.59 C 469.1 1384.77 467.205 1393.37 459.662 1396.53 C 457.86 1396.37 456.25 1396.48 454.975 1394.89 C 441.869 1378.62 450.652 1344.8 461.26 1330.79 z M 539.357 1365.57 C 549.447 1366.76 599.661 1373.15 605.393 1371.62 C 607.641 1359.89 608.703 1355.65 614.391 1345.23 C 600.571 1346.16 561.918 1341.28 547.349 1339.36 C 542.847 1348.88 541.541 1355.25 539.357 1365.57 z M 641.475 1397.33 C 643.342 1391.8 649.907 1360.39 648.563 1355.61 L 647.564 1354.63 C 641.52 1365.03 636.684 1381 639.906 1392.87 C 640.307 1394.4 640.832 1395.89 641.475 1397.33 z M 528.313 1395.19 C 524.655 1390.39 514.8 1374.95 510.626 1373.47 C 513.997 1381.31 519.528 1392.85 528.313 1395.19 z"/>
<path transform="translate(0,0)" fill="rgb(231,230,229)" fill-opacity="0.0705882" d="M 510.626 1373.47 C 514.8 1374.95 524.655 1390.39 528.313 1395.19 C 519.528 1392.85 513.997 1381.31 510.626 1373.47 z"/>
<path transform="translate(0,0)" fill="rgb(0,0,0)" d="M 804.472 1333.85 C 804.17 1333.36 803.875 1332.87 803.585 1332.37 C 781.045 1294.06 799.547 1254.23 835.757 1233.39 C 844.432 1237.52 900.536 1284.12 907.31 1292.11 C 908.493 1295.34 907.55 1297.41 906.724 1300.8 L 906.1 1301.42 C 884.455 1337.78 866.388 1360.14 820.01 1346.02 C 811.88 1351.99 808.193 1355.58 802.289 1363.82 C 799.138 1367.93 787.542 1383.07 785.127 1387.45 L 778.642 1396.73 C 782.557 1403.47 792.922 1420.2 793.407 1426.9 C 787.223 1436.03 758.889 1413.83 753.947 1408.76 C 748.169 1402.85 729.454 1390.61 736.99 1381.63 C 743.169 1380.31 761.128 1386.48 768.092 1388.55 C 780.121 1376.94 798.593 1349.89 804.472 1333.85 z M 812.979 1331.05 L 808.793 1344.89 C 814.284 1340.93 815.343 1340.16 821.652 1337.54 C 834.542 1341.15 842.916 1343.68 856.391 1339.79 C 878.496 1330.48 886.678 1315.11 899.019 1295.07 C 883.728 1285.44 851.933 1256.54 835.801 1243.64 C 806.523 1273.73 790.981 1287.62 812.979 1331.05 z M 779.187 1414.02 L 778.223 1412.63 C 774.034 1406.55 773.35 1404.82 770.88 1397.9 C 768.117 1395.72 756.396 1394.43 750.545 1392.76 C 755.058 1397.73 772.415 1412.85 778.465 1414.25 L 779.187 1414.02 z"/>
<path transform="translate(0,0)" fill="rgb(0,0,0)" d="M 816.383 1278.96 C 830.74 1281.3 834.985 1291.01 847.688 1295.41 C 856.987 1298.63 883.056 1293.16 886.226 1306.04 C 884.328 1314.24 874.477 1322.18 867.925 1327.18 C 818.135 1359.55 791.765 1294.03 816.383 1278.96 z"/>
<path transform="translate(0,0)" fill="rgb(231,230,229)" fill-opacity="0.00784314" d="M 750.545 1392.76 C 756.396 1394.43 768.117 1395.72 770.88 1397.9 C 773.35 1404.82 774.034 1406.55 778.223 1412.63 L 779.187 1414.02 L 778.465 1414.25 C 772.415 1412.85 755.058 1397.73 750.545 1392.76 z"/>
<path transform="translate(0,0)" fill="rgb(0,0,0)" d="M 1288.84 1411.47 C 1288.71 1388.72 1315.3 1396.05 1328.81 1388.54 C 1335.64 1384.74 1338.06 1367.77 1342.73 1361.38 C 1348.42 1349.7 1378.92 1332.56 1391.38 1336.25 C 1395.91 1344.49 1388.51 1347.29 1388.22 1348.97 C 1391.38 1351.09 1390.54 1349.71 1391.5 1352.75 C 1390.25 1356.52 1391.36 1355.15 1388.52 1357.31 C 1383.51 1356.5 1381.67 1355.04 1377.36 1356.61 C 1371.38 1361.62 1369.98 1369.42 1368.56 1376.95 C 1367.86 1380.68 1369.32 1384.72 1371.69 1387.68 C 1376.69 1393.91 1390.56 1395.56 1390.96 1404.41 C 1391.08 1406.88 1390.34 1409.19 1388.23 1410.64 C 1381.43 1415.33 1367.87 1412.66 1361.4 1414.12 C 1354.29 1415.74 1348.38 1421.51 1339.94 1419.85 C 1335.79 1419.03 1328.09 1415.54 1324.61 1415.45 C 1311.57 1415.11 1303.83 1420.55 1291.08 1414.09 C 1290.91 1413.73 1289.17 1411.84 1288.84 1411.47 z"/>
<path transform="translate(0,0)" fill="rgb(0,0,0)" d="M 862.18 648.27 C 866.041 650.517 873.79 654.354 877.026 656.908 C 884.401 662.726 881.201 686.441 869.898 686.441 C 863.873 681.888 874.091 675.224 871.44 667.307 C 869.677 661.507 862.718 660.857 858.588 657.913 C 834.634 640.842 880.645 629.811 878.955 616.146 C 871.253 610.592 857.892 621.053 851.983 614.923 C 851.812 609.292 856.334 606.207 861.552 605.575 C 872.182 604.287 878.057 604.308 887.233 610.298 C 893.743 622.478 886.192 629.38 876.125 636.412 C 869.665 640.981 867.508 642.508 862.18 648.27 z"/>
<path transform="translate(0,0)" fill="rgb(0,0,0)" d="M 1047.58 684.469 L 1050.21 685.299 C 1054.54 690.051 1053.86 702.068 1054.06 708.868 C 1059.19 706.045 1064.54 702.25 1069.94 705.946 L 1069.84 708.301 C 1067.29 712.109 1063.63 713.277 1059.39 715.384 C 1063.72 717.94 1068.76 720.37 1068.13 725.903 L 1065.98 727.078 C 1061.59 726.972 1059.02 724.793 1055.16 722.458 C 1055.15 730.02 1057.09 736.908 1051.51 742.299 C 1045.98 736.968 1047.07 730.03 1047.04 722.736 C 1042.14 725.86 1038.68 729.359 1032.8 727.679 C 1029.98 721.093 1038.66 717.563 1043.42 714.859 C 1038.51 712.49 1031.99 710.38 1033.4 703.847 L 1035.68 702.929 C 1040.03 703.215 1042.49 705.436 1046.23 707.878 C 1045.94 701.211 1044.6 690.065 1047.58 684.469 z"/>
<path transform="translate(0,0)" fill="rgb(0,0,0)" d="M 718.794 728.621 C 726.577 731.218 726.921 742.553 728.301 749.83 C 732.089 746.663 737.99 740.102 742.758 743.889 C 742.917 749.683 737.883 752.72 733.819 756.281 C 738.135 758.589 743.258 760.261 744.177 765.454 L 742.847 766.971 C 738.594 767.962 735.43 766.288 731.136 764.842 C 732.145 771.314 732.619 775.695 733.027 782.234 C 728.747 782.943 730.551 783.391 727.271 781.766 C 724.889 777.929 724.461 771.717 723.499 766.87 C 720.564 770.084 715.664 776.931 711.146 773.23 L 710.975 770.175 C 712.574 765.675 715.329 763.558 718.724 760.113 L 715.305 758.483 C 711.073 756.467 708.13 755.705 707.62 750.642 L 709.483 749.278 C 713.291 748.688 716.464 750.083 720.173 751.234 C 718.779 743.971 716.343 735.41 718.794 728.621 z"/>
<path transform="translate(0,0)" fill="rgb(0,0,0)" d="M 766.135 670.502 C 773.09 673.132 771.3 684.962 772.382 692.533 C 781.882 692.118 793.023 691.061 797.75 702.069 C 799.491 706.125 798.616 717.905 796.985 722.059 C 787.586 718.962 789.002 710.043 788.694 701.63 C 783.114 701.973 773.769 703.112 768.993 700.344 C 760.463 695.403 761.59 677.685 766.135 670.502 z"/>
<path transform="translate(0,0)" fill="rgb(0,0,0)" d="M 734.052 1429.64 C 726.518 1439.41 700.538 1442.99 697.05 1432.69 C 699.914 1420.6 723.51 1419.49 732.242 1427.74 L 734.052 1429.64 z"/>
<path transform="translate(0,0)" fill="rgb(0,0,0)" d="M 1446.52 1086.39 L 1449.49 1087.89 C 1457.57 1100.64 1440.8 1128.4 1430.12 1136.46 C 1427.68 1135.39 1427.81 1135.52 1426.28 1133.35 C 1426.84 1128.89 1437.78 1115.96 1440.11 1110.29 C 1443.2 1102.78 1442.44 1092.98 1446.52 1086.39 z"/>
<path transform="translate(0,0)" fill="rgb(0,0,0)" d="M 1392.25 1418.13 C 1399.05 1417.53 1403.43 1417.48 1408.25 1422.55 C 1409.96 1429.48 1403.97 1430.58 1398.57 1431.96 C 1390.86 1432.3 1386.01 1433.33 1380.59 1427.21 C 1379.53 1419.98 1386.65 1419.35 1392.25 1418.13 z"/>
<path transform="translate(0,0)" fill="rgb(0,0,0)" d="M 1460.42 1107.34 C 1474.24 1113.08 1454.82 1138.38 1448.34 1144.21 C 1447.23 1143.79 1445.76 1142.89 1444.68 1142.3 C 1443.38 1136.59 1451.95 1127.41 1454.29 1121.26 C 1456 1116.76 1458.29 1111.6 1460.42 1107.34 z"/>
<path transform="translate(0,0)" fill="rgb(0,0,0)" d="M 1240.2 734.308 C 1244.13 736.085 1242.92 734.718 1244.7 737.803 C 1243.03 744.687 1238.58 771.034 1236.47 774.154 C 1225.36 767.948 1234 742.273 1240.2 734.308 z"/>
<path transform="translate(0,0)" fill="rgb(0,0,0)" d="M 825.675 1375.29 C 830.85 1374.79 844.938 1373.67 845.107 1381.19 C 843.079 1384.49 841.414 1384.93 837.974 1386.72 C 836.913 1386.82 835.852 1386.9 834.79 1386.97 C 829.662 1387.32 818.724 1387.34 818.535 1380.31 C 820.633 1377.02 822.078 1376.82 825.675 1375.29 z"/>
<path transform="translate(0,0)" fill="rgb(0,0,0)" d="M 1594.51 1349.17 C 1601.55 1348.77 1608.25 1348.2 1612.37 1355.03 L 1611.78 1357.2 C 1608.89 1359.73 1608.51 1359.61 1604.95 1360.82 C 1596.91 1362.28 1593.9 1362.22 1587.31 1357.73 C 1585.76 1354.76 1585.86 1356.23 1586.74 1353.21 C 1589.64 1350.32 1590.41 1350.37 1594.51 1349.17 z"/>
<path transform="translate(0,0)" fill="rgb(0,0,0)" d="M 870.717 1390.19 C 875.91 1389.91 886.847 1390.25 885.648 1397.9 C 883.201 1400.87 882.398 1400.85 878.77 1401.99 C 873.566 1402.24 863.501 1402.19 864.439 1394.56 C 866.668 1391.6 867.351 1391.56 870.717 1390.19 z"/>
<path transform="translate(0,0)" fill="rgb(0,0,0)" d="M 734.85 1441 C 742.239 1438.57 747.291 1437.2 754.8 1440.48 C 754.547 1450.25 744.342 1452.65 736.917 1448.07 C 734.591 1446.63 734.969 1443.47 734.85 1441 z"/>
<path transform="translate(0,0)" fill="rgb(0,0,0)" d="M 938.484 602.169 C 942.142 602.67 942.944 602.532 945.888 604.854 C 946.419 608.441 944.195 610.035 941.779 614.148 C 942.202 617.549 946.753 620.15 948.316 626.271 C 946.184 628.252 946.178 628.071 943.376 629.037 C 937.175 627.867 938.082 622.923 938.095 617.15 C 938.108 611.525 937.175 607.646 938.484 602.169 z"/>
<path transform="translate(0,0)" fill="rgb(0,0,0)" d="M 1299.53 1354.07 C 1303.5 1354 1303.35 1353.9 1307.03 1355.28 C 1309.38 1358.2 1308.87 1356.59 1308.79 1360.2 C 1307.03 1363.45 1305.76 1363.83 1302.6 1365.73 C 1297.46 1365.4 1290.15 1365.48 1291.7 1358.26 C 1294.51 1355.18 1295.32 1355.27 1299.53 1354.07 z"/>
<path transform="translate(0,0)" fill="rgb(0,0,0)" d="M 1221.94 739.382 C 1231.9 740.283 1223.95 757.552 1221.96 763.887 C 1212.56 760.823 1218.98 745.667 1221.94 739.382 z"/>
<path transform="translate(0,0)" fill="rgb(0,0,0)" d="M 1554.01 1377.34 C 1559.78 1376.64 1567.77 1375.2 1570.72 1381.39 C 1569.51 1384.18 1570 1383.21 1567.7 1385.5 C 1562.27 1386.9 1556.92 1388.08 1552.52 1383.93 C 1552.08 1379.94 1552.05 1381.39 1554.01 1377.34 z"/>
<path transform="translate(0,0)" fill="rgb(0,0,0)" d="M 969.021 1425.34 C 974.296 1424.84 980.599 1423.73 984.009 1428.38 C 983.502 1432.29 984.078 1430.39 981.369 1434.04 C 976.059 1435.06 969.747 1436 966.674 1430.63 C 966.91 1427.59 967.084 1427.78 969.021 1425.34 z"/>
<path transform="translate(0,0)" fill="rgb(0,0,0)" d="M 1251.95 1414.9 C 1255.67 1414.99 1255.48 1414.97 1258.98 1416.24 C 1261.58 1419.07 1261.04 1417.5 1261.23 1420.86 C 1258.96 1424.35 1259.64 1423.27 1255.29 1425.32 C 1250.45 1425.03 1247.01 1425.05 1246.11 1419.7 C 1248.3 1416.15 1247.78 1417.19 1251.95 1414.9 z"/>
<path transform="translate(0,0)" fill="rgb(0,0,0)" d="M 480.691 1417.12 C 485.981 1417.04 490.529 1416.01 494.014 1420.44 C 493.84 1424.18 494.257 1422.34 492.003 1425.95 C 486.882 1426.13 482.505 1427.16 478.897 1423.15 C 478.583 1420.09 479.138 1419.8 480.691 1417.12 z"/>
<path transform="translate(0,0)" fill="rgb(0,0,0)" d="M 1412.64 857.578 L 1413.7 857.814 C 1416.02 861.869 1418.04 861.329 1418.1 867.026 C 1416.04 870.565 1417.5 869.194 1413.1 870.735 C 1408.87 870.024 1407.54 870.07 1406.43 866.026 C 1407.73 862.127 1409.71 860.659 1412.64 857.578 z"/>
<path transform="translate(0,0)" fill="rgb(0,0,0)" d="M 418.031 1394.81 C 419.574 1395.13 420.347 1395.6 421.815 1396.23 C 423.628 1399.19 423.274 1397.64 423.045 1401 C 420.728 1404.51 422.246 1403.06 417.823 1404.88 C 412.688 1404.12 412.716 1404.46 410.064 1401.36 L 410.369 1398.91 C 412.861 1395.85 414.214 1395.87 418.031 1394.81 z"/>
<path transform="translate(0,0)" fill="rgb(231,230,229)" fill-opacity="0.0117647" d="M 1208.21 881.317 C 1213.09 884.856 1220.85 892.757 1226.35 891.866 L 1227.73 889.571 C 1229.42 894.125 1229.19 895.622 1225.86 899.184 L 1224.35 898.821 L 1223.48 899.24 C 1218.18 893.67 1213.12 887.287 1208.21 881.317 z"/>
<path transform="translate(0,0)" fill="rgb(0,0,0)" d="M 689.064 880.337 C 697.307 881.127 698.844 886.029 698.376 893.296 C 689.558 893.06 688.775 887.647 689.064 880.337 z"/>
<path transform="translate(0,0)" fill="rgb(0,0,0)" d="M 680.297 838.759 C 684.27 839.264 686.928 839.895 689.832 842.626 C 691.157 846.758 690.952 844.613 689.759 849.318 C 685.535 848.954 682.544 848.513 679.751 845.046 C 678.919 840.907 678.831 842.934 680.297 838.759 z"/>
<path transform="translate(0,0)" fill="rgb(0,0,0)" d="M 528.32 1281.87 C 529.978 1280.98 531.993 1281.08 533.556 1282.13 C 535.12 1283.18 535.977 1285 535.785 1286.87 C 535.593 1288.75 534.382 1290.36 532.638 1291.07 C 530.134 1292.08 527.272 1290.96 526.123 1288.52 C 524.974 1286.07 525.939 1283.15 528.32 1281.87 z"/>
<path transform="translate(0,0)" fill="rgb(0,0,0)" d="M 1405.35 842.732 C 1407.89 842.075 1410.5 843.46 1411.39 845.925 C 1412.27 848.391 1411.13 851.124 1408.76 852.228 C 1407.02 853.037 1404.97 852.793 1403.47 851.597 C 1401.96 850.401 1401.27 848.459 1401.67 846.581 C 1402.07 844.704 1403.49 843.213 1405.35 842.732 z"/>
<path transform="translate(0,0)" fill="rgb(0,0,0)" d="M 425.995 1405.99 C 429.515 1405.96 433.192 1405.57 435.863 1407.64 C 437.006 1411.1 436.801 1409.28 435.717 1413.33 C 431.416 1413.94 429.153 1414.57 425.677 1412.72 C 424.558 1409.72 425.114 1409.12 425.995 1405.99 z"/>
<path transform="translate(0,0)" fill="rgb(0,0,0)" d="M 633.268 1025.89 C 634.799 1024.85 636.781 1024.74 638.411 1025.62 C 640.041 1026.5 641.049 1028.2 641.028 1030.05 C 641.007 1031.9 639.959 1033.59 638.31 1034.43 C 635.971 1035.62 633.112 1034.78 631.779 1032.52 C 630.445 1030.26 631.097 1027.36 633.268 1025.89 z"/>
<path transform="translate(0,0)" fill="rgb(0,0,0)" d="M 522.371 1262.93 C 523.859 1261.85 525.821 1261.69 527.471 1262.5 C 529.12 1263.31 530.186 1264.96 530.24 1266.8 C 530.295 1268.64 529.329 1270.35 527.731 1271.26 C 525.442 1272.56 522.537 1271.85 521.113 1269.63 C 519.688 1267.42 520.241 1264.48 522.371 1262.93 z"/>
<path transform="translate(0,0)" fill="rgb(0,0,0)" d="M 985.365 1439.32 C 986.813 1438.33 988.682 1438.2 990.25 1438.98 C 991.819 1439.76 992.843 1441.33 992.927 1443.08 C 993.011 1444.83 992.142 1446.49 990.656 1447.42 C 988.42 1448.82 985.48 1448.17 984.039 1445.96 C 982.599 1443.75 983.188 1440.8 985.365 1439.32 z"/>
<path transform="translate(0,0)" fill="rgb(0,0,0)" d="M 1420.97 848.24 C 1422.47 847.363 1424.34 847.368 1425.84 848.253 C 1427.34 849.138 1428.24 850.764 1428.2 852.506 C 1428.17 854.248 1427.19 855.833 1425.65 856.651 C 1423.34 857.883 1420.46 857.035 1419.18 854.743 C 1417.91 852.451 1418.7 849.559 1420.97 848.24 z"/>
<path transform="translate(0,0)" fill="rgb(0,0,0)" d="M 847.136 1411.15 C 849.439 1410.18 852.104 1411.14 853.255 1413.36 C 854.406 1415.58 853.656 1418.31 851.532 1419.63 C 850.004 1420.58 848.071 1420.59 846.529 1419.66 C 844.988 1418.73 844.098 1417.02 844.226 1415.22 C 844.354 1413.43 845.478 1411.85 847.136 1411.15 z"/>
<path transform="translate(0,0)" fill="rgb(0,0,0)" d="M 639.53 1043.57 C 641.214 1043.14 643.003 1043.66 644.187 1044.94 C 645.37 1046.21 645.755 1048.04 645.19 1049.68 C 644.624 1051.33 643.199 1052.53 641.481 1052.81 C 638.99 1053.22 636.62 1051.59 636.098 1049.12 C 635.576 1046.65 637.087 1044.21 639.53 1043.57 z"/>
<path transform="translate(0,0)" fill="rgb(0,0,0)" d="M 1001.06 1427.35 C 1003.16 1425.92 1006.02 1426.43 1007.51 1428.49 C 1009 1430.55 1008.58 1433.42 1006.56 1434.97 C 1005.2 1436.01 1003.38 1436.23 1001.82 1435.54 C 1000.25 1434.86 999.178 1433.37 999.021 1431.67 C 998.864 1429.97 999.645 1428.31 1001.06 1427.35 z"/>
<path transform="translate(0,0)" fill="rgb(0,0,0)" d="M 623.161 1037.63 C 625.266 1036.22 628.116 1036.75 629.567 1038.83 C 631.018 1040.91 630.536 1043.77 628.482 1045.26 C 627.121 1046.24 625.334 1046.42 623.808 1045.71 C 622.282 1045.01 621.254 1043.54 621.12 1041.86 C 620.986 1040.19 621.766 1038.57 623.161 1037.63 z"/>
<path transform="translate(0,0)" fill="rgb(0,0,0)" d="M 953.856 610.235 C 956.131 609.26 958.766 610.31 959.748 612.582 C 960.73 614.854 959.689 617.493 957.419 618.482 C 955.14 619.475 952.488 618.428 951.502 616.146 C 950.516 613.864 951.571 611.215 953.856 610.235 z"/>
<path transform="translate(0,0)" fill="rgb(0,0,0)" d="M 1309.46 1367.52 C 1311.26 1365.97 1313.96 1366.1 1315.59 1367.82 C 1317.23 1369.55 1317.22 1372.25 1315.58 1373.96 C 1314.45 1375.15 1312.76 1375.61 1311.18 1375.17 C 1309.6 1374.73 1308.39 1373.46 1308.03 1371.86 C 1307.67 1370.26 1308.22 1368.59 1309.46 1367.52 z"/>
<path transform="translate(0,0)" fill="rgb(0,0,0)" d="M 1625.96 1353.45 C 1627.63 1351.86 1630.25 1351.84 1631.93 1353.41 C 1633.62 1354.98 1633.79 1357.6 1632.32 1359.38 C 1631.29 1360.63 1629.66 1361.2 1628.07 1360.87 C 1626.49 1360.54 1625.22 1359.35 1624.77 1357.8 C 1624.33 1356.24 1624.78 1354.57 1625.96 1353.45 z"/>
<path transform="translate(0,0)" fill="rgb(0,0,0)" d="M 540.49 1268.5 C 542.662 1268.24 544.683 1269.65 545.183 1271.78 C 545.683 1273.91 544.502 1276.08 542.441 1276.81 C 540.889 1277.36 539.158 1276.97 537.986 1275.82 C 536.814 1274.66 536.409 1272.93 536.942 1271.37 C 537.476 1269.81 538.854 1268.7 540.49 1268.5 z"/>
<path transform="translate(0,0)" fill="rgb(0,0,0)" d="M 1321.16 1352.55 C 1323.07 1351.29 1325.64 1351.83 1326.88 1353.75 C 1328.12 1355.67 1327.56 1358.23 1325.64 1359.46 C 1323.73 1360.67 1321.2 1360.12 1319.97 1358.22 C 1318.74 1356.33 1319.27 1353.79 1321.16 1352.55 z"/>
<path transform="translate(0,0)" fill="rgb(147,145,145)" fill-opacity="0.0196078" d="M 1551.88 1390.48 C 1553.74 1390.32 1555.6 1390.19 1557.46 1390.07 C 1561.32 1389.87 1563.56 1389.33 1566.01 1391.52 C 1561.74 1393.29 1556.16 1391.65 1551.88 1390.48 z"/>
</svg>