<svg version="1.1" xmlns="http://www.w3.org/2000/svg" style="display: block;" viewBox="0 0 2048 2048" width="1024" height="1024" preserveAspectRatio="none">
<defs>
	<linearGradient id="Gradient1" gradientUnits="userSpaceOnUse" x1="700.191" y1="994.838" x2="703.709" y2="1013.37">
		<stop class="stop0" offset="0" stop-opacity="0" stop-color="rgb(157,156,156)"/>
		<stop class="stop1" offset="1" stop-opacity="0.0196078" stop-color="rgb(121,119,126)"/>
	</linearGradient>
	<linearGradient id="Gradient2" gradientUnits="userSpaceOnUse" x1="1564.81" y1="1274.17" x2="1585.83" y2="1249.56">
		<stop class="stop0" offset="0" stop-opacity="0.2" stop-color="rgb(255,255,255)"/>
		<stop class="stop1" offset="1" stop-opacity="0.294118" stop-color="rgb(255,255,255)"/>
	</linearGradient>
</defs>
<path transform="translate(0,0)" fill="rgb(0,0,0)" d="M 1111.22 771.516 C 1135.28 745.205 1171.99 731.792 1203.38 758.559 C 1210.64 764.744 1213.35 771.407 1216.95 779.941 C 1228.46 773.705 1240.34 770.226 1253.39 774.437 C 1262.71 777.537 1270.39 784.23 1274.75 793.027 C 1279.72 802.882 1279.54 811.492 1279.37 822.068 C 1321.43 812.911 1343.15 855.997 1319.84 889.404 C 1347.96 903.939 1351.34 928.405 1340.6 955.847 C 1335.29 963.11 1331.79 967.367 1324.55 973.023 C 1329.2 978.741 1330.74 980.827 1333.06 988.109 L 1334.07 994.119 C 1334.13 1006.44 1333.89 1008.33 1328.46 1019.4 C 1315.71 1034.3 1305.67 1038.84 1286.39 1040.89 C 1282.8 1066.77 1261 1075.69 1237.14 1071.27 C 1234.5 1070.79 1231.9 1070.08 1229.38 1069.16 C 1230.27 1078.34 1231.22 1092.53 1233.59 1101.03 C 1282.44 1101.22 1323.5 1112.72 1358.92 1148.53 C 1414.18 1204.4 1492.26 1357.83 1423.97 1424.22 L 1422.92 1425.22 C 1424.4 1428.7 1426.57 1433.35 1427.73 1436.83 L 1500.68 1435.81 C 1508.74 1435.69 1536.6 1431.45 1538.49 1441.49 C 1533.83 1447.35 1499.56 1445.62 1490.73 1445.66 C 1467.39 1445.96 1444.05 1446.1 1420.71 1446.07 C 1409.84 1446.08 1397.99 1445.08 1387.23 1446.46 C 1376.04 1447.89 1364.55 1453.6 1353.33 1456.24 C 1323.61 1463.25 1247.78 1475.24 1219.46 1470.32 C 1210.28 1468.73 1205.78 1472.33 1197.21 1473.69 C 1189.47 1474.04 1185.05 1473.31 1177.3 1472.28 C 1169.97 1470.71 1166.49 1470.2 1159.02 1469.63 C 1143.39 1476.86 1131.92 1496.72 1114.61 1493.6 C 1109.89 1492.75 1107.58 1485.5 1101.51 1489.14 C 1090.69 1495.63 1088.52 1488.8 1083.07 1486.41 C 1063.23 1477.71 1065.37 1469.19 1074.02 1451.68 C 1054.29 1451.73 1031.2 1452.36 1011.84 1450.91 C 1012.35 1468.91 1007.09 1477.66 987.192 1478.3 C 972.4 1478.79 957.403 1477.74 942.636 1478.98 C 933.614 1478.5 924.434 1479.06 915.393 1479.43 C 891.463 1479.37 867.517 1479.94 843.586 1480.1 C 838.381 1480.14 833.114 1480.11 827.955 1480.87 L 821.154 1480.9 C 809.371 1479.77 786.225 1480.73 773.754 1480.79 C 721.349 1480.86 668.945 1481.28 616.545 1482.05 C 580.798 1482.56 544.999 1483.62 509.268 1482.03 C 491.378 1481.23 481.539 1474.16 475.039 1457.69 C 464.938 1458.49 395.836 1461.17 391.098 1457.96 C 390.901 1454.12 390.452 1455.83 392.39 1452.61 C 399.277 1448.17 460.818 1449.51 472.058 1449.86 C 450.659 1382.2 425.321 1315.77 405.252 1247.64 C 402.248 1238.62 399.453 1229.76 397.077 1220.56 C 384.775 1172.94 439.216 1185.71 466.321 1186.09 C 557.365 1187.34 648.416 1181.3 739.506 1184.52 C 752.596 1184.98 764.81 1187.02 771.094 1200.05 C 775.281 1208.74 778.47 1219.52 781.575 1228.76 L 798.294 1278.22 C 817.772 1334.05 836.904 1390 855.69 1446.06 L 951.812 1444.52 C 971.733 1444.14 988.902 1441.83 1008.39 1446.24 C 1008.79 1445.99 1009.2 1445.74 1009.6 1445.49 C 1010.16 1445.16 1010.73 1444.86 1011.27 1444.51 C 1018.29 1440.1 1069.93 1441.78 1081.05 1442 C 1090.77 1427.85 1102.45 1420.35 1117.44 1412.94 C 1114.93 1403.2 1113.33 1390.72 1111.35 1380.62 C 1105.17 1349.14 1099.73 1317.66 1095.99 1285.79 C 1095.63 1282.75 1095.09 1279.43 1092.58 1277.53 L 1091.11 1278.28 C 1088 1285.53 1092.99 1307.87 1094.44 1316.79 C 1074.5 1340.11 1040.63 1370.71 1009.29 1376.66 C 990.793 1380.58 970.225 1374.1 955.095 1362.91 C 918.922 1336.15 893.616 1294.29 875.278 1253.76 C 871.522 1245.46 868.305 1236.73 866.342 1227.87 C 865.459 1223.89 868.349 1221.04 870.698 1218.3 C 866.096 1216.9 857.761 1214.83 854.095 1212.3 C 844.112 1211.91 840.053 1212.27 830.367 1209.53 C 829.213 1208.65 826.589 1207.52 825.169 1206.84 C 820.171 1202.32 818.666 1200.91 816.022 1194.71 C 813.243 1183.47 817.835 1150.06 823.475 1140.19 C 816.028 1138.13 808.663 1135.78 801.394 1133.16 C 794.058 1130.65 790.925 1128.88 784.066 1125.12 C 780.706 1122.19 780.294 1121.63 777.632 1117.99 L 776.895 1111.83 L 776.989 1111.3 C 782.267 1097.49 801.722 1102.19 813.291 1103.6 C 820.379 1104.97 827.445 1106.46 834.485 1108.06 C 861.498 1114.07 903.841 1121.9 915.562 1149.85 C 918.877 1157.76 921.794 1175.8 924.524 1180.09 C 935.597 1179.8 938.791 1185.5 945.063 1194.39 C 960.246 1215.91 975.572 1237.31 990.829 1258.77 C 994.909 1264.51 997.877 1278.58 1004.05 1279.21 L 1005.64 1277.79 C 1005.35 1271.3 1001.03 1264.17 997.947 1258.36 C 1047.1 1205.77 1075.31 1136.25 1150.67 1114.55 L 1145.39 1091.04 C 1143.08 1091.66 1140.73 1092.13 1138.37 1092.45 C 1070.95 1101.51 1015.58 1055.02 1007.48 988.463 C 1003.97 969.632 1004.34 955.698 1005.01 936.733 C 1006.41 930.318 1007.02 923.619 1007.8 917.08 C 944.521 914.203 952.981 818.075 1015.97 817.849 C 1015.95 812.229 1015.63 805.277 1017.29 800.004 C 1029.73 760.437 1079.84 749.151 1111.22 771.516 z M 1017.73 915.711 C 998.824 1005.52 1048.59 1100.32 1148.78 1080.44 C 1154.24 1079.35 1170.36 1074.43 1174.82 1076.44 C 1176.46 1085.61 1163.3 1095.62 1158.59 1103.43 C 1159.76 1110.77 1160.82 1117.76 1162.5 1125.01 C 1179.33 1148.57 1211.67 1126.15 1224.75 1109.39 C 1219.75 1082.3 1215.63 1045.15 1226.96 1018.34 C 1230.45 1012.12 1240.9 1010.96 1246.69 1009.84 C 1266.39 1006.04 1274.19 990.212 1271.65 971.235 C 1269.88 957.99 1259.5 949.572 1246.07 951.96 C 1237.38 953.504 1232.48 958.875 1226.56 964.905 C 1180.81 967.45 1175.69 943.343 1186.27 904.973 C 1168.64 916.26 1146.41 922.088 1131.1 902.514 C 1128.84 899.619 1128.78 893.259 1126.13 890.838 C 1105.96 911.266 1073.14 929.962 1055.94 895.516 C 1043.36 907.388 1034.78 912.623 1017.73 915.711 z M 1210.33 1461.43 C 1204.45 1447.21 1197.32 1426.64 1189.68 1414.13 C 1179.56 1413.42 1160.74 1410.94 1151.74 1412.46 C 1123.47 1414.09 1080.63 1442.18 1076.8 1470.85 L 1077.73 1473.27 L 1079.75 1473.89 C 1084.68 1470.54 1089.86 1460.08 1094.18 1454.98 C 1098.62 1449.76 1125.33 1419.47 1132.26 1430.25 C 1129.51 1438.99 1090.04 1461.3 1091.78 1479.55 C 1099 1488.25 1110.79 1468.73 1114.03 1463.64 C 1120.7 1455.58 1134.71 1442.44 1145.13 1440.82 L 1147.07 1441.59 C 1148.11 1444.84 1148.08 1443.27 1147.32 1446.47 C 1136.54 1457.8 1116.42 1466.55 1115.11 1483.67 L 1116.08 1485.44 C 1124.93 1487.5 1152.21 1455.09 1168.93 1461.23 C 1181.2 1465.73 1197.62 1465.79 1210.33 1461.43 z M 870.906 1155.54 C 871.371 1161.27 871.86 1165.42 872.751 1171.09 C 866.626 1178.73 866.807 1177.91 869.804 1187.23 C 865.442 1192.26 858.92 1200.02 863.122 1206.62 C 868.746 1209.95 875.637 1210 882.423 1211.41 C 892.88 1202.3 903.49 1192.89 915.844 1186.45 C 911.544 1162.42 907.573 1131.7 875.106 1134.26 C 866.669 1135.92 850.126 1140.94 845.852 1148.92 C 850.447 1157.45 873.061 1149.67 879.718 1151.98 C 881.35 1159.1 882.394 1170 888.699 1174.49 C 891.482 1176.47 895.127 1180.56 891.794 1183.56 C 878.877 1183.16 873.463 1165.68 870.906 1155.54 z M 860.017 1172.38 C 863.979 1170.68 865.925 1169.26 865.687 1164.48 C 857.386 1156.49 837.327 1168.9 838.924 1143.56 L 837.378 1142.82 C 811.525 1152.44 843.815 1172.03 860.017 1172.38 z M 634.672 1345.3 C 637.756 1321.92 627.348 1306.79 603.096 1304.06 C 593.995 1305.71 586.936 1308.56 581.495 1316.62 C 577.319 1322.93 575.845 1330.65 577.402 1338.06 C 579.083 1346.4 584.218 1353.64 591.536 1357.99 C 597.473 1361.56 603.568 1362.99 610.419 1362.79 C 623.042 1359.2 626.873 1356.61 634.672 1345.3 z M 823.847 1164.59 C 819.112 1185.1 845.701 1190.06 860.795 1187.35 C 861.043 1182.9 861.738 1184.62 859.774 1181.6 C 840.829 1178.56 842.207 1179.55 825.987 1166.04 C 824.767 1165.02 825.4 1165.47 823.847 1164.59 z M 854.669 1202.28 L 854.76 1198.59 C 851.727 1197.27 840.621 1195.48 835.311 1193.71 C 827.373 1191.06 827.724 1189.72 822.82 1187.51 C 826.279 1200.99 839.712 1206.29 852.439 1202.94 C 853.187 1202.74 853.931 1202.52 854.669 1202.28 z M 1339.78 1348.06 C 1335.28 1333.17 1313.81 1273.17 1304.57 1264.48 L 1301.32 1263.51 C 1299.91 1270.02 1313.87 1299.45 1316.98 1307.24 C 1322.38 1320.77 1327.62 1335.1 1332.9 1348.7 C 1308.09 1355.53 1199.93 1381.12 1188.27 1400.24 C 1187.44 1401.61 1187.45 1401.73 1186.95 1403.05 L 1188.23 1403.85 C 1195.4 1402.12 1199.11 1398.43 1205.75 1395.55 C 1243.62 1378.88 1286.89 1367.98 1326.99 1357.55 C 1333.79 1355.79 1353.97 1353.13 1357.23 1349.11 C 1353.25 1345.29 1344.84 1347.42 1339.78 1348.06 z M 1196.8 1142.32 C 1184.89 1144.85 1165.71 1145.82 1158.28 1134.59 C 1155.43 1130.27 1154.31 1126.85 1150.24 1124.25 C 1146.4 1123.7 1142.83 1125.3 1139.06 1126.51 C 1139.43 1128.15 1139.87 1129.78 1140.39 1131.39 C 1143.79 1141.52 1151.2 1149.81 1160.88 1154.32 C 1174.95 1161.01 1191.56 1159.63 1205.91 1154.61 C 1227.06 1147.17 1244.34 1131.55 1253.87 1111.26 C 1247.45 1111.04 1242.08 1110.58 1235.68 1109.95 C 1229.81 1121.17 1225.32 1125.07 1215.74 1133.21 C 1207.93 1137.67 1205.23 1139.32 1196.8 1142.32 z M 753.773 1197.08 C 752.16 1202.41 768.083 1243.54 771.05 1252.45 C 788.869 1306.18 807.08 1359.77 825.681 1413.23 C 829.493 1424.29 833.19 1435.4 836.77 1446.54 C 839.834 1456.13 839.319 1465.55 850.222 1467.79 C 849.645 1459.67 840.104 1433.05 837 1423.84 L 807.884 1338.8 C 793.161 1295.91 778.861 1252.9 764.342 1209.95 C 762.334 1204.01 759.921 1199.49 753.773 1197.08 z M 859.213 1129.16 C 865.503 1127.95 869.938 1127.39 876.307 1126.74 C 853.2 1120.72 813.688 1109.43 790.386 1110.15 L 787.472 1112.78 C 789.519 1123.88 831.243 1133.63 842.104 1138.7 C 848.683 1134.48 852.097 1132.21 859.213 1129.16 z M 443.735 1247.72 C 442.378 1241.8 437.404 1227.63 431.551 1225.54 C 432.557 1231.36 437.358 1246.46 443.735 1247.72 z M 455.373 1237.51 C 455.864 1231.7 455.451 1229.66 452.102 1224.85 L 449.402 1223.35 C 448.913 1228.74 449.802 1235.02 455.373 1237.51 z"/>
<path transform="translate(0,0)" fill="rgb(0,0,0)" d="M 1123.96 1035.71 C 1111.47 1043.4 1101.56 1045.51 1087.5 1040.12 C 1081.98 1038.01 1077.92 1036.67 1078.65 1029.66 C 1085.39 1024.42 1096.2 1037.3 1109.79 1032 C 1126.83 1025.35 1124.26 1015.63 1130.57 1003.7 C 1133.84 1001.61 1135.58 1000.35 1138.77 1002.68 C 1141.19 1013.09 1132.27 1027.25 1125.74 1034.74 L 1123.96 1035.71 z"/>
<path transform="translate(0,0)" fill="rgb(0,0,0)" d="M 1077.18 952.136 C 1078.59 952.563 1079.76 953.1 1081.12 953.661 C 1091.77 967.725 1068.06 988.91 1076.11 996.383 C 1081.91 997.041 1087.29 996.855 1089.26 1002.8 C 1087.24 1005.75 1088.52 1004.62 1085.21 1006.22 C 1049.65 1006.67 1064.28 988.868 1072.84 969.857 C 1074.16 966.92 1076 956.226 1077.18 952.136 z"/>
<path transform="translate(0,0)" fill="rgb(0,0,0)" d="M 1112.41 965.689 C 1110.57 929.097 1136.17 954.81 1124.03 973.467 C 1119.35 976.009 1116.32 974.741 1112.66 970.778 C 1113.04 968.411 1112.74 968.176 1112.41 965.689 z"/>
<path transform="translate(0,0)" fill="rgb(0,0,0)" d="M 1041.94 950.767 C 1056.52 951.163 1055.91 968.651 1048.79 977.196 C 1042.46 976.445 1039.67 973.257 1038.54 967.138 C 1037.46 961.445 1038.69 955.56 1041.94 950.767 z"/>
<path transform="translate(0,0)" fill="rgb(0,0,0)" d="M 1429.24 750.681 C 1418.29 739.252 1406.89 724.748 1403.85 708.842 C 1381.6 592.538 1535.75 544.287 1618.07 594.844 L 1621.43 596.417 C 1668.18 628.625 1681.82 671.246 1660.43 723.717 L 1658.36 727.069 C 1637.76 758.969 1611.15 774.66 1574 782.631 L 1573.17 782.805 C 1550.34 786.22 1538.51 786.783 1514.99 785.101 L 1513.3 785.113 C 1510.12 784.423 1506.06 783.926 1502.77 783.424 C 1490.42 781.25 1481.64 779.304 1470.26 774.143 C 1468.59 775.221 1466.9 776.277 1465.2 777.311 C 1455.08 783.452 1443.87 788.747 1433.38 794.321 C 1428 797.183 1417.38 803.613 1413.39 796.668 C 1413.18 789.403 1425.83 760.411 1429.24 750.681 z M 1439.72 747.279 C 1435.92 763.102 1432.77 771.922 1426.27 786.875 C 1439.45 779.559 1456.12 770.345 1469.91 764.456 C 1487.62 769.96 1497.68 773.624 1516.23 775.292 C 1555.24 779.058 1595.97 772.435 1627.04 747.041 C 1665.6 715.536 1671.85 663.311 1638.36 625.577 C 1612.93 596.926 1564.84 582.08 1527.35 586.41 C 1498.16 588.969 1472.72 596.799 1449.8 615.341 C 1403.9 652.489 1397.31 705.582 1439.72 747.279 z"/>
<path transform="translate(0,0)" fill="rgb(0,0,0)" d="M 1526.11 630.64 C 1535.36 631.607 1538.95 646.171 1542.77 654.278 C 1549.44 653.629 1561.27 651.388 1566.19 656.541 C 1566.21 662.375 1555.49 670.919 1550.85 676.216 C 1553.45 684.202 1556.84 691.333 1555.43 699.403 C 1549.88 705.758 1537.46 695.522 1531.53 691.728 C 1523.98 692.163 1514.37 704.625 1506.81 704.83 L 1505.43 703.511 C 1503.71 695.724 1507.34 686.017 1509.56 678.283 C 1503.45 674.992 1494.85 670.823 1490.66 665.383 C 1489.63 656.208 1511.57 659.393 1515.09 655.67 C 1520.72 649.719 1520.3 638.519 1526.11 630.64 z"/>
<path transform="translate(0,0)" fill="rgb(0,0,0)" d="M 1588.82 685.356 C 1591.46 685.881 1591.41 685.997 1593.77 687.362 C 1598.24 694.807 1593.38 703.969 1589.57 710.722 C 1566.01 752.396 1502.98 755.92 1476.38 715.339 C 1475.98 714.602 1475.58 713.859 1475.19 713.111 C 1473.1 708.99 1472.93 707.936 1474.37 703.547 L 1475.97 702.751 C 1481.01 704.917 1486.87 719.586 1503.76 727.884 C 1518.33 735.003 1535.18 735.861 1550.41 730.26 C 1576.67 720.654 1579.04 706.282 1588.41 686.236 L 1588.82 685.356 z"/>
<path transform="translate(0,0)" fill="rgb(0,0,0)" d="M 1569.06 1096.24 C 1589.25 1094.93 1654.46 1111.67 1676.59 1117.53 C 1694.79 1122.36 1683.07 1162.82 1680.25 1177.3 L 1668.23 1238.54 C 1662.55 1267.19 1658.47 1296.15 1651.79 1324.62 C 1648.14 1340.14 1647.27 1346.23 1631.16 1351.09 C 1605.44 1351.63 1554.19 1336.57 1527.43 1331.71 C 1501.96 1327.08 1516.45 1282.66 1520.15 1264.43 C 1526.17 1235.47 1532.42 1206.57 1538.9 1177.72 C 1543.7 1155.41 1547.37 1128.45 1554.9 1107.05 C 1556.91 1101.31 1563.57 1098.16 1569.06 1096.24 z M 1526.17 1290.78 C 1539.65 1291.29 1565.66 1296.78 1579.5 1299.44 C 1599.97 1303.38 1622.53 1307.34 1642.66 1312.24 C 1652.45 1259.39 1662.01 1204.95 1673.7 1152.51 C 1662.91 1151.45 1650.41 1148.92 1639.72 1146.54 C 1613.29 1140.64 1585.92 1136.52 1559.58 1130.62 C 1549.03 1184.13 1537.89 1237.52 1526.17 1290.78 z M 1582.88 1330.62 C 1586.68 1329.7 1589.66 1326.77 1590.64 1322.98 C 1591.62 1319.2 1590.43 1315.19 1587.56 1312.54 C 1584.68 1309.9 1580.58 1309.05 1576.89 1310.35 C 1571.57 1312.22 1568.65 1317.93 1570.25 1323.33 C 1571.84 1328.74 1577.4 1331.95 1582.88 1330.62 z M 1638.46 1131.78 C 1638.6 1130.08 1639.17 1128.35 1638.14 1127.78 C 1629.89 1123.16 1607.81 1120.36 1598.81 1118.86 L 1598.37 1121.95 C 1601.7 1126.28 1631.24 1130.65 1638.46 1131.78 z"/>
<path transform="translate(0,0)" fill="rgb(0,0,0)" d="M 1563.27 1170.79 C 1570.95 1170.96 1600.18 1174.07 1603.04 1181.2 C 1605.83 1188.13 1598.9 1210.51 1595.95 1217.62 C 1589.63 1218.71 1562.05 1212.82 1554.95 1210.86 C 1556.34 1200.68 1560.18 1180.32 1563.27 1170.79 z"/>
<path transform="translate(0,0)" fill="url(#Gradient2)" d="M 1562.27 1236.02 C 1564.56 1236.53 1566.79 1238.12 1569.04 1238.59 C 1578.81 1240.63 1589.63 1239.67 1592.63 1251.63 C 1596.25 1266.07 1594.68 1276.19 1587.97 1289.2 C 1585.72 1290.83 1585.85 1290.67 1583.04 1290.71 C 1573.59 1286.76 1553.8 1254.4 1556.4 1243.06 C 1557.39 1238.72 1559.12 1238.41 1562.27 1236.02 z"/>
<path transform="translate(0,0)" fill="rgb(0,0,0)" d="M 1615.9 1180.89 C 1624.73 1182.28 1645.91 1184.22 1651.85 1188.8 C 1652.96 1191.86 1652.63 1190.84 1650.89 1194.83 C 1641.9 1193.87 1622.89 1191.66 1615.83 1187.04 C 1614.47 1183.35 1614.74 1185.31 1615.9 1180.89 z"/>
<path transform="translate(0,0)" fill="rgb(0,0,0)" d="M 1611.82 1195.72 C 1620.56 1195.43 1638.64 1198.51 1647.67 1201.68 C 1650.45 1202.65 1650.43 1204.66 1651.15 1207.16 C 1644.29 1209.59 1622.67 1205.33 1615.6 1202.23 C 1612.68 1200.96 1612.58 1198.47 1611.82 1195.72 z"/>
<path transform="translate(0,0)" fill="rgb(0,0,0)" d="M 1611.6 1209.92 C 1617.5 1210.61 1625.9 1210.77 1630.23 1214.39 C 1631.05 1218.14 1631.06 1216.23 1629.5 1220.28 C 1623.02 1219.07 1615.8 1219.36 1610.85 1215.39 C 1609.91 1211.95 1609.92 1213.73 1611.6 1209.92 z"/>
<path transform="translate(0,0)" fill="rgb(253,253,253)" fill-opacity="0.454902" d="M 1575.93 1314.94 C 1582.2 1317.57 1584.61 1317.34 1586.38 1323.9 C 1581.35 1324.05 1578.95 1324.52 1575.11 1321.56 C 1574.3 1318.16 1574.62 1318.11 1575.93 1314.94 z"/>
<path transform="translate(0,0)" fill="rgb(0,0,0)" d="M 764.477 667.086 C 786.682 625.683 824.722 595.05 869.908 582.185 C 919.766 567.724 968.554 579.26 1013.4 603.094 C 1050.09 621.64 1080.63 650.419 1101.32 685.952 C 1102.86 681.647 1103.37 678.946 1106.64 675.739 L 1108.45 675.717 C 1111.7 681.16 1109.87 697.31 1106.03 702.301 C 1101.06 703.771 1085.94 694.882 1083.25 690.2 L 1083.7 688.342 C 1086.98 686.783 1087.85 686.542 1091.39 685.51 C 1090.88 678.6 1070.69 656.677 1065.52 651.426 C 1025.45 610.702 961.955 579.604 903.921 583.655 C 848.382 587.533 796.673 624.066 770.145 672.302 C 775.215 678.117 777.733 681.342 781.863 687.945 C 822.804 673.872 877.055 696.042 890.369 737.794 C 912.32 806.63 837.61 887.974 926.427 932.5 C 929.546 934.187 935.916 937.039 939.264 936.529 C 940.873 931.439 938.695 930.465 940.53 926.946 C 943.289 926.936 945.3 927.424 947.262 929.856 C 952.572 936.435 966.202 945.93 953.217 953.116 C 948.196 955.895 942.416 957.027 936.713 955.737 L 935.502 953.872 C 937.039 949.367 938.605 948.769 942.769 946.756 C 922.36 939.777 907.713 934.352 892.885 917.761 C 853.607 873.813 885.81 818.139 887.134 767.866 C 888.57 713.334 835.231 681.166 785.079 694.568 C 792.946 715.653 797.966 761.74 761.849 749.224 C 754.653 742.367 753.509 739.769 749.608 730.53 C 745.219 741.297 743.78 745.656 742.538 757.17 C 741.677 764.327 742.322 779.761 740.653 784.661 L 738.569 784.983 C 732.509 779.163 735.764 738.852 740.436 731.344 C 752.115 712.575 750.954 693.969 759.967 674.793 C 702.41 627.771 593.376 679.27 601.52 749.002 C 601.713 750.721 601.974 752.431 602.302 754.13 C 619.203 753.697 639.818 755.268 652.896 767.734 C 668.233 782.353 653.322 801.809 634.608 798.843 C 613.588 795.773 604.084 780.575 596.185 762.974 C 536.463 774.494 501.307 837.423 514.421 894.872 C 517.067 906.464 520.615 918.014 524.362 929.294 C 527.284 938.011 541.326 957.163 540.374 965.239 C 531.754 969.945 517.91 932.653 515.75 926.795 C 502.916 891.992 499.77 851.222 516.014 816.991 C 528.611 789.986 551.555 769.193 579.667 759.308 C 584.532 757.589 589.966 756.205 595.016 755.066 C 583.493 668.626 701.471 619.525 764.477 667.086 z M 647.953 789.037 C 665.051 770.153 619.308 760.67 606.364 761.324 L 605.002 762.959 C 608.333 779.708 630.215 795.753 647.953 789.037 z M 760.409 736.273 C 764.69 741.236 765.89 742.798 772.244 743.896 C 783.122 739.564 783.619 729.665 784.006 719.043 C 781.767 709.585 781.341 706.918 777.697 697.791 C 774.629 699.16 772.468 700.701 769.677 702.522 C 758.446 712.092 752.806 721.555 760.409 736.273 z M 764.701 697.046 C 768.015 695.086 770.783 694.04 772.441 690.701 C 772.568 685.532 769.995 683.997 766.371 680.518 C 764.349 685.287 760.435 693.418 761.369 698.335 L 762.847 698.554 L 764.701 697.046 z"/>
<path transform="translate(0,0)" fill="rgb(0,0,0)" d="M 659.8 897.491 C 651.972 890.173 655.213 872.111 654.98 861.641 C 654.751 851.317 653.008 835.138 656.213 825.727 C 662.173 819.697 697.105 820.81 706.946 820.461 C 738.416 819.119 769.906 818.305 801.403 818.021 C 804.774 818.012 818.761 818.299 820.323 820.729 C 825.603 828.94 826.442 890.787 819.408 892.747 C 793.869 899.864 754.764 892.946 729.134 897.849 C 707.089 897.641 681.006 900.501 659.8 897.491 z M 663.91 831.02 C 662.067 844.54 662.886 874.841 664.014 888.857 C 670.98 888.987 678.276 889.233 685.213 889.087 C 728.772 889.108 771.322 886.314 814.475 885.946 C 815.129 871.316 815.705 841.928 813.849 827.996 C 808.051 827.952 799.507 828.12 793.947 827.538 L 663.91 831.02 z"/>
<path transform="translate(0,0)" fill="rgb(0,0,0)" d="M 687.008 836.339 C 689.855 837.465 698.686 846.336 697.342 849.925 L 693.455 849.941 L 692.046 851.388 C 692.204 860.266 695.14 859.38 699.454 866.111 C 699.354 869.984 689.5 881.822 686.865 883.56 C 683.446 874.723 678.665 876.053 676.523 869.932 L 677.134 868.789 C 680.105 868.703 682.077 869.018 684.442 867.318 C 685.434 863.691 685.444 865.466 684.31 861.802 C 670.155 849.021 682.886 849.443 687.008 836.339 z"/>
<path transform="translate(0,0)" fill="rgb(0,0,0)" d="M 757.589 841.485 C 760.901 841.447 763.733 840.898 766.227 842.776 C 767.257 846.16 767.278 844.546 766.406 847.786 C 760.197 850.219 732.515 849.819 723.886 849.895 C 719.835 849.582 714.692 850.056 712.44 847.779 C 712.427 846.03 712.479 846.724 713.578 844.831 C 720.775 840.157 746.687 841.84 757.589 841.485 z"/>
<path transform="translate(0,0)" fill="rgb(0,0,0)" d="M 727.607 855.447 C 734.836 853.772 759.861 853.385 764.864 859.262 L 763.455 861.456 C 759.586 863.108 756.461 862.881 752.249 863.051 C 742.802 863.009 721.485 866.052 714.362 861.929 C 712.846 859.151 713.048 860.611 713.994 857.377 C 717.512 855.666 723.48 855.712 727.607 855.447 z"/>
<path transform="translate(0,0)" fill="rgb(0,0,0)" d="M 789.91 843.531 C 794.596 845.416 804.091 854.59 802.722 860.497 C 799.699 861.178 798.987 859.957 795.39 858.183 C 792.302 861.373 799.502 872.322 790.21 879.704 C 786.769 875.229 787.351 863.312 787.17 857.041 C 784.306 860.375 783.001 862.769 778.52 861.991 C 777.831 854.278 784.896 848.343 789.91 843.531 z"/>
<path transform="translate(0,0)" fill="rgb(0,0,0)" d="M 716.56 870.26 C 722.552 870.009 729.499 868.858 734.051 872.422 C 733.89 875.625 734.289 874.048 731.711 876.974 C 728.899 877.148 726.083 877.238 723.266 877.242 C 718.767 877.221 715.984 877.222 713.076 874.251 L 713.215 872.798 C 714.576 871.168 714.633 871.431 716.56 870.26 z"/>
<path transform="translate(0,0)" fill="rgb(0,0,0)" d="M 758.163 869.371 C 762.33 869.563 766.387 869.158 768.379 873.281 C 766.899 876.111 767.682 874.832 764.466 876.859 C 759.961 877.051 754.093 877.846 753.37 872.104 C 755.664 869.753 754.739 870.587 758.163 869.371 z"/>
<path transform="translate(0,0)" fill="rgb(0,0,0)" d="M 654.611 927.171 C 655.008 923.449 654.722 923.191 657.242 920.34 C 659.415 919.21 661.138 918.613 663.587 918.351 C 678.572 916.742 812.187 913.007 820.147 916.936 C 822.536 918.115 823.28 922.082 823.711 924.497 C 826.518 940.235 824.292 958.375 824.066 974.387 L 823.015 987.478 C 822.298 988.173 820.372 989.977 819.246 990.062 C 771.656 993.549 723.284 994.201 675.515 994.933 C 664.703 995.099 658.316 996.03 655.535 984.861 L 654.611 927.171 z M 690.683 934.034 C 693.649 938.819 697.979 942.165 699.258 945.345 C 697.319 947.445 695.825 947.035 693.047 947.018 L 691.817 949.045 C 692.48 953.41 698.558 957.387 699.499 960.955 C 701.392 968.133 692.996 970.543 689.934 978.48 L 687.991 979.035 C 683.973 976.449 685.46 973.483 684.35 972.721 C 678.533 968.723 679.996 972.677 676.6 966.216 L 677.155 964.923 C 680.037 964.807 681.493 964.689 684.433 964.273 C 688.051 959.071 682.053 954.186 678.329 951.33 C 678.077 945.515 684.214 939.637 688.246 934.316 L 690.683 934.034 z M 736.051 984.366 C 755.28 983.67 774.514 983.101 793.75 982.66 L 809.584 981.974 C 811.709 982.07 811.83 981.935 813.964 981.607 C 816.344 976.942 814.956 932.601 814.513 924.932 L 804.126 924.342 C 785.333 923.765 755.771 925.016 736.474 926.083 C 717.485 925.765 700.392 926.234 681.411 927.039 L 664.127 927.455 C 662.007 943.742 663.55 967.715 664.195 984.845 C 678.942 985.826 720.943 985.617 736.051 984.366 z M 713.556 952.762 C 725.423 951.432 754.58 948.412 764.359 954.203 L 764.143 955.528 C 754.816 960.847 746.629 958.781 736.742 959.736 C 736.364 959.649 733.68 959.74 733.203 959.748 L 714.918 960.046 C 714.005 957.978 713.869 955.13 713.556 952.762 z M 768.259 940.981 C 766.175 944.234 767.083 944.064 763.113 944.897 C 752.488 947.127 732.616 944.704 723.314 946.314 C 719.078 945.879 715.872 946.168 713.452 942.423 L 714.873 940.632 C 726.652 936.284 749.387 937.581 762.521 937.47 C 765.752 937.443 766.706 939 768.259 940.981 z M 734.712 967.177 C 734.776 969.749 734.857 968.787 733.908 971.3 C 728.368 976.076 719.282 974.494 714.316 969.589 L 714.478 968.09 C 719.41 965.905 723.397 966.023 728.797 965.602 L 734.712 967.177 z M 790.285 939.848 C 795.337 942.661 800.491 948.48 803.043 953.627 L 803.028 956.591 L 801.863 957.362 C 799.731 956.402 797.609 955.418 795.498 954.413 C 793.439 959.782 797.659 968.059 792.799 973.75 L 790.524 974.317 C 785.512 970.017 790.106 960.722 787.03 955.412 C 783.776 955.688 783.633 956.313 780.639 958.17 L 779.193 957.67 C 778.146 954.556 778.19 955.695 778.332 952.581 C 782.515 947.747 785.725 944.328 790.285 939.848 z"/>
<path transform="translate(0,0)" fill="rgb(0,0,0)" d="M 754.144 966.084 C 758.835 965.683 762.525 964.868 766.842 966.485 C 769.301 969.499 768.545 967.747 768.549 972.16 C 763.938 972.742 759.487 973.953 755.475 972.137 C 753.235 968.96 754.005 970.79 754.144 966.084 z"/>
<path transform="translate(0,0)" fill="rgb(0,0,0)" d="M 699.258 945.345 C 697.319 947.445 695.825 947.035 693.047 947.018 L 691.817 949.045 C 692.48 953.41 698.558 957.387 699.499 960.955 C 701.392 968.133 692.996 970.543 689.934 978.48 L 687.991 979.035 C 683.973 976.449 685.46 973.483 684.35 972.721 C 678.533 968.723 679.996 972.677 676.6 966.216 L 677.155 964.923 C 680.037 964.807 681.493 964.689 684.433 964.273 C 688.051 959.071 682.053 954.186 678.329 951.33 C 678.077 945.515 684.214 939.637 688.246 934.316 L 690.683 934.034 C 693.649 938.819 697.979 942.165 699.258 945.345 z"/>
<path transform="translate(0,0)" fill="rgb(0,0,0)" d="M 723.314 946.314 C 719.078 945.879 715.872 946.168 713.452 942.423 L 714.873 940.632 C 726.652 936.284 749.387 937.581 762.521 937.47 C 765.752 937.443 766.706 939 768.259 940.981 C 766.175 944.234 767.083 944.064 763.113 944.897 C 752.488 947.127 732.616 944.704 723.314 946.314 z"/>
<path transform="translate(0,0)" fill="rgb(0,0,0)" d="M 713.556 952.762 C 725.423 951.432 754.58 948.412 764.359 954.203 L 764.143 955.528 C 754.816 960.847 746.629 958.781 736.742 959.736 C 736.364 959.649 733.68 959.74 733.203 959.748 L 714.918 960.046 C 714.005 957.978 713.869 955.13 713.556 952.762 z"/>
<path transform="translate(0,0)" fill="rgb(0,0,0)" d="M 790.285 939.848 C 795.337 942.661 800.491 948.48 803.043 953.627 L 803.028 956.591 L 801.863 957.362 C 799.731 956.402 797.609 955.418 795.498 954.413 C 793.439 959.782 797.659 968.059 792.799 973.75 L 790.524 974.317 C 785.512 970.017 790.106 960.722 787.03 955.412 C 783.776 955.688 783.633 956.313 780.639 958.17 L 779.193 957.67 C 778.146 954.556 778.19 955.695 778.332 952.581 C 782.515 947.747 785.725 944.328 790.285 939.848 z"/>
<path transform="translate(0,0)" fill="rgb(0,0,0)" d="M 728.797 965.602 L 734.712 967.177 C 734.776 969.749 734.857 968.787 733.908 971.3 C 728.368 976.076 719.282 974.494 714.316 969.589 L 714.478 968.09 C 719.41 965.905 723.397 966.023 728.797 965.602 z"/>
<path transform="translate(0,0)" fill="rgb(66,61,74)" fill-opacity="0.101961" d="M 716.032 979.589 C 719.595 978.893 724.885 977.968 728.215 979.663 L 729.163 980.917 C 726.434 981.111 717.639 981.325 716.032 979.589 z"/>
<path transform="translate(0,0)" fill="rgb(0,0,0)" d="M 805.403 1010.68 C 824.756 1011.27 823.202 1013.6 824.437 1031.99 C 824.857 1042.5 824.788 1074 822.749 1083.88 C 812.316 1090.38 785.057 1085.94 775.267 1088.82 C 739.786 1086.03 696.489 1094.89 660.9 1088.75 C 652.675 1087.33 653.673 1024.51 656.601 1017.51 C 662.747 1012.48 700.809 1013.13 711.267 1012.84 C 742.638 1011.8 774.018 1011.08 805.403 1010.68 z M 779.147 1047.93 C 782.742 1043.7 786.279 1039.93 790.076 1035.89 C 795.125 1038.49 800.762 1044.7 803.432 1049.66 L 803.531 1052.47 L 802.271 1053.53 C 799.583 1052.28 798.064 1051.45 795.545 1049.99 C 793.339 1054.97 797.694 1063.72 792.838 1069.81 L 790.272 1070.54 C 785.878 1065.62 789.406 1054.15 786.692 1050.54 C 783.563 1053.21 784.014 1053.75 780.718 1054.05 C 778.369 1051.48 779.103 1052.92 778.347 1049.6 L 779.147 1047.93 z M 718.845 1033.49 C 723.146 1034.17 723.64 1034.19 727.954 1033.82 C 738.076 1033.88 754.896 1034.27 764.254 1032.39 C 766.025 1034.01 767.496 1035.22 769.051 1037.06 C 768.594 1037.68 767.061 1039.78 766.341 1039.88 C 758.132 1041 716.341 1045.32 713.765 1037.39 C 715.793 1034.38 715.181 1035.31 718.845 1033.49 z M 673.8 1023.12 C 670.144 1023.14 667.298 1022.64 664.421 1024.66 C 661.817 1033.05 663.922 1069.5 664.367 1080.71 C 681.507 1082.05 706.794 1081.14 724.341 1080.62 C 754.501 1079.55 784.668 1078.67 814.84 1077.98 C 815.473 1060.61 815.474 1037.87 814.585 1020.8 C 802.9 1019.65 790.099 1020.18 778.366 1020.9 C 755.45 1020.95 732.832 1021.91 709.974 1021.95 C 698.145 1022.29 685.529 1022.99 673.8 1023.12 z M 690.325 1029.69 L 691.219 1031.33 C 693.645 1033.84 695.906 1036.19 698.228 1038.79 L 698.002 1040.45 C 693.672 1042.81 693.768 1041.85 692.048 1045.44 C 694.112 1054.24 705.456 1051.85 696.903 1064.81 C 695.099 1067.54 691.702 1073.18 688.521 1074.01 C 684.895 1072.06 686.438 1071.2 684.628 1068.03 C 684.577 1067.94 678.218 1065.72 677.299 1065.12 L 677.276 1062.79 C 681.042 1060.69 683.798 1059.94 685.828 1056.65 C 684.061 1047.54 673.49 1050.42 680.603 1038.39 C 685.754 1036.12 684.968 1033.73 688.597 1029.22 L 690.325 1029.69 z"/>
<path transform="translate(0,0)" fill="rgb(0,0,0)" d="M 726.752 1047.45 C 733.851 1045.45 759.407 1046.12 765.05 1050.59 L 764.197 1053.47 C 760.448 1055.03 758.447 1054.85 754.305 1055.09 C 744.642 1054.9 719.926 1058.55 713.944 1052.36 L 714.122 1049.61 C 717.429 1047.51 722.637 1047.71 726.752 1047.45 z"/>
<path transform="translate(0,0)" fill="rgb(0,0,0)" d="M 716.477 1062.33 C 721.47 1061.94 730.776 1060.55 734.472 1064.27 C 734.529 1067.38 734.793 1065.81 732.258 1068.93 C 726.2 1069.06 718.224 1070.19 713.952 1066.33 C 714.337 1063.42 713.863 1064.84 716.477 1062.33 z"/>
<path transform="translate(0,0)" fill="rgb(0,0,0)" d="M 756.926 1060.96 C 761.195 1061.25 765.459 1061.3 768.652 1064.26 C 768.19 1067.24 768.791 1065.83 765.826 1068.15 C 761 1068.77 757.436 1069.91 753.821 1066.28 C 754.7 1062.42 753.903 1064.23 756.926 1060.96 z"/>
<path transform="translate(0,0)" fill="rgb(0,0,0)" d="M 680.603 1038.39 C 685.754 1036.12 684.968 1033.73 688.597 1029.22 L 690.325 1029.69 L 691.219 1031.33 C 693.645 1033.84 695.906 1036.19 698.228 1038.79 L 698.002 1040.45 C 693.672 1042.81 693.768 1041.85 692.048 1045.44 C 694.112 1054.24 705.456 1051.85 696.903 1064.81 C 695.099 1067.54 691.702 1073.18 688.521 1074.01 C 684.895 1072.06 686.438 1071.2 684.628 1068.03 C 684.577 1067.94 678.218 1065.72 677.299 1065.12 L 677.276 1062.79 C 681.042 1060.69 683.798 1059.94 685.828 1056.65 C 684.061 1047.54 673.49 1050.42 680.603 1038.39 z"/>
<path transform="translate(0,0)" fill="rgb(0,0,0)" d="M 764.254 1032.39 C 766.025 1034.01 767.496 1035.22 769.051 1037.06 C 768.594 1037.68 767.061 1039.78 766.341 1039.88 C 758.132 1041 716.341 1045.32 713.765 1037.39 C 715.793 1034.38 715.181 1035.31 718.845 1033.49 C 723.146 1034.17 723.64 1034.19 727.954 1033.82 C 738.076 1033.88 754.896 1034.27 764.254 1032.39 z"/>
<path transform="translate(0,0)" fill="rgb(0,0,0)" d="M 790.076 1035.89 C 795.125 1038.49 800.762 1044.7 803.432 1049.66 L 803.531 1052.47 L 802.271 1053.53 C 799.583 1052.28 798.064 1051.45 795.545 1049.99 C 793.339 1054.97 797.694 1063.72 792.838 1069.81 L 790.272 1070.54 C 785.878 1065.62 789.406 1054.15 786.692 1050.54 C 783.563 1053.21 784.014 1053.75 780.718 1054.05 C 778.369 1051.48 779.103 1052.92 778.347 1049.6 L 779.147 1047.93 C 782.742 1043.7 786.279 1039.93 790.076 1035.89 z"/>
<path transform="translate(0,0)" fill="rgb(0,0,0)" d="M 554.531 1041.44 C 594.596 1040.96 614.287 1076.18 598.21 1111.67 C 606.561 1118.42 624.314 1134.4 630.01 1143.93 C 631.508 1146.44 629.893 1150.23 628.883 1152.91 C 621.096 1159.85 608.992 1144.75 603.307 1139.07 C 598.341 1134.23 592.934 1128.23 588.111 1123.12 C 582.182 1127.2 576.284 1130.32 569.286 1132.1 C 557.032 1135.22 544.028 1133.09 533.411 1126.22 C 522.792 1119.38 515.523 1108.4 513.372 1095.96 C 508.343 1067.52 526.44 1045.11 554.531 1041.44 z M 565.439 1120.48 C 583.387 1116.55 594.837 1098.91 591.125 1080.92 C 587.413 1062.92 569.92 1051.26 551.882 1054.75 C 540.017 1057.05 530.305 1065.55 526.455 1077.01 C 522.606 1088.46 525.213 1101.1 533.282 1110.1 C 541.351 1119.1 553.634 1123.06 565.439 1120.48 z"/>
<path transform="translate(0,0)" fill="rgb(0,0,0)" d="M 1379 814.513 C 1384.36 813.215 1390 814.917 1393.74 818.962 C 1397.49 823.008 1398.75 828.763 1397.05 834.006 C 1395.34 839.249 1390.93 843.159 1385.52 844.225 C 1377.41 845.825 1369.5 840.644 1367.72 832.562 C 1365.95 824.481 1370.96 816.462 1379 814.513 z M 1385.63 835.242 C 1388.9 833.564 1390.2 829.557 1388.54 826.276 C 1386.88 822.995 1382.88 821.673 1379.59 823.317 C 1376.28 824.972 1374.95 829.008 1376.62 832.313 C 1378.29 835.619 1382.33 836.932 1385.63 835.242 z"/>
<path transform="translate(0,0)" fill="rgb(0,0,0)" d="M 1438.87 1091.08 C 1443.39 1092.57 1444.38 1092.63 1445.28 1097.46 C 1442.86 1104.77 1430.85 1112.43 1424.25 1116.47 C 1408.87 1107.41 1430.43 1095.19 1438.87 1091.08 z"/>
<path transform="translate(0,0)" fill="url(#Gradient1)" d="M 681.52 999.475 C 686.4 997.954 697.305 997.831 701.855 1000.79 C 703.641 1004.34 703.228 1002.48 702.923 1006.61 C 700.028 1006.76 699.143 1006.79 696.222 1007.38 C 705.889 1007.8 722.499 1008.74 731.675 1008.24 L 732.489 1008.18 L 733.018 1008.88 L 730.255 1008.33 C 724.266 1009.45 672.955 1010.44 669.246 1008.38 C 671.631 1006.76 670.332 1007.26 673.361 1007.38 C 672.953 1004.27 672.543 1003.28 673.843 1000.42 C 676.694 999.482 678.558 999.587 681.52 999.475 z"/>
<path transform="translate(0,0)" fill="rgb(0,0,0)" d="M 1419.27 1070.6 C 1423.84 1071.08 1425.13 1070.92 1426.72 1075.39 C 1425.45 1082.91 1416.55 1091.28 1410.63 1095.68 C 1407.64 1095.55 1407.73 1095.46 1404.9 1094.34 C 1399.39 1086.64 1413.73 1075.91 1419.27 1070.6 z"/>
<path transform="translate(0,0)" fill="rgb(0,0,0)" d="M 355.379 1355.5 C 360.69 1356.79 372.846 1365.39 375.919 1370.26 C 377.49 1372.75 376.044 1374.69 375.009 1377.49 C 367.272 1376.01 358.163 1368.83 354.424 1361.86 C 353.268 1359.7 354.597 1357.52 355.379 1355.5 z"/>
<path transform="translate(0,0)" fill="rgb(0,0,0)" d="M 1514.6 982.46 C 1517.49 982.542 1517.36 982.396 1519.87 983.762 C 1522.66 990.523 1512.66 1002.33 1508.9 1007.74 C 1505.46 1008.22 1505.03 1008.29 1503.1 1005.97 C 1502.52 1000.33 1511.24 987.933 1514.6 982.46 z"/>
<path transform="translate(0,0)" fill="rgb(0,0,0)" d="M 1539.58 995.495 C 1551.91 998.546 1537.04 1012.8 1532.55 1018.46 L 1529 1017.8 C 1523.69 1011.68 1535.18 1000.66 1539.58 995.495 z"/>
<path transform="translate(0,0)" fill="rgb(0,0,0)" d="M 376.498 1040.52 C 384.992 1042.6 394.516 1053.53 394.232 1062.5 C 383.627 1061.58 374.651 1051.14 376.498 1040.52 z"/>
<path transform="translate(0,0)" fill="rgb(0,0,0)" d="M 344.594 1378.53 C 349.984 1379.44 361.072 1383.69 365.218 1387.8 C 367.629 1390.19 366.798 1391.76 366.538 1395.11 C 360.121 1395.41 350.034 1390.23 345.493 1385.7 C 343.485 1383.7 344.339 1381.08 344.594 1378.53 z"/>
<path transform="translate(0,0)" fill="rgb(0,0,0)" d="M 365.118 1061.53 C 373.33 1062.69 382.896 1071.48 380.153 1080.87 C 372.379 1078.56 361.958 1070.76 365.118 1061.53 z"/>
<path transform="translate(0,0)" fill="rgb(0,0,0)" d="M 1559.41 1397.02 C 1562.19 1397.62 1563.55 1398.35 1564.42 1400.82 C 1562.05 1405.5 1552.19 1407.83 1547.25 1409.37 L 1545.41 1409.52 L 1543.51 1407.78 C 1542.24 1399.9 1553.06 1398.85 1559.41 1397.02 z"/>
<path transform="translate(0,0)" fill="rgb(0,0,0)" d="M 981.119 1090.51 C 990.256 1090.11 996.802 1099.64 996.458 1108.09 C 988.002 1108.2 981.127 1098.18 981.119 1090.51 z"/>
<path transform="translate(0,0)" fill="rgb(0,0,0)" d="M 966.119 1104.69 C 975.062 1104.58 982.507 1111.45 983.226 1120.28 C 973.706 1121.87 968.029 1113 966.119 1104.69 z"/>
<path transform="translate(0,0)" fill="rgb(0,0,0)" d="M 1546.62 1379.87 C 1549.81 1379.53 1550.06 1379.67 1552 1381.49 C 1550.38 1387.61 1545.09 1389.93 1539.67 1393.19 C 1536.69 1392.86 1536.3 1392.47 1534.84 1390.28 C 1536.58 1384.53 1541.38 1382.69 1546.62 1379.87 z"/>
<path transform="translate(0,0)" fill="rgb(0,0,0)" d="M 1179.08 626.367 C 1189.13 627.61 1189.61 636.102 1189.53 644.437 C 1180.75 643.464 1179.39 633.791 1179.08 626.367 z"/>
<path transform="translate(0,0)" fill="rgb(0,0,0)" d="M 1199.48 614.74 C 1207.59 618.279 1208.72 626.832 1205.97 634.492 C 1199.82 631.038 1195.97 621.15 1199.48 614.74 z"/>
<path transform="translate(0,0)" fill="rgb(0,0,0)" d="M 891.305 1363.55 C 894.708 1364.51 894.991 1364.91 895.638 1367.9 C 894.388 1372.56 891.032 1376.1 888.011 1380.02 C 885.397 1379.28 885.43 1379.48 883.663 1377.48 C 883.404 1371.27 887.118 1368.42 891.305 1363.55 z"/>
<path transform="translate(0,0)" fill="rgb(0,0,0)" d="M 876.462 1350.39 C 878.871 1350.76 878.7 1350.73 880.653 1352.2 C 881.746 1357.97 878.33 1361.35 874.934 1366.4 C 870.573 1365.38 871.975 1366.57 869.941 1363.56 C 869.677 1358.38 873.356 1354.41 876.462 1350.39 z"/>
<path transform="translate(0,0)" fill="rgb(137,135,140)" fill-opacity="0.0980392" d="M 686.504 816.613 C 697.017 815.897 704.457 816.232 714.919 817.298 C 713.922 818.162 706.072 817.973 704.035 818.022 C 695.095 818.137 684.059 818.571 675.302 817.94 C 678.213 816.551 683.028 816.762 686.504 816.613 z"/>
<path transform="translate(0,0)" fill="rgb(0,0,0)" fill-opacity="0.317647" d="M 605.237 735.761 L 606.072 736.468 C 607.651 739.342 606.923 741.774 606.56 745.149 L 605.735 744.494 C 604.236 741.638 604.925 739.085 605.237 735.761 z"/>
</svg>