<svg version="1.1" xmlns="http://www.w3.org/2000/svg" style="display: block;" viewBox="0 0 2048 2048" width="1024" height="1024" preserveAspectRatio="none">
<defs>
	<linearGradient id="Gradient1" gradientUnits="userSpaceOnUse" x1="198.172" y1="903.092" x2="202.678" y2="900.259">
		<stop class="stop0" offset="0" stop-opacity="0" stop-color="rgb(255,255,255)"/>
		<stop class="stop1" offset="1" stop-opacity="0.0627451" stop-color="rgb(253,252,254)"/>
	</linearGradient>
	<linearGradient id="Gradient2" gradientUnits="userSpaceOnUse" x1="487.51" y1="1316.12" x2="487.439" y2="1311.81">
		<stop class="stop0" offset="0" stop-opacity="0" stop-color="rgb(255,255,255)"/>
		<stop class="stop1" offset="1" stop-opacity="0.0313725" stop-color="rgb(205,200,207)"/>
	</linearGradient>
</defs>
<path transform="translate(0,0)" fill="rgb(0,0,1)" d="M 1014.6 710.406 C 1030.27 695.905 1044.39 691.426 1065.83 691.66 C 1080.68 691.823 1094.62 698.183 1104.71 708.908 C 1107.95 712.35 1115.94 722.994 1118.6 724.57 C 1142.02 738.453 1159.43 737.912 1157.4 772.411 C 1156.65 784.969 1155.58 794.675 1165.25 804.928 C 1174.54 814.776 1185.05 821.781 1184.44 837.225 L 1182.84 838.676 C 1178.45 836.809 1177.79 825.976 1175.02 822.066 C 1168.53 812.928 1160.76 807.649 1154.74 797.929 C 1161.04 820.023 1179.95 832.532 1179 857.25 C 1178.19 878.452 1167.49 885.527 1148.21 888.612 C 1132.8 912.857 1128.62 903.397 1104.71 904.113 C 1101.01 904.224 1092.28 910.772 1087.34 910.062 C 1081.46 909.768 1080.89 906.147 1074.69 906.796 C 1073.11 909.458 1073.63 918.894 1073.71 922.662 C 1087.52 921.49 1101.74 922.76 1115.49 924 C 1182.31 930.028 1240.69 959.593 1291.6 1002.18 C 1300.34 1009.49 1310.96 1019 1317.97 1027.89 L 1312.99 1035.72 C 1325.47 1049.62 1335.36 1062.43 1345.06 1078.56 C 1348.31 1083.95 1351.69 1091.99 1354.29 1096.17 C 1355.5 1099.64 1357.76 1105.45 1358.4 1108.83 L 1360.98 1118.98 C 1361.26 1124.35 1361.8 1131 1361.59 1136.27 C 1360.95 1139.66 1360.36 1143.13 1359.59 1146.49 C 1358.76 1149.32 1357.9 1152.14 1357 1154.95 L 1355.55 1158.07 L 1350.45 1165.65 C 1332.01 1185.56 1308.61 1197.5 1283.49 1207.03 C 1279.04 1208.72 1267.3 1211.77 1264.01 1214.28 C 1258.97 1218.15 1260.9 1289.56 1253.87 1303.94 C 1251.59 1308.61 1247.78 1311.3 1243.51 1314 C 1219.09 1314.91 1191.64 1314.16 1166.96 1314.11 L 1028.49 1314.03 L 902.795 1314.08 C 883.552 1314.08 857.53 1314.89 838.821 1313.87 C 832.914 1309.83 831.586 1308.28 826.886 1302.96 C 824.112 1287.35 824.363 1268.08 822.041 1255.47 C 822.51 1244.65 820.079 1227.67 820.129 1215.15 C 729.313 1182.59 681.593 1143.54 757.173 1049.52 C 760.668 1045.17 767.77 1039.11 768.314 1033.88 C 767.433 1032.38 765.403 1029.2 765.903 1027.9 C 769.377 1018.83 793.621 999.115 799.791 994.401 C 851.913 954.582 905.993 928.212 972.288 923.554 C 982.466 922.838 999.967 921.6 1009.7 922.853 C 1010.36 913.566 1012.64 903.839 998.874 907.255 C 986.236 910.392 980.002 907.594 969.911 900.955 C 933.928 912.976 940.476 887.347 929 883.99 C 916.659 880.642 909.16 873.015 905.183 861.153 C 895.472 825.624 917.79 816.397 933.878 792.116 C 938.024 785.859 938.751 765.817 941.131 757.505 C 941.921 754.745 947.387 739.614 947.357 738.872 C 935.781 747.665 936.24 784.443 923.324 795.845 C 920.307 798.508 917.054 803.477 912.174 803.843 L 911.43 802.085 C 912.21 798.378 914.707 796.819 917.597 794.157 L 918.558 793.289 C 930.541 780.514 929.068 766.915 934.794 751.245 C 938.328 741.573 941.165 738.043 947.333 730.014 C 951.848 726.693 953.466 723.542 957.243 719.786 C 974.532 702.591 992.854 698.912 1014.6 710.406 z M 735.056 1158.2 C 740.185 1164.51 744.321 1169.52 751.121 1174.2 C 769.283 1188.19 797.818 1199.25 819.285 1209.53 C 817.698 1197.55 815.455 1126.59 810.211 1122.21 C 802.105 1115.44 786.162 1112.78 780.229 1103.78 C 779.357 1102.45 779.668 1102.72 780.065 1101.05 C 789.578 1101.18 805.939 1113.83 812.178 1120.96 C 812.701 1097.24 808.074 1072.71 807.855 1048.73 C 807.732 1035.2 813.123 1021.1 828.928 1020.31 C 845.363 1019.5 862.617 1020.08 879.141 1020.12 L 976.648 1020.17 L 1153.93 1020.02 C 1185.15 1019.99 1216.39 1019.91 1247.59 1020.13 C 1263.79 1019.44 1274.15 1029.85 1274.58 1046.19 C 1275.33 1063.46 1271.96 1081.03 1271.3 1098.21 C 1269.87 1135.24 1264.68 1172.71 1263.47 1209.64 C 1297.01 1192.03 1355.11 1176.93 1355.26 1130.56 C 1355.36 1099.73 1329.15 1061.61 1308.37 1040.8 C 1304.25 1046.13 1284.56 1068.47 1279.02 1070.03 L 1277.73 1069.06 C 1278.83 1061.04 1303.51 1036.21 1310.49 1028.66 C 1271.93 985.783 1185.88 936.815 1128.22 932.214 C 1121.04 930.489 1111.66 929.675 1104.3 928.923 C 1100.65 928.542 1099.56 927.808 1096.65 929.056 C 1087.18 962.452 1063.42 983.897 1026 974.18 C 1004.63 968.628 992.085 949.088 986.206 928.775 C 897.318 934.558 836.273 968.101 771.884 1027.93 C 779.212 1036.35 802.918 1061.56 804.814 1070.16 L 803.825 1071.42 C 798.537 1070.02 779.022 1046.09 774.093 1040.23 C 753.2 1063.51 724.342 1099.48 726.531 1133 C 727.145 1142 730.082 1150.68 735.056 1158.2 z M 1130.05 832.786 C 1115.11 843.418 1123.54 836.229 1112.39 849.317 C 1108.46 841.303 1118.79 827.254 1130.05 832.786 z M 1067.8 909.995 C 1048.93 917.062 1034.4 918.195 1015.48 909.274 C 1015.24 915.252 1015.42 921.583 1013.58 927.166 C 1011.32 928.962 1010.55 928.836 1007.7 929.403 C 1011.68 954.707 1043.87 963.175 1063.82 947.677 C 1068.75 943.2 1073.62 937.799 1075.65 931.32 C 1074.55 928.11 1071.3 926.532 1068.22 924.993 C 1067.21 920.86 1067.82 914.473 1067.8 909.995 z M 1109.9 854.434 C 1127.9 857.785 1139.47 847.576 1134.63 829.241 C 1133.49 825.327 1132.9 824.661 1130.11 822.012 C 1121.89 817.187 1119.91 819.586 1113.73 825.479 L 1111.28 827.789 C 1104.7 832.384 1106.28 835.785 1106.81 843.379 L 1105.59 846.847 C 1105.41 852.332 1103.73 854.644 1101.2 859.288 L 1101.52 860.109 C 1103.61 858.718 1104.58 858.197 1106.37 856.415 L 1109.9 854.434 z M 968.501 720.249 C 977.509 713.991 991.945 711.762 994.829 709.148 C 990.726 708.498 989.977 708.698 985.761 709.158 C 972.476 712.768 964.641 717.635 955.712 728.563 C 960.511 725.721 964.039 723.696 968.501 720.249 z M 967.601 835.898 L 968.586 837.189 C 971.173 841.145 973.122 844.759 976.703 847.791 L 977.924 847.594 C 977.929 846.508 978.034 845.652 977.795 844.637 C 978.318 837.893 980.633 832.524 975.015 828.39 C 971.743 825.869 971.024 825.196 968.259 822.136 C 955.508 813.205 948.581 826.678 949.447 838.568 C 950.439 845.701 952.196 848.343 958.155 852.771 C 959.131 853.49 960.124 854.184 961.134 854.853 C 967.751 855.318 970.449 855.621 977.055 854.803 L 982.095 858.161 L 983.56 857.821 L 983.803 855.979 C 983.223 855.697 982.355 855.308 981.915 854.904 C 972.016 845.791 972.201 853.54 964.704 840.568 C 960.77 835.044 957.823 836.285 955.687 831.699 L 957.896 829.153 C 963.17 831.377 963.662 831.814 967.601 835.898 z M 1096.55 817.738 C 1099.12 820.611 1101.29 823.833 1104.89 824.667 C 1108.37 824.073 1109.12 823.32 1112.03 821.435 L 1113.22 819.138 C 1110.5 817.029 1100.65 817.719 1096.55 817.738 z M 999.135 811.64 C 1010.98 811.814 1015.32 811.622 1024.99 819.163 C 1026.95 822.059 1031.62 830.949 1033.35 830.843 C 1039.71 830.453 1043.7 829.217 1050.36 830.59 L 1051.86 829.767 L 1052.28 828.105 C 1061.18 808.406 1064.93 816.678 1074.34 809.288 L 1073.6 808.431 L 1068.39 809.407 C 1068.6 807.69 1068.84 807.746 1069.86 806.369 C 1066.7 804.408 1063.24 801.86 1059.69 801.103 C 1041.19 789.394 1033.11 776.5 1023.32 757.475 C 1026.81 773.736 1034.92 795.392 1052.56 800.659 C 1054.47 802.857 1055.67 803.713 1055.87 806.582 C 1039.86 803.964 1032.61 791.756 1024.63 779.212 C 1021.72 772.874 1020.58 766.533 1019.58 759.717 L 1013.47 776.865 C 1010.73 781.218 1010.47 782.149 1009.04 787.127 L 1007.88 788.202 C 1005.04 789.521 998.036 798.563 996.663 801.098 C 987.244 809.026 981.233 812.025 970.166 817.876 C 973.633 820.817 977.03 823.76 980.632 826.538 C 985.578 818.041 989.644 815.031 999.135 811.64 z M 928.495 832.85 C 926.782 837.37 926.162 838.349 925.941 843.05 C 927.125 844.241 926.528 844.072 927.395 844.214 C 927.998 841.431 930.226 834.991 928.495 832.85 z M 975.898 741.009 L 983.126 734.431 L 983.12 733.288 L 982.596 732.913 C 978.798 735.405 977.446 735.877 975.139 739.6 L 975.898 741.009 z M 829.17 1270.59 C 829.104 1275.23 828.683 1278.04 830.42 1282.36 L 831.573 1283.33 C 831.459 1280.03 831.682 1274 830.223 1271.39 L 829.17 1270.59 z M 945.124 779.5 C 946.154 775.677 947.413 772.502 946.363 768.675 C 944.777 772.822 944.057 773.883 944.144 778.182 L 945.124 779.5 z M 1017.32 1190.64 C 1014.51 1192.9 1006.97 1198.3 1005.93 1201.12 L 1006.76 1201.56 L 1007.49 1201.21 C 1011.01 1198.1 1014.62 1195.09 1018.32 1192.18 L 1018.23 1190.96 L 1017.32 1190.64 z M 991.129 928.093 C 996.66 944.585 1003.23 957.089 1019.62 965.573 C 1031 971.56 1044.33 972.675 1056.55 968.662 C 1072.79 963.453 1084.93 950.324 1089.97 934.244 L 1090.82 929.915 C 1088.64 927.371 1089.96 928.219 1086.73 927.292 C 1084.7 927.917 1082.53 928.273 1081.67 930.713 C 1073.03 955.04 1048.79 969.833 1024.25 957.502 C 1008.52 949.593 1008.24 942.399 999.839 928.431 C 999.348 927.615 992.583 927.996 991.129 928.093 z"/>
<path transform="translate(0,0)" fill="rgb(0,0,1)" d="M 1297.19 1100.76 L 1300.04 1101.23 L 1300.87 1102.6 C 1299.35 1107.02 1282.68 1116.38 1277.61 1119.73 L 1275.43 1119.48 L 1274.66 1118.09 C 1277.07 1111.66 1290.97 1104.03 1297.19 1100.76 z"/>
<path transform="translate(0,0)" fill="rgb(253,252,253)" d="M 983.803 855.979 C 986.508 857.297 990.062 861.85 993.901 863.23 C 1016.98 871.529 1027.63 858.422 1033.31 837.652 C 1033.88 835.551 1036.6 834.75 1038.54 834.341 C 1049.43 832.045 1049.49 839.71 1053.27 847.316 C 1058.84 860.599 1069.32 869.038 1084.2 864.888 C 1097.39 861.209 1099.33 858.007 1105.59 846.847 C 1105.41 852.332 1103.73 854.644 1101.2 859.288 L 1101.52 860.109 C 1103.61 858.718 1104.58 858.197 1106.37 856.415 C 1090.84 895.548 1056.71 924.506 1012.53 902.224 C 993.052 892.405 983.406 875.21 977.055 854.803 L 982.095 858.161 L 983.56 857.821 L 983.803 855.979 z"/>
<path transform="translate(0,0)" fill="rgb(0,0,1)" d="M 1040.37 836.715 C 1047.27 842.053 1036.98 856.395 1038.31 864.11 C 1040.99 866.513 1042.01 865.819 1046.46 866.361 L 1047.58 867.924 L 1046.68 870.865 C 1033.42 871.99 1031.76 863.696 1034.9 852.447 C 1036.41 847.053 1037.14 841.151 1040.37 836.715 z"/>
<path transform="translate(0,0)" fill="rgb(0,0,1)" d="M 1040.89 885.655 C 1044.88 884.52 1053.69 880.821 1056.36 881.626 L 1056.47 883.915 C 1047.77 890.283 1030.98 892.46 1025.82 881.002 C 1030.47 880.739 1036.31 883.777 1040.89 885.655 z"/>
<path transform="translate(0,0)" fill="rgb(253,252,253)" d="M 1071.38 1119.75 C 1079.76 1124.41 1088.02 1129.27 1096.16 1134.33 C 1095.93 1141.13 1096.18 1149.25 1096.22 1156.15 C 1089.92 1153.19 1087.06 1151.63 1081.23 1147.84 C 1068.88 1154.92 1055.01 1165.35 1041.91 1173.27 C 1026.55 1164.67 1016.33 1157.12 1001.95 1148.03 L 990.502 1155.31 L 989.395 1155.77 L 987.987 1154.94 C 987.173 1149.97 987.729 1139.68 987.865 1134.2 C 996.379 1129.05 1003.67 1125.56 1011.9 1119.49 C 1012.04 1122.41 1012.52 1131.86 1011.77 1134.06 C 1006.52 1149.43 1010.43 1144.75 1020.64 1155.43 L 1021.3 1156.14 C 1027.62 1153.01 1034.67 1148.94 1040.93 1145.52 C 1047.25 1148.96 1053.6 1152.34 1059.99 1155.66 C 1081.7 1141.41 1069.8 1144.63 1071.38 1119.75 z"/>
<path transform="translate(0,0)" fill="rgb(253,252,253)" d="M 1071.06 816.699 C 1082.89 812.789 1095.64 819.195 1099.57 831.014 C 1103.49 842.832 1097.1 855.595 1085.28 859.531 C 1073.45 863.474 1060.66 857.07 1056.73 845.233 C 1052.8 833.396 1059.22 820.616 1071.06 816.699 z"/>
<path transform="translate(0,0)" fill="rgb(0,0,1)" d="M 1070.89 832.379 L 1074.17 833.832 C 1078.62 839.44 1077.51 842.969 1073.16 847.936 C 1064.76 844.168 1065.96 838.639 1070.89 832.379 z"/>
<path transform="translate(0,0)" fill="rgb(253,252,253)" d="M 1004.85 816.368 C 1017.07 816.227 1027.1 825.997 1027.28 838.214 C 1027.45 850.431 1017.71 860.488 1005.5 860.702 C 993.23 860.917 983.12 851.126 982.942 838.858 C 982.764 826.589 992.585 816.509 1004.85 816.368 z"/>
<path transform="translate(0,0)" fill="rgb(0,0,1)" d="M 1010.2 832.469 C 1017.98 835.177 1015.69 842.318 1012.42 847.614 C 1003.53 845.165 1006.16 837.984 1010.2 832.469 z"/>
<path transform="translate(0,0)" fill="rgb(253,252,253)" d="M 1015.68 1164.22 C 1023.79 1168.7 1032.41 1173.14 1039.84 1178.62 C 1039.22 1184.09 1039.33 1194.35 1039.23 1200.2 C 1034.95 1198.2 1027.88 1193.94 1023.53 1191.48 C 1015.97 1196.26 991.442 1215.74 984.641 1215.7 L 960.988 1202.55 C 968.922 1197.65 976.912 1192.85 984.957 1188.14 L 1003.23 1198.41 C 1021.11 1186.85 1015.04 1184.64 1015.68 1164.22 z M 1007.49 1201.21 C 1011.01 1198.1 1014.62 1195.09 1018.32 1192.18 L 1018.23 1190.96 L 1017.32 1190.64 C 1014.51 1192.9 1006.97 1198.3 1005.93 1201.12 L 1006.76 1201.56 L 1007.49 1201.21 z"/>
<path transform="translate(0,0)" fill="rgb(251,249,251)" fill-opacity="0.498039" d="M 1017.32 1190.64 L 1018.23 1190.96 L 1018.32 1192.18 C 1014.62 1195.09 1011.01 1198.1 1007.49 1201.21 L 1006.76 1201.56 L 1005.93 1201.12 C 1006.97 1198.3 1014.51 1192.9 1017.32 1190.64 z"/>
<path transform="translate(0,0)" fill="rgb(253,252,253)" d="M 1066.34 1165.02 L 1067.64 1166.44 C 1067.98 1172.07 1068.26 1175.24 1067.55 1180.94 L 1066.6 1188.75 C 1069.46 1192.72 1074.57 1196.01 1078.62 1199.03 L 1098.57 1188.37 L 1122.96 1202.66 C 1116.38 1206.13 1109.85 1209.72 1103.39 1213.41 L 1100.2 1215.26 C 1092.61 1216.03 1066.83 1196.77 1059.52 1191.76 L 1043.98 1200.58 L 1044.05 1177.67 C 1050.37 1173.62 1059.61 1168.8 1066.34 1165.02 z"/>
<path transform="translate(0,0)" fill="rgb(253,252,253)" fill-opacity="0.686275" d="M 1024.63 779.212 C 1032.61 791.756 1039.86 803.964 1055.87 806.582 L 1055.21 811.411 C 1051.99 813.837 1049.79 815.165 1048.7 819.059 C 1049.89 822.439 1050.71 824.897 1052.28 828.105 L 1051.86 829.767 L 1050.36 830.59 C 1043.7 829.217 1039.71 830.453 1033.35 830.843 C 1031.62 830.949 1026.95 822.059 1024.99 819.163 C 1025.78 818.155 1028.04 815.487 1028.03 814.382 C 1027.94 804.93 1026.39 798.447 1026.5 788.646 L 1023.53 783.842 C 1019.94 781.82 1020.64 782.517 1015.82 782.648 L 1016.05 780.824 C 1019.26 780.625 1021.53 779.96 1024.63 779.212 z"/>
<path transform="translate(0,0)" fill="rgb(251,249,251)" d="M 985.059 1100.93 C 993.485 1105.72 1001.87 1110.58 1010.22 1115.52 C 1002.07 1119.97 993.871 1124.96 985.859 1129.69 L 960.163 1115.37 L 985.059 1100.93 z"/>
<path transform="translate(0,0)" fill="rgb(251,249,251)" d="M 1097.83 1101.83 C 1100.5 1102.58 1119.54 1113.8 1123.26 1115.93 C 1115.05 1120.35 1106.91 1124.9 1098.84 1129.58 C 1090.78 1124.92 1082.1 1120.34 1073.9 1115.83 C 1081.64 1110.96 1089.88 1106.38 1097.83 1101.83 z"/>
<path transform="translate(0,0)" fill="rgb(253,252,253)" fill-opacity="0.796078" d="M 1015.82 782.648 C 1020.64 782.517 1019.94 781.82 1023.53 783.842 L 1026.5 788.646 C 1026.39 798.447 1027.94 804.93 1028.03 814.382 C 1028.04 815.487 1025.78 818.155 1024.99 819.163 C 1015.32 811.622 1010.98 811.814 999.135 811.64 C 999.949 808.248 998.016 804.945 996.663 801.098 C 998.036 798.563 1005.04 789.521 1007.88 788.202 L 1007.34 793.071 C 1010.03 794.062 1018.52 793.201 1021.14 791.847 L 1021.72 789.547 C 1019.83 784.843 1020.47 785.835 1015.82 782.648 z"/>
<path transform="translate(0,0)" fill="rgb(253,252,253)" d="M 958.044 1119.69 C 966.185 1123.93 975.244 1129.57 983.241 1134.29 L 983.122 1156.53 C 974.653 1152.19 966.271 1147.68 957.983 1143.01 L 958.044 1119.69 z"/>
<path transform="translate(0,0)" fill="rgb(253,252,253)" d="M 958.635 1206.64 L 983.048 1220.97 L 983.227 1243.65 C 974.83 1239.32 966.561 1234.75 958.428 1229.94 L 958.635 1206.64 z"/>
<path transform="translate(0,0)" fill="rgb(253,252,253)" d="M 1123.46 1207.94 L 1124.19 1208.06 C 1125.71 1211.67 1125.04 1225.78 1125.01 1230.66 L 1101.38 1243.01 C 1099.96 1240.64 1100.43 1225.5 1100.35 1221.25 C 1107.14 1216.92 1116.33 1212.02 1123.46 1207.94 z"/>
<path transform="translate(0,0)" fill="rgb(253,252,253)" d="M 1010.48 1208 L 1011.34 1208.17 C 1012.61 1211.13 1012 1226.1 1011.95 1230.35 L 989.529 1242.84 L 988.527 1242.64 C 987.256 1239.32 987.859 1225.74 987.917 1221.31 C 995.213 1216.54 1002.9 1212.31 1010.48 1208 z"/>
<path transform="translate(0,0)" fill="rgb(251,249,251)" d="M 1123.81 1120.93 L 1124.32 1121.38 C 1125.71 1124.65 1125.26 1138.75 1125.26 1143.23 L 1101.8 1155.81 L 1101.33 1155.35 C 1100.23 1151.79 1100.64 1138.75 1100.66 1134.23 C 1108.41 1129.85 1116.13 1125.42 1123.81 1120.93 z"/>
<path transform="translate(0,0)" fill="rgb(253,252,253)" d="M 1071.37 1206.66 L 1095.82 1221.03 L 1095.62 1243.26 C 1087.41 1238.85 1079.25 1234.33 1071.16 1229.7 C 1071.57 1222.5 1071.37 1213.97 1071.37 1206.66 z"/>
<path transform="translate(0,0)" fill="rgb(253,252,253)" fill-opacity="0.00784314" d="M 1130.05 832.786 C 1132.29 830.568 1131.91 830.505 1134.63 829.241 C 1139.47 847.576 1127.9 857.785 1109.9 854.434 C 1110.13 852.397 1111.22 851.217 1112.39 849.317 C 1123.54 836.229 1115.11 843.418 1130.05 832.786 z M 1121.7 851.086 C 1125.81 848.714 1127.06 848.401 1129.59 844.605 L 1129.87 842.179 L 1128.24 843.168 C 1125.87 844.58 1124.86 844.912 1122.29 845.862 C 1120.44 848.813 1120.84 847.169 1121.7 851.086 z"/>
<path transform="translate(0,0)" fill="rgb(251,249,251)" fill-opacity="0.317647" d="M 1129.87 842.179 L 1129.59 844.605 C 1127.06 848.401 1125.81 848.714 1121.7 851.086 C 1120.84 847.169 1120.44 848.813 1122.29 845.862 C 1124.86 844.912 1125.87 844.58 1128.24 843.168 L 1129.87 842.179 z"/>
<path transform="translate(0,0)" fill="rgb(253,252,253)" fill-opacity="0.894118" d="M 1059.69 801.103 C 1063.24 801.86 1066.7 804.408 1069.86 806.369 C 1068.84 807.746 1068.6 807.69 1068.39 809.407 L 1073.6 808.431 L 1074.34 809.288 C 1064.93 816.678 1061.18 808.406 1052.28 828.105 C 1050.71 824.897 1049.89 822.439 1048.7 819.059 C 1049.79 815.165 1051.99 813.837 1055.21 811.411 L 1055.87 806.582 C 1055.67 803.713 1054.47 802.857 1052.56 800.659 C 1054.18 801.331 1055.78 802.046 1057.37 802.804 L 1059.69 801.103 z"/>
<path transform="translate(0,0)" fill="rgb(253,252,253)" fill-opacity="0.00784314" d="M 1023.32 757.475 C 1033.11 776.5 1041.19 789.394 1059.69 801.103 L 1057.37 802.804 C 1055.78 802.046 1054.18 801.331 1052.56 800.659 C 1034.92 795.392 1026.81 773.736 1023.32 757.475 z"/>
<path transform="translate(0,0)" fill="rgb(253,252,253)" fill-opacity="0.0156863" d="M 949.447 838.568 C 948.581 826.678 955.508 813.205 968.259 822.136 C 964.149 823.582 961.5 823.806 960.364 828.708 L 957.896 829.153 L 955.687 831.699 C 957.823 836.285 960.77 835.044 964.704 840.568 C 964.051 841.621 963.291 842.234 962.393 843.146 C 958.203 843.866 953.442 840.626 949.447 838.568 z"/>
<path transform="translate(0,0)" fill="rgb(251,249,251)" fill-opacity="0.984314" d="M 1130.11 822.012 C 1132.9 824.661 1133.49 825.327 1134.63 829.241 C 1131.91 830.505 1132.29 830.568 1130.05 832.786 C 1118.79 827.254 1108.46 841.303 1112.39 849.317 C 1111.22 851.217 1110.13 852.397 1109.9 854.434 L 1106.37 856.415 C 1106.44 846.084 1110.07 846.101 1111.68 836.852 C 1112.28 833.055 1113.35 832.278 1115.96 829.73 C 1116.39 829.055 1116.84 828.39 1117.3 827.735 C 1120.84 822.781 1123.96 823.117 1130.11 822.012 z"/>
<path transform="translate(0,0)" fill="rgb(253,252,253)" fill-opacity="0.988235" d="M 1013.47 776.865 L 1016.05 780.824 L 1015.82 782.648 C 1020.47 785.835 1019.83 784.843 1021.72 789.547 L 1021.14 791.847 C 1018.52 793.201 1010.03 794.062 1007.34 793.071 L 1007.88 788.202 L 1009.04 787.127 C 1010.47 782.149 1010.73 781.218 1013.47 776.865 z"/>
<path transform="translate(0,0)" fill="rgb(251,249,251)" fill-opacity="0.0431373" d="M 985.761 709.158 C 989.977 708.698 990.726 708.498 994.829 709.148 C 991.945 711.762 977.509 713.991 968.501 720.249 C 964.039 723.696 960.511 725.721 955.712 728.563 C 964.641 717.635 972.476 712.768 985.761 709.158 z"/>
<path transform="translate(0,0)" fill="rgb(24,24,24)" d="M 1112.39 849.317 C 1108.46 841.303 1118.79 827.254 1130.05 832.786 C 1115.11 843.418 1123.54 836.229 1112.39 849.317 z"/>
<path transform="translate(0,0)" fill="rgb(253,252,253)" fill-opacity="0.141176" d="M 968.259 822.136 C 971.024 825.196 971.743 825.869 975.015 828.39 L 974.257 830.595 C 972.492 830.207 971.021 829.827 969.279 829.341 L 967.657 830.482 L 967.601 835.898 C 963.662 831.814 963.17 831.377 957.896 829.153 L 960.364 828.708 C 961.5 823.806 964.149 823.582 968.259 822.136 z"/>
<path transform="translate(0,0)" fill="rgb(253,252,253)" fill-opacity="0.317647" d="M 975.015 828.39 C 980.633 832.524 978.318 837.893 977.795 844.637 C 976.289 839.638 977.219 840.147 973.957 836.938 C 970.144 836.295 971.853 836.033 968.586 837.189 L 967.601 835.898 L 967.657 830.482 L 969.279 829.341 C 971.021 829.827 972.492 830.207 974.257 830.595 L 975.015 828.39 z"/>
<path transform="translate(0,0)" fill="rgb(251,249,251)" fill-opacity="0.294118" d="M 1106.81 843.379 C 1106.28 835.785 1104.7 832.384 1111.28 827.789 C 1113.59 828.999 1113.53 829.275 1115.96 829.73 C 1113.35 832.278 1112.28 833.055 1111.68 836.852 L 1110.43 835.746 C 1108.41 838.522 1107.98 840.205 1106.81 843.379 z"/>
<path transform="translate(0,0)" fill="rgb(251,249,251)" fill-opacity="0.109804" d="M 1111.28 827.789 L 1113.73 825.479 C 1119.91 819.586 1121.89 817.187 1130.11 822.012 C 1123.96 823.117 1120.84 822.781 1117.3 827.735 C 1116.84 828.39 1116.39 829.055 1115.96 829.73 C 1113.53 829.275 1113.59 828.999 1111.28 827.789 z"/>
<path transform="translate(0,0)" fill="rgb(24,24,24)" d="M 827.246 1099.44 L 828.619 1099.32 C 829.96 1105.51 832.916 1124.06 832.657 1130 L 831.621 1129.28 C 829.804 1124.95 827.729 1104.9 827.246 1099.44 z"/>
<path transform="translate(0,0)" fill="rgb(251,249,251)" fill-opacity="0.0862745" d="M 1106.81 843.379 C 1107.98 840.205 1108.41 838.522 1110.43 835.746 L 1111.68 836.852 C 1110.07 846.101 1106.44 846.084 1106.37 856.415 C 1104.58 858.197 1103.61 858.718 1101.52 860.109 L 1101.2 859.288 C 1103.73 854.644 1105.41 852.332 1105.59 846.847 L 1106.81 843.379 z"/>
<path transform="translate(0,0)" fill="rgb(253,252,253)" fill-opacity="0.00784314" d="M 968.586 837.189 C 971.853 836.033 970.144 836.295 973.957 836.938 C 977.219 840.147 976.289 839.638 977.795 844.637 C 978.034 845.652 977.929 846.508 977.924 847.594 L 976.703 847.791 C 973.122 844.759 971.173 841.145 968.586 837.189 z"/>
<path transform="translate(0,0)" fill="rgb(53,51,52)" d="M 1200.39 1130.65 C 1201.93 1135.65 1199.76 1143.26 1198.69 1148.61 C 1197.82 1148.32 1198.34 1148.59 1197.46 1147.35 C 1198.21 1141.72 1198.77 1136.09 1200.39 1130.65 z"/>
<path transform="translate(0,0)" fill="rgb(53,51,52)" d="M 1211.47 1075.67 C 1212.9 1081.13 1211.25 1089.93 1209.85 1095.38 C 1208.06 1090.67 1210.27 1080.63 1211.47 1075.67 z"/>
<path transform="translate(0,0)" fill="rgb(24,24,24)" d="M 852.454 1031.56 C 857.874 1030.67 862.21 1030.01 867.417 1031.79 C 861.278 1033.08 858.236 1033.81 852.454 1031.56 z"/>
<path transform="translate(0,0)" fill="rgb(53,51,52)" fill-opacity="0.980392" d="M 829.17 1270.59 L 830.223 1271.39 C 831.682 1274 831.459 1280.03 831.573 1283.33 L 830.42 1282.36 C 828.683 1278.04 829.104 1275.23 829.17 1270.59 z"/>
<path transform="translate(0,0)" fill="rgb(24,24,24)" fill-opacity="0.929412" d="M 982.596 732.913 L 983.12 733.288 L 983.126 734.431 L 975.898 741.009 L 975.139 739.6 C 977.446 735.877 978.798 735.405 982.596 732.913 z"/>
<path transform="translate(0,0)" fill="rgb(53,51,52)" d="M 996.83 784.951 C 996.716 787.953 992.328 793.16 990.24 795.5 L 989.529 794.566 C 990.916 790.886 994.127 787.928 996.83 784.951 z"/>
<path transform="translate(0,0)" fill="rgb(24,24,24)" fill-opacity="0.988235" d="M 928.495 832.85 C 930.226 834.991 927.998 841.431 927.395 844.214 C 926.528 844.072 927.125 844.241 925.941 843.05 C 926.162 838.349 926.782 837.37 928.495 832.85 z"/>
<path transform="translate(0,0)" fill="rgb(24,24,24)" d="M 1183.53 1112.72 C 1184.64 1118.19 1183.48 1121.38 1182.15 1126.66 L 1181.84 1126.49 C 1180.94 1123.22 1182.69 1116.06 1183.53 1112.72 z"/>
<path transform="translate(0,0)" fill="rgb(53,51,52)" fill-opacity="0.988235" d="M 946.363 768.675 C 947.413 772.502 946.154 775.677 945.124 779.5 L 944.144 778.182 C 944.057 773.883 944.777 772.822 946.363 768.675 z"/>
<path transform="translate(0,0)" fill="rgb(24,24,24)" d="M 881.404 1040.74 L 883.589 1041.5 C 882.407 1043.36 880.042 1043.43 877.272 1044.28 L 874.901 1043.65 L 875.311 1042.62 L 881.404 1040.74 z"/>
<path transform="translate(0,0)" fill="rgb(24,24,24)" d="M 827.781 1230.48 C 830.757 1232.64 829.933 1234.1 830.099 1237.58 L 829.107 1237.83 C 827.549 1235.78 827.997 1233.61 827.781 1230.48 z"/>
<path transform="translate(0,0)" fill="rgb(24,24,24)" d="M 1052.82 772.61 C 1057.6 774.175 1058.08 775.418 1061.29 779.343 C 1056.8 777.444 1056.24 776.337 1052.82 772.61 z"/>
<path transform="translate(0,0)" fill="rgb(0,0,1)" d="M 1551.78 836.702 C 1548.46 825.054 1546.85 797.447 1550.4 786.246 C 1556.38 767.345 1575.27 739.049 1593.55 729.766 C 1618.31 717.192 1643.49 715.074 1669.92 721.322 C 1684.31 724.723 1689.29 731.734 1699.6 740.761 C 1717.81 754.028 1727.32 758.187 1739.02 778.98 C 1739.41 796.382 1729.43 830.473 1720.18 844.26 L 1722.05 856.915 C 1721.05 861.681 1720.34 865.153 1718.87 869.845 C 1712.32 880.869 1704.48 884.713 1691.75 883.223 C 1687.57 893.523 1685.71 896.834 1679.23 905.928 C 1704.76 905.211 1713.98 903.67 1717.94 930.959 C 1728.55 938.739 1730.71 939.542 1734.15 952.901 C 1747.6 957.711 1759.34 961.94 1771.62 969.647 C 1803.72 990.655 1829.59 1028.97 1845.84 1063.24 C 1861.74 1096.76 1877.13 1143.61 1865.01 1180.08 C 1854.34 1212.19 1824.19 1215.25 1795.48 1212.84 C 1796.71 1220.12 1797.81 1227.42 1798.75 1234.73 L 1799.38 1239.86 C 1801.76 1250.91 1803.43 1261.05 1805.5 1272.05 C 1818.64 1272.04 1871.83 1270.6 1880.49 1273.99 L 1880.48 1275.26 C 1876.71 1276.77 1871.73 1277.61 1867.65 1277.56 C 1744.09 1276.26 1619.71 1279.34 1496.26 1277.57 C 1497.74 1285.69 1498.33 1288.84 1497.52 1297.3 L 1495.94 1303.57 C 1485.66 1323.54 1477.36 1321.26 1458.9 1322.64 C 1456.19 1324.78 1456.84 1323.43 1456.16 1326.35 C 1460.88 1332.75 1474.22 1331.68 1474.84 1341.73 C 1473.28 1345.19 1470.21 1348.5 1466.7 1350.1 C 1443.16 1360.85 1404.22 1359.61 1379.47 1353.78 C 1374 1352.41 1362.93 1348.32 1360.81 1342.62 C 1357.08 1332.64 1374.35 1329.11 1380.15 1327.51 C 1369.85 1308.11 1368.58 1299.98 1366.34 1277.75 C 1333.53 1275.58 1299.66 1278.07 1266.74 1276.57 C 1265.27 1276.5 1264.26 1275.64 1263.19 1274.76 L 1263.86 1273.52 C 1271.86 1270.59 1351.37 1271.45 1365.61 1271.32 C 1365.65 1270.3 1365.95 1263.96 1366.16 1263.48 C 1370.95 1252.7 1395.52 1250.48 1405.23 1249.68 C 1424.05 1248.13 1442.28 1249.47 1460.24 1254.59 C 1464.55 1255.82 1467.92 1263.48 1469.77 1267.22 C 1472.63 1267.24 1479.1 1266.51 1480.66 1266.91 C 1484.52 1267.91 1488.91 1271.67 1493.49 1271.82 C 1512.33 1272.41 1531.94 1272.1 1550.77 1272.03 C 1551.16 1242.9 1550.78 1223.89 1548.55 1195.12 C 1539.36 1208.93 1525 1221.35 1508.44 1224.92 C 1495.34 1227.77 1481.65 1225.13 1470.54 1217.62 C 1441.89 1198.62 1421.96 1144.78 1415.86 1112.16 C 1397.13 1110.52 1398.66 1099.75 1392.89 1084.29 C 1367.64 1085.29 1378.44 1064.5 1367.16 1050.71 L 1366.45 1049.82 L 1365.3 1048.42 C 1364.43 1044.96 1366.22 1041.25 1367.43 1037.71 C 1360.86 1026.73 1361.53 1023.69 1371.79 1015.79 C 1368.55 1002.45 1361.87 989.86 1359.54 976.284 C 1359.08 973.59 1358.72 970.229 1360.51 967.987 C 1367 959.846 1424.21 945.208 1435.75 944.582 C 1437.99 944.46 1440.98 944.322 1443.07 945.283 C 1454.56 950.556 1454.39 984.81 1464.29 993.911 C 1468.98 995.259 1474.18 996.503 1476.63 1001.01 C 1484.75 1015.86 1482.46 1030.51 1479.23 1045.53 C 1483.11 1056.58 1487.65 1071.12 1493.21 1080.91 C 1509.39 1035.44 1526.75 999.875 1564.03 971.052 C 1564.8 970.451 1573.18 956.654 1576.5 952.936 C 1575.58 936.46 1576.38 934.086 1587.69 922.934 C 1572.74 910.743 1568.32 903.282 1560.88 885.539 C 1538.7 873.49 1532.24 855.184 1551.78 836.702 z M 1494.76 1087.83 C 1500.65 1098.87 1514.59 1130.68 1514.48 1142.41 L 1513 1142.86 C 1505.31 1137.32 1493.66 1089.59 1487.17 1087.8 L 1485.55 1088.88 C 1471.54 1098.09 1438.29 1103.95 1421.03 1110.47 C 1429.38 1148.49 1457.15 1228.12 1507.45 1218.19 C 1523.5 1215.02 1538.2 1199.41 1547.33 1186.68 C 1546.62 1181.21 1545.79 1173.16 1544.58 1167.98 C 1544.22 1164.62 1543.26 1160.67 1542.55 1157.29 C 1537.57 1125.65 1535.05 1099.37 1543.14 1067.05 C 1543.78 1064.5 1545.21 1062.01 1547.63 1060.9 C 1550.25 1064.47 1542.84 1103.76 1543.45 1112.9 C 1545.06 1137.38 1549.88 1160.72 1553.4 1184.97 C 1557.68 1214.42 1557.42 1242.37 1557.07 1271.95 L 1798.55 1271.92 C 1795.22 1250.58 1791.36 1234.13 1789.75 1212.09 C 1759.54 1207.79 1685.85 1186.63 1660.83 1164.1 C 1657.73 1161.3 1659.48 1154.62 1660.24 1150.33 C 1643.21 1150.12 1639.49 1149.15 1624.57 1140.76 C 1623.05 1145.64 1620.97 1149.86 1615.48 1150.42 C 1599 1152.11 1588.46 1129.21 1586.1 1115.75 C 1584.38 1105.96 1585.97 1103.7 1591.26 1096.66 C 1581.12 1093.98 1556.51 1091.46 1554.42 1080.02 C 1555.89 1074.27 1559.77 1073.1 1565.36 1072.81 C 1579.76 1072.05 1594.6 1074.23 1608.92 1075.01 C 1619.53 1062.18 1625.94 1068.87 1638.79 1075.44 C 1644.38 1079.02 1649.94 1082.64 1655.48 1086.3 C 1659.66 1089.15 1671.07 1097.5 1675.39 1098.51 L 1676.44 1097.19 C 1678.46 1094.67 1680.51 1092.53 1683.99 1092.87 C 1710.4 1095.48 1741.46 1105.74 1766.98 1111.61 C 1763.72 1104.67 1749.13 1079.07 1750.98 1073.02 C 1757.09 1073.73 1771.04 1106.57 1774.37 1113.41 L 1776.26 1114.15 C 1784.1 1117.16 1796.38 1118.06 1802.11 1123.51 L 1802.29 1125.03 C 1800.49 1126.4 1800.53 1126.88 1797.86 1126.4 C 1761.75 1119.83 1718.22 1102.02 1682.22 1098.63 C 1677.47 1114.75 1668.35 1143.23 1664.99 1158.86 C 1690.38 1182.81 1777.49 1207.21 1812.73 1207.1 C 1848.84 1206.99 1866.92 1177.73 1862.82 1143.02 C 1855.88 1084.23 1823.42 1022.99 1779.39 983.407 C 1763.66 969.631 1748.75 965.843 1731.12 958.486 C 1713.93 975.222 1692.99 986.59 1672.94 999.115 C 1639.23 1020.18 1583.45 1021.68 1565.54 978.559 C 1538.18 998.953 1523.76 1025.39 1509.93 1055.88 C 1505.37 1065.92 1500.5 1078.69 1494.76 1087.83 z M 1586.92 995.125 L 1590.65 997.731 C 1631.32 1025.45 1677.28 989.359 1711.02 966.753 C 1730.2 953.893 1735.89 946.917 1711.09 935.514 C 1711.07 932.852 1711.01 930.189 1710.89 927.529 C 1709.92 908.99 1692.07 910.097 1677.94 911.247 C 1674.81 913.544 1675.62 912.099 1674.81 915.324 C 1676.26 918.487 1677.85 919.11 1680.77 921.072 L 1681.91 921.823 C 1673.83 936.113 1622.49 950.216 1608.42 941.028 C 1608 939.447 1607.78 938.506 1607.94 936.789 C 1608.58 929.818 1597.91 927.587 1592.88 925.932 C 1584.91 933.49 1579.18 939.982 1583.87 951.607 C 1588.37 962.777 1601.69 972.597 1613.04 976.171 C 1617.73 977.645 1621.48 977.165 1626.72 979.299 L 1627.21 981.489 L 1626.02 982.962 C 1596.67 985.03 1588.88 960.619 1579.07 959.706 C 1574.26 962.808 1572.69 970.346 1570.96 975.872 C 1576 986.214 1578.28 987.598 1586.92 995.125 z M 1683.14 816.849 C 1687.75 822.07 1693.43 828.161 1697.39 833.745 C 1701.54 833.947 1708.23 835.387 1711.66 833.753 C 1712.65 831.205 1712.29 830.882 1711.9 828.076 C 1715.26 810.618 1704.61 786.929 1697.49 771.77 C 1696.28 769.196 1696.62 767.868 1697.65 765.852 L 1699.22 766.54 C 1712.9 783.579 1718.37 814.967 1717.99 836.675 C 1720 830.862 1721.66 827.001 1724.17 821.429 C 1726.82 813.251 1728.65 806.633 1730.71 798.279 C 1732.23 793.196 1732.93 788.042 1733.82 782.803 C 1724.33 764.369 1711.09 756.463 1694.79 745.098 C 1688.31 740.578 1684.8 733.826 1676.58 730.244 C 1650.6 718.918 1608.66 722.407 1587.09 741.563 C 1582.94 744.328 1576.68 752.002 1573.12 756.049 C 1577.92 753.508 1582.71 750.936 1587.48 748.332 C 1589.91 750.523 1590.37 750.207 1591.16 752.887 C 1589.58 754.693 1580.91 759.405 1578.42 760.4 C 1568.33 764.43 1561.86 773.372 1557.37 783.239 C 1555.41 789.446 1554.04 794.185 1552.57 800.518 C 1555.83 795.538 1557.41 792.343 1562.19 788.755 L 1570.26 784.66 C 1573.47 783.099 1579.59 781.399 1583.2 780.276 C 1615.56 775.902 1642.77 784.725 1668.86 804.501 C 1673.89 808.292 1678.66 812.418 1683.14 816.849 z M 1640.13 761.317 L 1638.15 760.401 C 1634.99 758.834 1636.02 759.985 1634.57 757.234 L 1635.56 756.044 C 1645.88 755.884 1662.83 766.287 1670.63 772.679 L 1679.22 779.691 C 1691.38 792.248 1705.17 810.93 1710.72 827.548 C 1703.61 825.079 1701.24 817.258 1696.53 809.814 C 1688.83 790.978 1658.73 768.855 1640.13 761.317 z M 1374.97 981.721 C 1378 993.429 1382.34 1005.35 1386.26 1016.83 C 1389.57 1019.27 1392.37 1020.82 1394.34 1024.36 C 1393.91 1028.85 1392.58 1029.15 1393.85 1033.8 C 1396.82 1036.29 1400.1 1038.41 1401.28 1041.97 C 1400.89 1045.05 1400.7 1045.52 1399.71 1048.49 C 1400.64 1051.69 1401.66 1052.69 1403.62 1055.33 C 1404.19 1058.78 1402.81 1060.79 1401.35 1064.06 C 1402.34 1071.4 1406.03 1078.91 1407.97 1086.7 C 1417.74 1083.98 1464.14 1071.43 1471.88 1067.88 C 1467.52 1049.28 1459.6 1026.86 1453.7 1008.34 C 1449.82 996.173 1443.83 976.773 1438.87 965.731 C 1435.98 964.146 1437.6 964.645 1433.62 965.145 C 1413.18 970.549 1395.12 975.387 1374.97 981.721 z M 1658.18 854.084 C 1657.21 863.286 1655.71 870.106 1647.74 876.264 C 1642.28 880.517 1635.31 882.331 1628.47 881.28 C 1606.03 877.94 1611.79 857.184 1603.06 854.736 L 1601.39 855.259 C 1601.32 857.553 1601.21 859.845 1601.07 862.136 C 1600.56 870.627 1593.54 875.783 1597.21 882.611 C 1600.21 883.923 1602.3 883.663 1605.57 883.697 L 1606.06 884.898 C 1601.67 891.37 1590.4 887.576 1589.98 882.845 C 1589.33 875.63 1598.35 862.668 1595.74 855.252 L 1593.43 855.271 C 1591.56 858.005 1590.83 861.521 1590.01 864.815 C 1586.5 878.897 1580.94 882.377 1567.19 885.556 C 1569.32 889.905 1571.52 894.593 1573.72 898.873 C 1602.54 942.657 1641 919.491 1646.5 923.477 C 1645.95 929.062 1625.1 935.005 1619.48 938.088 C 1635.4 937.631 1656.62 932.655 1670.25 924.309 C 1670.03 919.222 1669.9 913.767 1669.52 908.723 C 1678.54 895.606 1681.61 892.833 1688.76 877.935 C 1697.4 878.002 1703.53 877.803 1710.05 871 C 1714.06 866.743 1716.15 861.022 1715.83 855.178 C 1715.24 845.19 1708.21 840.044 1698.64 839.955 C 1689.8 846.881 1669.96 850.697 1658.18 854.084 z M 1391.37 1331.24 L 1394.99 1334.43 C 1400.84 1338.06 1407.42 1340.37 1414.27 1341.18 C 1455.33 1346.09 1461.19 1298.44 1464.1 1269.56 C 1439.25 1279.37 1395.61 1278.56 1370.59 1269.48 C 1372.5 1292.77 1374.72 1313.94 1391.37 1331.24 z M 1598.25 1092.24 C 1602.45 1090.75 1603.9 1089.79 1608.1 1090.49 C 1603.16 1099.01 1589.6 1101.28 1590.88 1111.63 C 1597.22 1112.06 1602.66 1102.08 1610.37 1103.41 C 1607.54 1111.47 1588.8 1117.03 1595.41 1127.56 C 1600.14 1126.99 1604.04 1117.03 1611.48 1117.94 C 1614.38 1125.62 1594.6 1127.59 1602.92 1140.38 C 1609.29 1140.86 1615.5 1132.97 1619.76 1134.09 C 1641.21 1139.75 1639.36 1146.52 1663.36 1143.86 C 1665.56 1130.97 1670.61 1118.22 1673.65 1105.11 C 1668.45 1101.95 1644.68 1085.59 1641.52 1085.06 C 1630.35 1083.2 1566.49 1073.86 1560.54 1080.13 L 1561.7 1081.93 C 1570.61 1087.32 1587.6 1090 1598.25 1092.24 z M 1608.95 848.627 C 1609.44 840.767 1613.73 835.935 1619.75 831.349 C 1624.97 828.599 1626.05 828.258 1631.81 826.888 C 1646.25 831.052 1651.68 834.919 1657.69 849.142 C 1669.18 845.891 1679.99 842.762 1691.74 840.452 C 1651.68 835.082 1619.95 820.225 1599.67 783.577 C 1590.85 790.543 1555.07 821.946 1557.77 832.545 C 1569.48 834.65 1575.84 828.31 1584.93 842.05 C 1586.45 844.351 1589.06 848.524 1591.21 850.079 C 1595.86 848.487 1602.6 849.501 1607.53 850.156 L 1608.95 848.627 z M 1640.34 835.176 C 1627.85 847.088 1615.91 822.716 1612.26 859.268 C 1616.01 869.264 1622.04 877.354 1634.1 876.002 C 1639.79 875.335 1644.96 872.358 1648.39 867.769 C 1652.02 862.996 1653.44 856.902 1652.3 851.016 C 1650.76 843.429 1646.36 839.34 1640.34 835.176 z M 1442.03 1339.9 L 1439.3 1341.48 C 1416.31 1351.78 1401.69 1346.3 1383.09 1331.53 C 1377.34 1333.23 1365.8 1334.86 1367.14 1342.35 C 1380.1 1355.13 1461.57 1357.2 1467.16 1339.54 C 1463.91 1334.8 1456.09 1334.18 1450.09 1332.87 C 1446.98 1336.27 1445.79 1337.09 1442.03 1339.9 z M 1380.76 1016.28 C 1379.02 1010.89 1371.94 985.896 1368.48 983.557 C 1368.82 989.416 1374.82 1011.88 1378.55 1015.54 L 1380.76 1016.28 z M 1476.48 1031.17 C 1478.21 1020.99 1477.55 1003.78 1466.33 999.251 C 1465.47 1006.19 1471.56 1027.06 1476.48 1031.17 z M 1460.37 1316.75 C 1497.69 1320.79 1503.88 1272.8 1475.91 1272.94 C 1475.23 1272.94 1474.55 1272.96 1473.87 1272.99 C 1470.73 1274.41 1470.65 1273.84 1468.98 1276.3 C 1472.71 1279.49 1488.44 1275.87 1489.05 1290.99 C 1489.6 1304.86 1472.42 1312.72 1462.11 1314.34 C 1461.19 1315.41 1460.9 1315.51 1460.37 1316.75 z M 1390.14 966.907 C 1393.36 962.028 1406.14 959.402 1412.51 957.464 C 1412.24 960.252 1412.78 960.887 1411.29 962.372 C 1407.33 966.308 1395.53 967.192 1390.14 966.907 z M 1419.33 963.239 C 1423.08 962.048 1438.84 958.13 1442.1 958.786 C 1456.08 992.767 1465.31 1035.34 1478.85 1069.83 C 1466.95 1076.89 1459.08 1075.86 1448.97 1080.98 L 1448.6 1082.54 C 1449.19 1083.04 1449.78 1083.55 1450.36 1084.07 C 1454.01 1087.4 1453.34 1088.9 1453.62 1094.28 C 1461.42 1092.39 1477.26 1089.39 1481.83 1082.01 C 1482.99 1080.14 1483.27 1075.19 1482.53 1073.09 C 1472.53 1044.7 1463.21 1016.03 1455.1 987.018 C 1452.4 977.325 1447.04 966.577 1445.07 956.923 C 1443.6 953.588 1443.1 951.283 1440 949.52 C 1427.49 948.06 1380.76 963.884 1366.92 969.07 C 1364.43 970 1365.06 976.149 1367.8 978.966 C 1370.05 979.037 1387.24 972.257 1391.66 970.842 C 1397.39 970 1414.47 965.545 1419.33 963.239 z M 1582.46 846.814 C 1575.71 836.964 1569.6 837.089 1558.71 840.13 C 1559.49 850.004 1559.23 877.155 1571 879.662 C 1577.45 877.937 1582.78 870.985 1585.66 865.256 C 1586.48 859.687 1585.94 851.438 1582.46 846.814 z M 1659.34 813.918 C 1656.89 810.374 1653.98 808.49 1649.61 807.923 C 1653.15 810.927 1654.83 812.641 1659.34 813.918 z M 1617.31 1073.1 L 1616.33 1075.03 C 1619.14 1077.22 1625.25 1077.98 1629.02 1078.75 L 1628.74 1077.31 C 1624.43 1074.74 1622.35 1074.13 1617.31 1073.1 z M 1619.2 1143.74 L 1618.62 1140.71 C 1615.71 1138.91 1612.62 1139.86 1609 1140.29 L 1609.6 1143.03 C 1613.15 1144.76 1614.86 1143.98 1619.2 1143.74 z M 1556.22 877.111 L 1557.88 877.063 C 1558.41 874.412 1553.78 844.547 1552.72 842.857 C 1543.41 855.997 1542.24 866.392 1556.22 877.111 z M 1389.29 1079.4 C 1392.15 1076.56 1395.75 1073.75 1396.69 1070 C 1394.71 1067.37 1393.07 1067.88 1389.77 1068.14 C 1386.14 1069 1384.42 1068.99 1381.91 1071.73 L 1381.31 1074.31 C 1383.62 1077.88 1384.67 1078.25 1389.29 1079.4 z M 1577.38 859.532 C 1577.05 863.129 1576.15 867.818 1571.7 867.331 C 1567.87 864.058 1567.09 857.843 1569.46 853.459 C 1572.66 852.206 1570.98 852.348 1574.67 853.609 L 1576.84 858.497 L 1577.38 859.532 z M 1475.08 1305.63 C 1484.49 1295.34 1487.84 1282.59 1468.68 1284.07 C 1467.32 1291.13 1463.19 1302.83 1466.03 1307.6 C 1469.28 1308.48 1472.03 1307.1 1475.08 1305.63 z M 1388.96 1064.01 C 1394.07 1062.55 1399.14 1061.13 1397.19 1054.68 C 1393.94 1052.71 1393.03 1052.64 1388.65 1053.2 C 1383.02 1054.09 1378.8 1053.66 1376.05 1059.22 C 1377.34 1065.75 1383.69 1064.42 1388.96 1064.01 z M 1376.04 1021.06 C 1372.57 1022.6 1371.37 1022.8 1369.06 1025.85 C 1367.46 1034.48 1378.56 1033.74 1384.04 1033.04 C 1387.38 1031.46 1387.23 1031.66 1389.66 1028.9 C 1389.8 1022.16 1381.4 1020.88 1376.04 1021.06 z M 1384.41 1038.33 C 1378.8 1038.88 1370.66 1038.7 1371.04 1046.51 C 1374.77 1051.19 1378.43 1050.3 1383.77 1049.19 C 1387.6 1048.85 1389.49 1049.02 1392.75 1046.98 C 1394.97 1043.67 1394.49 1045.41 1394.55 1041.68 C 1391.23 1037.6 1389.46 1037.91 1384.41 1038.33 z M 1411.27 1254.43 C 1399.83 1255.51 1386.22 1256.27 1376.25 1262.3 L 1375.28 1264.08 C 1377.35 1265.14 1391.76 1261.36 1396.41 1261.02 C 1406.71 1260.25 1415.9 1259.89 1426.25 1260.11 C 1434.31 1260.5 1453.74 1264 1459.32 1261.9 L 1457.57 1262.34 L 1457.58 1260.4 C 1443.46 1255.22 1426.18 1253.18 1411.27 1254.43 z M 1406.09 1093.04 C 1404.39 1088.37 1401.85 1076.74 1399.17 1074.64 C 1397.57 1082.23 1399.3 1083.92 1400.89 1090.76 C 1404.43 1105.99 1413.21 1108.34 1426.9 1102.78 C 1431.3 1101 1436.95 1099.45 1441.45 1097.12 C 1439.01 1091.89 1438.75 1089.57 1437.98 1083.96 C 1426.97 1086.27 1416.68 1090.48 1406.09 1093.04 z"/>
<path transform="translate(0,0)" fill="rgb(0,0,1)" d="M 1692.09 942.763 L 1694.48 942.867 L 1695.81 944.746 L 1695.53 945.237 C 1690.38 954.475 1660.12 964.883 1649.24 966.711 C 1648.69 966.689 1647.48 966.223 1646.88 966.028 L 1646.07 964.076 C 1648.31 961.411 1650.97 961.34 1654.98 960.174 C 1669.53 955.938 1679.46 951.033 1692.09 942.763 z"/>
<path transform="translate(0,0)" fill="rgb(0,0,1)" d="M 1411.55 1045.69 C 1409.39 1037.04 1410.86 1042.66 1411.74 1035.61 C 1412.96 1025.82 1412.49 1008.79 1428.29 1013.62 C 1436.01 1015.98 1437.51 1023.85 1444.77 1026.3 C 1447.58 1032.08 1451.13 1046.72 1452.35 1053.25 C 1443.09 1056.79 1427.45 1063.98 1418.25 1061.5 C 1416.61 1059.55 1416.76 1059.99 1415.67 1057.77 C 1414.37 1053.11 1413.33 1050.2 1411.55 1045.69 z M 1414.85 1037.97 C 1415.9 1044.03 1416.58 1052.66 1421.07 1056.74 L 1424.47 1056.82 C 1432.31 1054.79 1439.72 1052.97 1447.39 1050.25 C 1445.87 1044.27 1444.37 1034.17 1439.53 1031.02 L 1436.78 1030.88 C 1428.31 1034.31 1422.39 1035.29 1414.85 1037.97 z M 1426.24 1029.54 C 1431.34 1027.74 1430.99 1028.76 1433.67 1025.17 C 1433.54 1017.92 1426.59 1017.58 1420.92 1017.88 C 1417.17 1021.74 1414.44 1026.55 1418.75 1031.08 C 1421.75 1031.71 1423.36 1030.68 1426.24 1029.54 z"/>
<path transform="translate(0,0)" fill="rgb(0,0,1)" d="M 1427.52 1036.41 C 1436.31 1037.52 1435.19 1045.59 1433.56 1052.2 C 1427.53 1048.6 1425.27 1042.96 1427.52 1036.41 z"/>
<path transform="translate(0,0)" fill="rgb(0,0,1)" d="M 1423.79 985.149 C 1430.62 986.725 1435.74 988.583 1437.37 995.892 C 1436.71 1000.57 1432.41 1004.37 1427.89 1004.49 C 1428.1 1000.82 1428.69 1001.88 1427.35 999.231 C 1420.04 1000.96 1410.71 1001.11 1405.66 1005.93 C 1404.82 1009.45 1405.26 1008.58 1407.4 1012.79 C 1391.69 1010.84 1385.72 999.828 1401.55 993.953 L 1402.4 994.718 L 1400.86 999.009 L 1401.52 999.941 C 1410.09 998.563 1417.02 998.372 1423.83 993.126 C 1425.37 989.339 1424.7 989.969 1423.79 985.149 z"/>
<path transform="translate(0,0)" fill="rgb(0,0,1)" d="M 1637.47 881.925 C 1632.22 894.983 1629.97 900.894 1615.27 904.827 L 1609.05 905.327 C 1605.61 904.364 1604.88 904.785 1602.76 902.577 L 1603.58 900.646 C 1608.57 899.075 1613.9 899.183 1618.46 898.346 C 1624.19 897.295 1632.58 886.512 1637.47 881.925 z"/>
<path transform="translate(0,0)" fill="rgb(0,0,1)" d="M 1702.9 849.981 C 1705.9 850.101 1706.86 849.902 1709.61 851.088 C 1707.31 856.72 1700.31 854.942 1696.85 865.297 C 1696.49 865.89 1695.46 866.498 1694.81 866.977 L 1693.51 866.46 C 1692.25 859.076 1697.64 853.938 1702.9 849.981 z"/>
<path transform="translate(0,0)" fill="rgb(0,0,1)" d="M 1625.52 850.448 L 1629.58 851.773 C 1634.56 856.875 1633.49 861.196 1629.7 866.486 L 1626.2 865.556 C 1621.61 860.674 1622.43 855.783 1625.52 850.448 z"/>
<path transform="translate(0,0)" fill="rgb(253,252,253)" fill-opacity="0.027451" d="M 1445.07 956.923 C 1447.04 966.577 1452.4 977.325 1455.1 987.018 C 1463.21 1016.03 1472.53 1044.7 1482.53 1073.09 C 1483.27 1075.19 1482.99 1080.14 1481.83 1082.01 C 1477.26 1089.39 1461.42 1092.39 1453.62 1094.28 C 1453.34 1088.9 1454.01 1087.4 1450.36 1084.07 C 1449.78 1083.55 1449.19 1083.04 1448.6 1082.54 L 1448.97 1080.98 C 1459.08 1075.86 1466.95 1076.89 1478.85 1069.83 C 1465.31 1035.34 1456.08 992.767 1442.1 958.786 L 1445.07 956.923 z M 1457.14 1085.9 C 1463.97 1086.88 1476.35 1086.19 1479.31 1078.55 C 1478.72 1074.03 1479.63 1075.78 1477.33 1072.61 C 1468.4 1075.97 1469.69 1082.97 1454.31 1080.95 L 1453.31 1082.05 L 1457.14 1085.9 z"/>
<path transform="translate(0,0)" fill="rgb(0,0,1)" d="M 1638.15 760.401 C 1634.99 758.834 1636.02 759.985 1634.57 757.234 L 1635.56 756.044 C 1645.88 755.884 1662.83 766.287 1670.63 772.679 L 1679.22 779.691 C 1691.38 792.248 1705.17 810.93 1710.72 827.548 C 1703.61 825.079 1701.24 817.258 1696.53 809.814 C 1688.83 790.978 1658.73 768.855 1640.13 761.317 L 1638.15 760.401 z"/>
<path transform="translate(0,0)" fill="rgb(24,24,24)" d="M 1608.95 848.627 C 1609.44 840.767 1613.73 835.935 1619.75 831.349 L 1620.6 834.002 C 1626.32 835.855 1632.89 829.221 1640.34 835.176 C 1627.85 847.088 1615.91 822.716 1612.26 859.268 C 1611.75 854.39 1612.65 851.749 1608.95 848.627 z"/>
<path transform="translate(0,0)" fill="rgb(251,249,251)" fill-opacity="0.227451" d="M 1412.51 957.464 L 1414.7 955.862 C 1416.15 957.863 1415.63 957.232 1415.99 960.064 L 1417.34 960.353 L 1418.44 958.713 L 1419.48 960.516 L 1418.83 962.815 L 1419.33 963.239 C 1414.47 965.545 1397.39 970 1391.66 970.842 L 1390.14 966.907 C 1395.53 967.192 1407.33 966.308 1411.29 962.372 C 1412.78 960.887 1412.24 960.252 1412.51 957.464 z"/>
<path transform="translate(0,0)" fill="rgb(0,0,1)" d="M 1577.38 859.532 C 1577.05 863.129 1576.15 867.818 1571.7 867.331 C 1567.87 864.058 1567.09 857.843 1569.46 853.459 C 1572.66 852.206 1570.98 852.348 1574.67 853.609 L 1576.84 858.497 L 1577.38 859.532 z"/>
<path transform="translate(0,0)" fill="rgb(24,24,24)" d="M 1390.14 966.907 C 1393.36 962.028 1406.14 959.402 1412.51 957.464 C 1412.24 960.252 1412.78 960.887 1411.29 962.372 C 1407.33 966.308 1395.53 967.192 1390.14 966.907 z"/>
<path transform="translate(0,0)" fill="rgb(253,252,253)" fill-opacity="0.0117647" d="M 1368.48 983.557 C 1371.94 985.896 1379.02 1010.89 1380.76 1016.28 L 1378.55 1015.54 C 1374.82 1011.88 1368.82 989.416 1368.48 983.557 z"/>
<path transform="translate(0,0)" fill="rgb(251,249,251)" fill-opacity="0.0196078" d="M 1587.09 741.563 C 1590.09 741.002 1589.4 740.937 1592.35 741.132 C 1592.41 741.869 1592.46 742.605 1592.52 743.342 C 1590.3 745.392 1588.44 747.633 1585.63 748.377 L 1587.48 748.332 C 1582.71 750.936 1577.92 753.508 1573.12 756.049 C 1576.68 752.002 1582.94 744.328 1587.09 741.563 z"/>
<path transform="translate(0,0)" fill="rgb(253,252,253)" fill-opacity="0.0117647" d="M 1557.37 783.239 C 1559.36 785.056 1561.15 786.314 1562.19 788.755 C 1557.41 792.343 1555.83 795.538 1552.57 800.518 C 1554.04 794.185 1555.41 789.446 1557.37 783.239 z"/>
<path transform="translate(0,0)" fill="rgb(253,252,253)" fill-opacity="0.0156863" d="M 1617.31 1073.1 C 1622.35 1074.13 1624.43 1074.74 1628.74 1077.31 L 1629.02 1078.75 C 1625.25 1077.98 1619.14 1077.22 1616.33 1075.03 L 1617.31 1073.1 z"/>
<path transform="translate(0,0)" fill="rgb(24,24,24)" fill-opacity="0.980392" d="M 1649.61 807.923 C 1653.98 808.49 1656.89 810.374 1659.34 813.918 C 1654.83 812.641 1653.15 810.927 1649.61 807.923 z"/>
<path transform="translate(0,0)" fill="rgb(0,0,1)" d="M 402.274 738.03 C 419.004 731.138 439.951 729.147 456.851 736.302 C 459.584 737.434 462.233 738.762 464.775 740.275 C 481.402 739.55 490.702 741.937 503.29 753.753 C 527.928 776.88 536.69 809.094 521.033 840.168 C 520.217 841.8 518.499 861.265 517.819 865.027 C 511.726 898.737 498.524 920.806 463.321 927.812 L 462.634 943.657 C 495.086 948.581 517.713 964.93 537.774 990.485 C 559.116 1017.67 567.503 1049.93 583.966 1078.45 C 590.069 1067.11 606.513 1034.98 614.787 1028.14 C 618.474 1027.24 618.855 1027.21 622.668 1027.05 C 624.923 1024.23 626.666 1008.54 628.615 1001.95 L 630.37 998.189 C 635.757 988.76 664.637 956.71 675.561 961.457 C 678.944 967.856 673.215 980.243 670.335 986.317 C 689.071 983.44 752.336 962.571 745.103 1000.55 C 743.841 1007.18 729.972 1022.22 724.477 1027.34 C 710.494 1040.81 681.503 1039.65 669.681 1049.92 C 669.925 1055.4 674.465 1055.62 672.405 1061.53 C 658.707 1100.8 633.602 1178.72 596.138 1199.56 C 586.87 1204.8 575.837 1205.95 565.691 1202.72 C 562.795 1201.82 560.497 1200.92 557.84 1199.52 C 550.322 1195.76 544.925 1191.03 538.866 1185.35 L 531.217 1176.87 C 530.819 1181.18 530.474 1185.64 529.976 1189.92 C 529.131 1205.75 528.939 1220.5 531.081 1236.34 C 531.285 1243.85 531.582 1249.72 532.352 1257.17 L 532.301 1259.76 L 532.65 1262.21 L 532.998 1270.99 C 575.08 1271.03 620.131 1271.79 661.978 1270.9 L 663.327 1271.19 C 667.205 1271.09 670.225 1271.32 673.85 1269.97 C 672.047 1267.39 670.019 1267.21 666.619 1265.67 C 661.562 1263.29 661.009 1262.93 658.639 1258.32 C 659.877 1249.6 658.953 1243.71 659.891 1236.69 L 691.711 1219.74 C 702.497 1225.35 713.199 1231.12 723.814 1237.04 L 723.883 1260.99 C 717.888 1264.86 713.175 1267.97 706.794 1271.18 C 737.028 1270.4 767.572 1271.74 797.847 1271.18 C 803.198 1271.08 816.597 1270.83 820.437 1274.22 C 816.823 1276.99 813.711 1276.87 809.378 1276.94 C 763.623 1277.28 717.866 1277.18 672.112 1276.66 L 400.275 1276.69 C 345.281 1277.19 290.284 1276.99 235.295 1276.09 C 223.274 1275.97 182.009 1277.98 172.447 1275.7 C 172.035 1273.56 171.942 1273.21 171.805 1271.02 L 284.816 1271.03 C 286.535 1264.25 288.045 1256.87 289.578 1250 C 292.736 1234.9 295.691 1220.94 296.136 1205.42 C 213.788 1248.7 168.537 1214.4 200.05 1125.35 C 212.56 1090 228.309 1062.61 248.625 1031.1 C 250.703 1029.1 254.678 1022.52 256.443 1019.79 C 266.836 1007.43 276.292 995.205 288.759 984.76 C 277.702 989.363 275.705 989.935 263.802 989.957 C 259.656 996.9 258.305 997.548 251.422 1001.79 C 246.311 1011.88 247.556 1013.72 240.634 1024.29 C 231.019 1036.96 202.101 1046.95 186.497 1045.71 C 180.588 1045.24 196.279 1012.57 198.606 1009.02 C 208.836 993.422 220.113 989.911 237.235 986.459 C 238.388 984.226 239.677 982.131 240.962 979.974 C 261.313 969.117 247.891 946.18 280.637 941.572 C 285.636 926.433 291.067 916.807 307.891 913.879 C 311.45 899.13 314.197 890.386 329.597 885.456 C 331.09 870.339 332.482 862.789 346.094 854.329 C 334.866 809.513 351.677 767.149 390.879 742.712 C 394.851 740.848 398.16 739.573 402.274 738.03 z M 335.47 1173.91 C 322.871 1152.62 319.977 1141.86 319.965 1117.12 C 292.842 1123.41 267.996 1132.62 242.244 1142.9 C 240.384 1143.64 238.439 1143.9 236.565 1143.11 L 236.166 1141.33 C 243.048 1133.22 282.308 1122.63 293.695 1117.58 C 300.319 1105.47 307.127 1093.46 314.116 1081.56 C 316.198 1078 320.383 1073.7 324.256 1072.04 C 326.558 1077.23 305.81 1100.11 309.276 1111.14 C 312.656 1113.64 321.775 1113.04 326.034 1112.7 C 330.942 1106.04 335.706 1099.33 341.22 1093.16 C 345.531 1089.25 350.196 1084.53 354.433 1080.44 C 355.956 1079.07 363.372 1075.08 363.608 1074.48 C 370.552 1056.79 373.624 1037.9 379.636 1019.68 C 382.052 1017.29 385.081 1015.26 387.857 1013.25 C 393.221 1012.62 403.789 1011.88 408.808 1012.52 C 433.758 1015.69 496.025 1007.99 516.675 1016.29 C 528.448 1028.27 519.757 1049.23 516.027 1063.83 L 501.73 1119.32 C 495.611 1143.39 491.062 1168.89 483.262 1192.4 C 481.993 1196.22 479.364 1204.31 475.916 1206.45 C 471.629 1209.11 357.185 1209.73 347.983 1207.16 C 344.328 1206.14 340.893 1204.25 339.086 1200.75 C 335.196 1193.23 339.644 1183.39 342.18 1176.12 C 327.61 1186.99 317.501 1193.56 302.096 1202.58 C 302.06 1223.89 296.067 1250.08 291.204 1270.94 L 527.014 1271.22 C 525.277 1241.59 521.536 1214.93 524.168 1185.28 C 527.312 1149.87 541.452 1117.77 535.528 1082.27 C 534.708 1077.36 530.65 1059.07 532.917 1055.92 L 534.458 1056.45 C 551.778 1083.48 538.228 1139.27 532.278 1168.49 C 537.222 1174.02 542.045 1179.53 547.503 1184.48 C 587.64 1220.88 618.269 1174.13 634.055 1140.98 C 647.174 1113.43 658.075 1087.05 667.534 1058.72 C 651.514 1048.86 634.677 1040.68 617.78 1032.47 C 613.227 1039.63 608.789 1046.86 604.466 1054.16 L 599.583 1063.14 C 595.247 1071.14 571.51 1119.63 567.169 1121.78 C 564.446 1114.81 576.537 1093.1 579.925 1086.53 C 570.347 1064.4 560.823 1043.17 549.568 1021.84 C 532.19 988.909 514.942 970.241 481.644 954.268 C 463.39 983.609 429.184 985.118 402.003 967.87 C 393.224 962.299 387.672 956.239 381.089 948.345 C 318.118 962.594 279.947 989.086 247.132 1045.31 C 224.096 1084.78 189.973 1141.15 197.105 1188.46 C 201.532 1217.83 232.398 1222.13 255.898 1214.79 C 280.243 1207.19 315.751 1190.41 335.47 1173.91 z M 371.425 1100.81 C 379.553 1097.8 396.529 1088.53 403.757 1089.41 C 406.842 1092.1 406.173 1092.97 407.494 1097.81 C 410.296 1100.07 410.648 1100.16 412.802 1103.18 C 413.874 1108.55 403.631 1138.04 399.135 1144.07 C 388.101 1158.86 375.455 1165.64 358.332 1169.66 C 356.482 1177.58 349.973 1190.86 351.105 1198.59 C 351.328 1200.12 351.927 1201.17 353.244 1201.92 C 358.246 1204.76 460.964 1203.62 469.169 1201.41 C 472.734 1200.45 474.504 1198.99 476.187 1195.67 C 482.723 1182.81 485.469 1160.77 489.202 1146.06 C 498.21 1110.58 508.809 1075.04 516.398 1039.25 C 517.147 1035.72 518.322 1031.64 517.194 1028.17 C 516.729 1028 516.263 1027.83 515.798 1027.65 C 479.312 1024.55 441.844 1025.76 405.127 1024.45 C 390.443 1023.93 388.935 1033.93 386.073 1045.53 C 383.731 1055.02 381.568 1064.39 378.734 1073.72 L 375.905 1083.86 L 371.425 1100.81 z M 371.882 877.177 C 374.297 873.911 375.451 871.382 379.241 870.398 C 385.851 872.365 396.182 895.392 402.89 900.631 C 403.32 900.967 408.269 906.402 408.931 907.208 C 408.639 919.161 409.893 934.128 402.461 943.285 C 408.072 948.407 411.776 951.48 418.807 954.865 C 429.064 958.589 454.119 962.618 459.625 950.088 C 460.044 945.624 457.237 942.324 456.76 938.223 C 456.491 935.917 456.961 930.554 457.138 928.155 C 449.661 927.874 436.979 927.368 431.429 922.007 C 430.766 919.063 430.418 920.225 431.564 918.166 C 435.012 918.418 434.76 918.562 438.062 919.503 C 452.576 923.641 468.001 922.676 481.298 915.348 C 498.078 906.101 506.816 887.331 511.448 869.486 C 516.478 850.112 517.318 819.127 507.136 801.105 C 502.133 792.251 488.336 783.424 480.227 776.612 C 467.91 804.943 444.708 827.125 415.852 838.157 C 408.575 840.994 398.463 843.764 390.659 843.85 C 384.712 843.915 378.763 838.715 372.213 840.652 C 353.293 846.249 360.08 867.711 371.882 877.177 z M 662.401 1048.51 C 673.49 1036.23 689.632 1036.8 704.34 1031.74 C 712.061 1029.08 727.04 1020.98 729.673 1013.26 C 720.887 1010.15 708.618 1025.23 697.77 1020.17 L 698.193 1018.65 C 712.462 1013.46 720.88 1006.21 733.579 1007.85 C 737.25 1006.06 737.928 1004.43 739.599 1000.56 C 728.461 994.033 709.401 1012.26 697.655 1007.47 L 697.337 1005.51 C 709.884 1000.95 728.124 995.967 739.233 991.571 L 739.16 989.985 C 730.876 984.7 702.794 1002.38 692.875 996.582 C 695.559 990.999 706.716 990.811 711.973 989.258 C 718.365 987.369 724.63 984.604 730.881 982.269 C 715.35 982.529 684.344 989.213 666.741 991.75 C 665.383 994.659 663.842 998.853 661.494 1000.71 C 652.347 996.765 672.613 975.872 670.574 966.666 L 668.74 965.691 C 641.859 991.509 634.502 993.421 628.256 1030.47 C 639.585 1036.86 651.512 1042.24 662.401 1048.51 z M 325.1 1123.94 C 325.54 1128.76 325.927 1133.72 326.512 1138.52 C 328.693 1146.95 330.751 1153.78 335.18 1161.4 C 338.168 1166.54 344.91 1166.16 350.41 1165.34 C 369.925 1162.47 387.624 1152.15 399.875 1136.7 C 392.773 1140.24 381.423 1150.92 374.291 1149.35 C 372.376 1143.56 409.319 1129.4 404.297 1118.77 C 397.194 1122.07 384.163 1138.39 372.652 1136.92 L 372.168 1135.66 C 379.275 1127.9 409.346 1116.48 406.093 1103.91 L 404.813 1103.43 C 397.452 1108.81 378.822 1124.86 369.689 1122.29 L 369.752 1120.41 C 372.626 1116.81 376.585 1115.8 380.992 1113.97 C 392.745 1107.66 397.053 1104.01 403.912 1092.69 C 396.071 1095.26 386.609 1099.58 379.279 1103.46 C 372.991 1105.47 363.22 1109.05 356.85 1108.54 L 354.833 1107.24 C 354.195 1104.17 361.005 1086.51 362.689 1079.78 C 343.13 1096.76 339.2 1103.63 325.1 1123.94 z M 370.652 900.055 C 366.84 902.864 362.023 906.211 358.513 909.249 C 352.658 926.631 349.952 927.815 333.848 937.875 C 326.493 955.087 320.971 960.933 301.979 965.437 C 300.249 969.626 298.61 973.573 297.072 977.848 C 299.645 976.01 302.502 974.059 305 972.159 C 337.778 951.528 363.434 945.87 400.118 938.066 C 403.521 927.179 402.958 919.861 402.938 908.387 C 398.877 904.282 393.7 899.292 389.993 895.053 C 383.057 902.549 380.478 902.356 370.652 900.055 z M 245.654 981.702 C 245.003 988.964 250.002 993.537 257.011 994.209 C 254.92 990.031 249.877 983.796 245.654 981.702 z M 344.997 1198.44 C 346.33 1193.54 353.526 1172.52 349.948 1169.53 C 347.353 1174.32 343.617 1191.37 343.76 1196.79 L 344.997 1198.44 z M 469.677 1017.75 C 459.847 1016.47 392.852 1015.09 386.979 1019.93 C 386.683 1020.17 386.446 1020.48 386.18 1020.75 C 382.865 1027.33 363.418 1094.22 362.731 1101.26 L 363.985 1101.89 C 371.643 1096.27 379.608 1032.64 390.235 1021.31 C 399.685 1019.83 404.149 1019.87 413.79 1019.8 C 442.756 1020.55 475.099 1021.6 504.007 1020.86 L 504.48 1018.79 C 503.536 1017.89 473.744 1017.78 469.677 1017.75 z M 294.737 931.798 C 289.65 940.563 287.655 944.747 285.64 954.68 L 286.133 956.404 C 288.261 951.304 295.015 936.304 294.737 931.798 z M 406.498 815.931 C 412.869 814.08 421.204 808.511 426.431 804.312 L 426.153 803.097 C 419.498 806.846 412.569 810.618 406.147 814.712 L 405.995 815.678 L 406.498 815.931 z M 442.705 813.096 C 439.17 815.558 428.553 822.443 426.467 825.196 C 433.458 822.941 438.147 818.698 443.979 814.254 C 448.262 811.837 459.243 801.171 460.365 796.719 C 454.362 802.566 449.015 807.595 442.705 813.096 z M 696.118 1271.16 L 719.062 1257.83 C 718.983 1253.98 719.567 1246.55 717.786 1244.04 C 710.285 1248.2 702.635 1252.57 695.055 1256.55 C 694.929 1260.2 694.315 1267.35 695.346 1270.5 L 696.118 1271.16 z M 259.796 965.653 C 258.202 969.117 257.216 969.949 257.448 973.4 L 258.689 974.496 C 260.035 970.951 261.007 969.886 260.632 966.428 L 259.796 965.653 z M 250.164 996.342 C 247.891 993.509 244.387 988.542 241.62 986.719 C 242.887 992.454 243.747 995.211 250.164 996.342 z M 343.841 921.063 C 340.753 923.224 333.509 927.45 332.375 930.203 L 332.892 930.755 C 336.398 928.961 343.309 925.755 344.433 921.725 L 343.841 921.063 z M 275.509 973.128 L 268.376 977.518 L 268.436 978.765 L 270.564 978.947 C 273.302 977.38 276.396 976.13 277.849 973.526 C 275.974 973.03 276.764 973.056 275.509 973.128 z M 345.263 902.315 C 350.916 900.061 358.012 896.204 362.484 892.05 L 362.106 890.981 L 361.476 890.868 C 357.271 893.423 344.762 899.324 343.239 901.386 L 345.263 902.315 z M 682.059 1253.13 L 663.921 1243.67 C 664.094 1248.67 664.175 1253.82 664.65 1258.78 C 673.06 1262.78 681.34 1267.05 689.478 1271.59 C 689.588 1268.17 689.514 1263.95 690.409 1260.77 C 689.423 1255.66 686.497 1255.25 682.059 1253.13 z M 323.64 899.907 C 322.357 903.483 317.768 914.355 320.452 917.145 C 322.063 912.926 324.461 905.214 324.298 900.692 L 323.64 899.907 z M 714.584 1238.64 C 710.393 1236.39 693.613 1226.61 690.208 1227.04 C 683.17 1230.83 675.447 1234.8 668.595 1238.82 C 672.787 1241.06 689.647 1251.68 692.426 1251.64 C 701.189 1247.32 706.644 1244.4 714.584 1238.64 z M 344.408 871.629 C 341.606 878.059 339.552 883.541 342.524 890.322 C 343.027 886.498 345.244 874.321 344.408 871.629 z M 383.335 880.616 C 382.522 886.937 382.528 890.905 377.275 895.089 L 375.678 894.448 C 373.739 889.516 373.58 887.517 372.756 882.313 C 370.633 883.023 370.489 884.236 368.897 886.608 C 372.433 907.801 394.166 890.185 383.335 880.616 z M 389.45 824.075 C 393.198 822.565 397.667 821.125 400.698 818.592 L 399.85 817.737 L 398.545 817.804 C 395.319 819.31 389.56 821.309 387.865 823.746 L 389.45 824.075 z M 470.663 960.241 C 473.923 956.123 473.86 957.384 474.579 952.826 C 468.986 945.971 453.07 967.674 433.169 964.663 C 411.997 961.459 402.364 945.77 392.112 944.816 L 388.028 946.624 L 387.7 947.976 C 407.207 973.13 442.434 982.85 469.024 961.61 C 469.579 961.164 470.125 960.708 470.663 960.241 z"/>
<path transform="translate(0,0)" fill="rgb(0,0,1)" d="M 460.381 1044.84 C 464.952 1044.72 469.652 1045.78 472.052 1049.86 C 472.237 1057.77 464.615 1060.4 462.269 1065.33 C 461.549 1066.85 458.651 1076.03 457.886 1078.3 C 493.507 1093.39 488.026 1135.81 453.012 1147.19 C 454.712 1155.99 454.089 1156.03 461.722 1161.12 C 465.266 1163.48 464.566 1172.36 461.546 1175.79 C 454.349 1177.59 448.856 1170.71 447.271 1170.59 C 440.203 1170.08 426.869 1170.96 419.547 1171.02 C 417.553 1173.07 415.12 1175.28 413.018 1177.27 C 411.19 1177.41 409.864 1177.31 408.034 1177.25 C 404.719 1175.33 401.638 1173.23 400.62 1169.44 C 402.453 1162.01 410.381 1161.74 415.609 1159.87 C 417.294 1159.27 426.42 1144.96 427.933 1142.63 C 409.759 1121.44 410.73 1105.48 429.411 1085.29 C 426.68 1082.39 420.486 1072.51 418.093 1071.83 C 409.569 1069.39 403.198 1068.45 410.27 1056.45 C 416.147 1051.79 421.117 1055.64 425.187 1059.97 C 434.405 1058.33 444.71 1055.39 453.87 1053.01 C 455.986 1049.69 457.764 1047.82 460.381 1044.84 z M 445.163 1083.2 C 435.501 1086.31 428.532 1090.88 423.9 1100.36 C 420.036 1108.34 419.524 1117.52 422.479 1125.88 C 426.984 1138.47 437.797 1144.14 450.744 1142.59 C 469.663 1135.23 482.818 1118.7 473.733 1098.09 C 471.065 1091.88 465.932 1087.06 459.564 1084.78 C 454.894 1083.11 450.073 1082.84 445.163 1083.2 z M 422.346 1064.8 C 426.001 1072.45 429.741 1076.55 433.023 1082.8 C 440.959 1079.31 444.108 1078.18 453.159 1077.65 C 454.871 1072.62 457.598 1066.43 457.219 1061.39 C 454.811 1057.71 453.733 1058.62 449.413 1059.18 C 440.218 1061.34 431.706 1063.4 422.346 1064.8 z M 418.322 1165.63 C 423.695 1165.58 430.538 1165.74 435.749 1165.05 C 440.323 1165.08 444.686 1165.61 448.754 1163.83 C 452.728 1158.84 449.468 1153.94 447.682 1148.14 C 441.571 1147.72 437.447 1147.53 431.741 1144.79 C 428.525 1152.4 422.772 1158.57 418.322 1165.63 z"/>
<path transform="translate(0,0)" fill="rgb(0,0,1)" d="M 450.763 1092.69 C 454.311 1092.93 462.182 1095.63 463.971 1098.95 C 454.934 1107.38 455.474 1089.73 439.756 1109.36 C 447.813 1110.68 456.2 1110.19 463.88 1113.37 C 454.512 1115.31 448.617 1115.07 438.976 1115.22 C 443.53 1121.91 444.766 1125.74 453.242 1125.39 C 457.625 1124.17 457.231 1123.44 460.193 1124.98 C 460.935 1134.99 435.08 1134.38 435.422 1115.71 L 435.455 1114.51 C 431.375 1113.31 427.443 1112.62 424.272 1109.96 L 424.192 1107.91 C 425.928 1108.04 434.569 1108.78 435.189 1107.79 C 439.94 1100.24 443.322 1097.46 450.763 1092.69 z"/>
<path transform="translate(0,0)" fill="rgb(0,0,1)" d="M 476.291 848.634 L 478.535 850.261 C 480.518 858.928 488.324 874.933 482.701 882.055 C 479.188 883.921 479.314 883.767 475.555 883.604 C 472.313 882.198 472.351 882.19 469.582 879.973 L 469.616 878.518 C 473.077 877.948 474.56 877.754 477.957 876.586 C 482.16 869.326 472.211 861.138 476.291 848.634 z"/>
<path transform="translate(0,0)" fill="rgb(0,0,1)" d="M 444.477 883.525 C 449.163 884.766 452.742 890.915 457.558 893.305 C 464.625 896.812 468.627 891.263 471.185 899.784 C 460.644 900.667 442.681 897.616 444.477 883.525 z"/>
<path transform="translate(0,0)" fill="rgb(0,0,1)" d="M 450.867 846.413 C 458.766 850.845 457.358 859.597 451.16 865.045 C 443.21 859.809 445.782 852.763 450.867 846.413 z"/>
<path transform="translate(0,0)" fill="rgb(0,0,1)" d="M 497.469 848.544 L 501.116 850.602 C 504.605 856.416 503.762 860.298 499.501 865.3 C 498.319 864.844 496.907 864.105 495.738 863.542 C 492.071 857.837 493.919 853.642 497.469 848.544 z"/>
<path transform="translate(0,0)" fill="rgb(0,0,1)" d="M 368.117 850.083 C 379.668 849.701 384.544 857.163 383.885 868.082 L 381.615 867.37 C 379.562 862.876 375.686 856.858 371.219 854.395 C 368.212 852.737 369.871 854.502 368.117 850.083 z"/>
<path transform="translate(0,0)" fill="rgb(0,0,1)" d="M 444.366 828.092 C 449.768 827.374 455.085 826.608 458.122 832.145 L 457.463 834.15 L 455.777 833.454 C 449.299 832.365 445.059 834.77 441.204 833.152 C 441.783 829.649 441.265 831.364 444.366 828.092 z"/>
<path transform="translate(0,0)" fill="rgb(0,0,1)" d="M 494.833 829.055 C 501.523 828.714 502.948 828.161 507.953 832.237 C 509.049 835.039 509.18 833.744 508.108 836.24 L 506.559 836.233 C 500.29 832.287 500.834 834.732 493.26 833.975 C 492.621 831.029 492.627 832.587 494.833 829.055 z"/>
<path transform="translate(0,0)" fill="rgb(0,0,1)" d="M 669.567 1012.19 C 675.436 1011.9 683.895 1012.39 688.109 1016.9 C 685.473 1019.81 670.08 1017.69 664.152 1018.5 C 655.391 1020.72 655.192 1025.93 649.294 1026.67 L 647.541 1023.94 C 654.049 1016 660.002 1013.86 669.567 1012.19 z"/>
<path transform="translate(0,0)" fill="rgb(251,249,251)" fill-opacity="0.0156863" d="M 386.18 1020.75 L 390.235 1021.31 C 379.608 1032.64 371.643 1096.27 363.985 1101.89 L 362.731 1101.26 C 363.418 1094.22 382.865 1027.33 386.18 1020.75 z"/>
<path transform="translate(0,0)" fill="rgb(206,203,202)" fill-opacity="0.972549" d="M 413.79 1019.8 C 434.61 1016.45 448.974 1018.54 469.677 1017.75 C 473.744 1017.78 503.536 1017.89 504.48 1018.79 L 504.007 1020.86 C 475.099 1021.6 442.756 1020.55 413.79 1019.8 z"/>
<path transform="translate(0,0)" fill="rgb(185,184,186)" fill-opacity="0.603922" d="M 386.18 1020.75 C 386.446 1020.48 386.683 1020.17 386.979 1019.93 C 392.852 1015.09 459.847 1016.47 469.677 1017.75 C 448.974 1018.54 434.61 1016.45 413.79 1019.8 C 404.149 1019.87 399.685 1019.83 390.235 1021.31 L 386.18 1020.75 z"/>
<path transform="translate(0,0)" fill="rgb(253,252,253)" fill-opacity="0.0196078" d="M 383.335 880.616 C 394.166 890.185 372.433 907.801 368.897 886.608 C 370.489 884.236 370.633 883.023 372.756 882.313 C 373.58 887.517 373.739 889.516 375.678 894.448 L 377.275 895.089 C 382.528 890.905 382.522 886.937 383.335 880.616 z"/>
<path transform="translate(0,0)" fill="rgb(253,252,253)" fill-opacity="0.0156863" d="M 349.948 1169.53 C 353.526 1172.52 346.33 1193.54 344.997 1198.44 L 343.76 1196.79 C 343.617 1191.37 347.353 1174.32 349.948 1169.53 z"/>
<path transform="translate(0,0)" fill="rgb(206,203,202)" fill-opacity="0.984314" d="M 245.654 981.702 C 249.877 983.796 254.92 990.031 257.011 994.209 C 250.002 993.537 245.003 988.964 245.654 981.702 z"/>
<path transform="translate(0,0)" fill="rgb(206,203,202)" fill-opacity="0.0627451" d="M 361.476 890.868 L 362.106 890.981 L 362.484 892.05 C 358.012 896.204 350.916 900.061 345.263 902.315 L 343.239 901.386 C 344.762 899.324 357.271 893.423 361.476 890.868 z"/>
<path transform="translate(0,0)" fill="rgb(115,113,115)" fill-opacity="0.968627" d="M 294.737 931.798 C 295.015 936.304 288.261 951.304 286.133 956.404 L 285.64 954.68 C 287.655 944.747 289.65 940.563 294.737 931.798 z"/>
<path transform="translate(0,0)" fill="rgb(206,203,202)" fill-opacity="0.0901961" d="M 426.153 803.097 L 426.431 804.312 C 421.204 808.511 412.869 814.08 406.498 815.931 L 405.995 815.678 L 406.147 814.712 C 412.569 810.618 419.498 806.846 426.153 803.097 z"/>
<path transform="translate(0,0)" fill="rgb(115,113,115)" fill-opacity="0.337255" d="M 442.705 813.096 C 449.015 807.595 454.362 802.566 460.365 796.719 C 459.243 801.171 448.262 811.837 443.979 814.254 L 442.705 813.096 z"/>
<path transform="translate(0,0)" fill="rgb(185,184,186)" fill-opacity="0.0980392" d="M 442.705 813.096 L 443.979 814.254 C 438.147 818.698 433.458 822.941 426.467 825.196 C 428.553 822.443 439.17 815.558 442.705 813.096 z"/>
<path transform="translate(0,0)" fill="rgb(185,184,186)" fill-opacity="0.0588235" d="M 344.408 871.629 C 345.244 874.321 343.027 886.498 342.524 890.322 C 339.552 883.541 341.606 878.059 344.408 871.629 z"/>
<path transform="translate(0,0)" fill="rgb(115,113,115)" fill-opacity="0.941176" d="M 323.64 899.907 L 324.298 900.692 C 324.461 905.214 322.063 912.926 320.452 917.145 C 317.768 914.355 322.357 903.483 323.64 899.907 z"/>
<path transform="translate(0,0)" fill="rgb(115,113,115)" fill-opacity="0.988235" d="M 343.841 921.063 L 344.433 921.725 C 343.309 925.755 336.398 928.961 332.892 930.755 L 332.375 930.203 C 333.509 927.45 340.753 923.224 343.841 921.063 z"/>
<path transform="translate(0,0)" fill="rgb(115,113,115)" d="M 431.19 808.329 L 433.073 809.744 C 430.185 812.004 425.98 815.853 422.653 816.492 C 424.252 813.325 428.29 810.646 431.19 808.329 z"/>
<path transform="translate(0,0)" fill="rgb(206,203,202)" fill-opacity="0.0509804" d="M 398.545 817.804 L 399.85 817.737 L 400.698 818.592 C 397.667 821.125 393.198 822.565 389.45 824.075 L 387.865 823.746 C 389.56 821.309 395.319 819.31 398.545 817.804 z"/>
<path transform="translate(0,0)" fill="rgb(24,24,24)" fill-opacity="0.988235" d="M 275.509 973.128 C 276.764 973.056 275.974 973.03 277.849 973.526 C 276.396 976.13 273.302 977.38 270.564 978.947 L 268.436 978.765 L 268.376 977.518 L 275.509 973.128 z"/>
<path transform="translate(0,0)" fill="rgb(24,24,24)" d="M 204.449 1027.82 L 205.697 1028.32 C 204.453 1031.53 200.677 1034.03 197.776 1036.54 L 196.49 1036.1 L 196.527 1034.63 L 204.449 1027.82 z"/>
<path transform="translate(0,0)" fill="rgb(253,252,253)" fill-opacity="0.117647" d="M 241.62 986.719 C 244.387 988.542 247.891 993.509 250.164 996.342 C 243.747 995.211 242.887 992.454 241.62 986.719 z"/>
<path transform="translate(0,0)" fill="rgb(24,24,24)" d="M 380.393 773.597 L 381.706 774.031 C 381.234 776.506 377.88 779.108 375.748 781.263 L 374.767 781.718 L 373.945 781.101 C 375.095 778.522 378.276 775.725 380.393 773.597 z"/>
<path transform="translate(0,0)" fill="rgb(24,24,24)" d="M 431.19 808.329 C 435.861 803.547 438.333 801.963 443.799 798.144 C 440.209 802.354 437.25 806.079 433.073 809.744 L 431.19 808.329 z"/>
<path transform="translate(0,0)" fill="rgb(53,51,52)" fill-opacity="0.988235" d="M 259.796 965.653 L 260.632 966.428 C 261.007 969.886 260.035 970.951 258.689 974.496 L 257.448 973.4 C 257.216 969.949 258.202 969.117 259.796 965.653 z"/>
<path transform="translate(0,0)" fill="rgb(0,0,1)" d="M 829.187 1316.54 C 898.204 1320.74 976.814 1318.83 1046.79 1318.79 C 1113.77 1318.74 1187.79 1320.34 1254 1317.76 C 1253.87 1322.6 1253.21 1327.88 1252.73 1332.74 C 1251.03 1335.21 1248.26 1338.15 1246.2 1340.47 C 1242.56 1342.52 1239.83 1343.89 1235.58 1343.93 C 1201.14 1344.24 1166.59 1344.46 1132.16 1344.31 L 995.618 1344.19 L 893.263 1344.76 C 878.009 1344.75 862.314 1345.22 847.134 1344.31 C 831.746 1343.39 828.723 1329.06 829.187 1316.54 z M 1009.36 1338.5 C 1014.18 1337.46 1018.66 1338.05 1023.82 1336.96 C 1020.6 1336.24 1016.05 1336.4 1012.73 1336.55 C 1006.72 1338.25 1002.66 1335.97 996.153 1337.74 L 995.917 1338.42 C 1001.63 1339.36 1003.75 1339.01 1009.36 1338.5 z M 1079.18 1337.44 C 1090.23 1338.78 1098.23 1339.33 1109.42 1338.42 C 1102.95 1336.33 1085.6 1336.06 1079.18 1337.44 z M 1150.45 1332 C 1145.14 1331.69 1140.58 1331.45 1135.22 1331.51 C 1137.85 1334.46 1146.92 1333.51 1150.45 1332 z"/>
<path transform="translate(0,0)" fill="rgb(53,51,52)" fill-opacity="0.984314" d="M 1012.73 1336.55 C 1016.05 1336.4 1020.6 1336.24 1023.82 1336.96 C 1018.66 1338.05 1014.18 1337.46 1009.36 1338.5 C 1003.75 1339.01 1001.63 1339.36 995.917 1338.42 L 996.153 1337.74 C 1002.66 1335.97 1006.72 1338.25 1012.73 1336.55 z"/>
<path transform="translate(0,0)" fill="rgb(24,24,24)" fill-opacity="0.980392" d="M 1079.18 1337.44 C 1085.6 1336.06 1102.95 1336.33 1109.42 1338.42 C 1098.23 1339.33 1090.23 1338.78 1079.18 1337.44 z"/>
<path transform="translate(0,0)" fill="rgb(53,51,52)" fill-opacity="0.980392" d="M 1135.22 1331.51 C 1140.58 1331.45 1145.14 1331.69 1150.45 1332 C 1146.92 1333.51 1137.85 1334.46 1135.22 1331.51 z"/>
<path transform="translate(0,0)" fill="rgb(0,0,1)" d="M 1331.81 1329.48 C 1337.83 1331.92 1343.3 1337.94 1344.52 1344.39 L 1343.5 1345.72 C 1339.47 1345.01 1339.34 1343.84 1335.65 1340.69 C 1335.15 1347.35 1335.1 1354.92 1334.92 1361.67 C 1344.4 1365.59 1362.77 1375.08 1371.79 1380.21 C 1371.68 1392.52 1371.74 1404.84 1371.98 1417.15 C 1360.1 1423.97 1347.6 1430.05 1335.35 1436.22 C 1331.11 1435.75 1301.66 1420.33 1296.22 1417.49 L 1296.11 1379.59 C 1301.75 1378.13 1322.15 1366.37 1330.44 1362.8 C 1330.31 1356.79 1330.78 1347.73 1328.51 1342.66 C 1326.65 1344 1326.37 1344.35 1324.95 1346.07 L 1323.66 1347.65 L 1321.52 1347.78 C 1316.12 1342.07 1327.44 1333.85 1331.81 1329.48 z M 1330.38 1427.77 C 1331.18 1419.09 1330.94 1410.17 1330.89 1401.44 C 1322.12 1396.96 1309.79 1391.6 1301.85 1387.3 C 1301.52 1395.54 1300.87 1405.43 1301.09 1413.54 C 1307.79 1417.33 1323.14 1424.94 1330.38 1427.77 z M 1329.99 1368.66 C 1324.92 1371.12 1314.62 1375.57 1311.03 1379.13 C 1309.79 1385.65 1317.78 1388.15 1322.95 1390.89 C 1326.35 1392.59 1329.88 1394.44 1333.29 1396.07 C 1342.25 1392.22 1354.38 1386.81 1362.63 1381.64 C 1353.53 1376.78 1344.35 1372.07 1335.1 1367.51 C 1335.12 1373.05 1335.65 1377.67 1333.54 1382.7 L 1332.15 1383.39 C 1329.41 1379.49 1330.01 1373.51 1329.99 1368.66 z M 1335.87 1419.16 C 1335.9 1421.85 1336.13 1424.48 1336.32 1427.16 L 1337.31 1427.56 C 1345.78 1424.68 1358.51 1417.89 1366.88 1413.74 C 1366.83 1408.17 1369.09 1389.43 1364.71 1386.99 L 1360.79 1389.09 C 1352.85 1392.76 1343.65 1397.24 1336.14 1401.73 C 1335.95 1407.41 1335.61 1413.52 1335.87 1419.16 z"/>
<path transform="translate(0,0)" fill="rgb(0,0,1)" d="M 1210.79 1398.35 C 1221.37 1400.67 1235.97 1411.01 1247.5 1415.63 C 1254.08 1411.79 1276.91 1400.62 1283.85 1398.73 C 1283.89 1403.82 1284.9 1434.44 1283.62 1436.87 C 1272.03 1442.85 1258.45 1450.36 1246.64 1455.32 L 1210.12 1437.17 C 1210.1 1426.2 1209.64 1408.73 1210.79 1398.35 z M 1215.08 1432.82 C 1222.23 1436.38 1237.04 1444.3 1243.94 1446.8 C 1244.14 1438.83 1244.64 1429.26 1244.49 1421.42 C 1235.09 1415.8 1225.7 1411.2 1215.91 1406.34 C 1215.59 1414.98 1215.07 1424.21 1215.08 1432.82 z M 1249.95 1420.96 C 1249.82 1426.19 1248.65 1443.04 1251.33 1446.16 C 1260.71 1441.94 1270 1437.52 1279.2 1432.9 C 1279.12 1428.08 1279.63 1409.55 1277.77 1407.03 L 1249.95 1420.96 z"/>
<path transform="translate(0,0)" fill="rgb(24,24,24)" d="M 706.294 1381.8 C 737.677 1366.95 730.684 1372.1 759.973 1387.14 C 759.967 1392.81 760.312 1408.07 759.352 1412.9 C 751.385 1417.52 736.627 1426.64 728.872 1430.32 C 721.835 1427.05 710.876 1421 704.281 1418.35 C 703.84 1417.75 697.132 1413.52 695.312 1411.93 L 696.096 1408.62 C 696.131 1401.56 696.104 1395.69 695.638 1388.65 C 697.337 1386.83 703.621 1383.49 706.294 1381.8 z M 700.593 1408.93 C 706.572 1412.58 719.086 1420.55 725.963 1421.36 L 726.046 1407.49 C 717.719 1402.8 709.466 1399.35 701.367 1393.9 C 701.361 1399.45 701.069 1403.48 700.593 1408.93 z M 732.942 1421.36 C 740.141 1417.42 748.694 1413.11 755.097 1408.18 C 755.067 1403.71 754.929 1398.85 755.034 1394.42 C 740.623 1401.45 729.32 1402.93 732.942 1421.36 z M 706.956 1389.14 C 711.758 1392.4 725.259 1402.16 730.271 1402.23 C 736.024 1398.84 742.877 1395.75 746.573 1390.56 C 746.596 1383.85 734.209 1380.42 728.255 1377.08 C 720.461 1380.95 714.142 1384.16 706.956 1389.14 z"/>
<path transform="translate(0,0)" fill="rgb(0,0,1)" d="M 696.096 1408.62 C 697.231 1404.57 697.917 1402.37 698.424 1398.23 C 699.077 1402.42 699.483 1404.86 700.593 1408.93 C 706.572 1412.58 719.086 1420.55 725.963 1421.36 C 728.603 1421.45 729.38 1421.99 731.92 1422.88 L 732.942 1421.36 C 740.141 1417.42 748.694 1413.11 755.097 1408.18 L 757.632 1405.12 C 759.279 1407.06 758.764 1409.74 759.352 1412.9 C 751.385 1417.52 736.627 1426.64 728.872 1430.32 C 721.835 1427.05 710.876 1421 704.281 1418.35 C 703.84 1417.75 697.132 1413.52 695.312 1411.93 L 696.096 1408.62 z"/>
<path transform="translate(0,0)" fill="rgb(0,0,1)" d="M 664.863 1309.85 C 673.014 1312.86 688.813 1321.88 697.21 1326.4 C 697.245 1330.71 697.375 1335.09 697.46 1339.41 C 697.371 1342.85 697.101 1347.02 697.613 1350.33 C 691.631 1355.17 672.727 1365.19 665.659 1368.84 C 655.687 1364.51 641.918 1357.44 632.831 1351.56 L 632.495 1326.78 C 642.889 1321.79 654.563 1315.3 664.863 1309.85 z M 665.966 1341.7 C 671.698 1337.66 682.255 1333.08 683.438 1327.82 C 680.317 1323.27 670.782 1319.04 665.46 1315.8 L 644.065 1327.41 C 652.178 1334.7 656.798 1336.17 665.966 1341.7 z M 663.088 1360.88 L 662.989 1346.54 C 657.249 1343.4 643.363 1335.33 637.979 1333.17 C 637.918 1338.06 637.728 1343.46 637.869 1348.3 C 643.745 1351.31 657.533 1358.83 663.088 1360.88 z M 668.874 1345.96 C 668.829 1349.64 668.331 1356.4 669.611 1359.5 L 670.526 1360.15 C 677.608 1355.87 684.794 1351.77 692.077 1347.84 C 692.145 1344.6 692.87 1335.24 691.703 1333.08 C 683.415 1337.28 676.779 1341.2 668.874 1345.96 z"/>
<path transform="translate(0,0)" fill="rgb(0,0,1)" d="M 1438.77 1394.92 C 1444.21 1394.76 1468.31 1404.65 1471 1410.43 C 1468.6 1415.11 1445.98 1423.41 1440.26 1425.54 C 1433.43 1422.77 1410.96 1416.3 1410.05 1409.5 C 1413.64 1404.4 1431.87 1397.98 1438.77 1394.92 z M 1419.17 1409.98 C 1424.94 1412.89 1435.01 1418.09 1441.33 1419.41 C 1447.81 1416.23 1454.61 1412.74 1461.27 1410.04 C 1456.46 1407.78 1442.15 1400.14 1437.9 1400.89 C 1431.62 1403.83 1425.37 1406.86 1419.17 1409.98 z"/>
<path transform="translate(0,0)" fill="rgb(0,0,1)" d="M 745.416 633.281 C 751.503 636.206 754.946 637.887 760.673 641.539 C 798.939 669.897 830.021 704.68 852.048 746.996 C 855.264 753.173 866.573 773.183 863.898 778.732 C 859.05 777.991 857.522 770.592 855.509 766.293 C 832.81 717.823 793.369 666.24 745.968 639.03 C 744.22 635.893 744.755 637.659 745.416 633.281 z"/>
<path transform="translate(0,0)" fill="rgb(0,0,1)" d="M 1255.34 871.136 L 1255.96 869.818 C 1274.21 831.691 1324.28 777.112 1364.47 761.79 C 1366.96 760.84 1368.41 760.467 1370.84 761.186 C 1370.68 765.631 1353.22 773.152 1348.59 776.103 C 1330.54 787.627 1314.5 801.322 1300.11 817.174 C 1293.05 824.942 1286.44 833.105 1280.3 841.623 C 1275.58 848.259 1255.13 883.034 1251.46 884.699 L 1250.37 883.75 C 1250.2 880.069 1250.87 879.261 1252.42 875.969 L 1255.34 871.136 z"/>
<path transform="translate(0,0)" fill="rgb(0,0,1)" d="M 694.4 802.115 C 716.673 800.329 750.499 817.107 768.248 829.36 C 781.626 838.595 820.061 868.154 823.236 884.02 C 822.225 883.841 820.344 883.651 819.661 882.925 C 808.573 871.145 798.023 859.965 785.584 849.443 C 775.391 840.802 764.464 833.064 752.928 826.319 C 735.164 815.94 719.54 809.746 699.449 806.838 C 696.055 806.347 695.96 804.943 694.4 802.115 z"/>
<path transform="translate(0,0)" fill="rgb(0,0,1)" d="M 1290.83 665.422 C 1293.44 666.042 1292.6 665.633 1294.62 667.285 C 1294.42 671.466 1289 674.624 1285.83 677.502 C 1261.51 699.592 1246.97 727.438 1233.2 756.628 L 1230.59 755.879 C 1224.92 745.074 1262.21 694.494 1269.46 686.099 C 1275.97 678.598 1283.12 671.679 1290.83 665.422 z"/>
<path transform="translate(0,0)" fill="rgb(0,0,1)" d="M 1348 898.256 C 1351.29 897.729 1354.51 896.965 1357.06 899.45 C 1354.84 904.264 1345.41 904.155 1339.3 905.803 C 1319.58 911.131 1295.03 920.475 1277.89 931.522 C 1274.94 933.2 1275.16 933.134 1271.78 933.512 L 1270.88 932.305 C 1274.79 918.576 1333.93 901.073 1348 898.256 z"/>
<path transform="translate(0,0)" fill="rgb(0,0,1)" d="M 1391.16 1152.82 C 1407.39 1158.38 1389.25 1178.29 1388.58 1186.02 C 1386.94 1205.19 1408.64 1205.58 1397.74 1228.53 L 1397.17 1229.71 L 1394.6 1230.02 L 1394.61 1230.28 C 1393.07 1225.67 1395.08 1222.48 1396.98 1217.99 C 1392.44 1206.06 1386.42 1203.59 1382.37 1191.2 L 1383.52 1181.03 C 1386.53 1174.34 1390.1 1170.82 1392.93 1163.42 L 1390.68 1154.3 L 1391.16 1152.82 z"/>
<path transform="translate(0,0)" fill="rgb(0,0,1)" d="M 594.761 1302.95 C 591.933 1306.71 587.835 1313.58 582.926 1313.71 C 582.167 1305.85 592.601 1296.67 597.707 1291.73 C 600.036 1293.83 602.263 1296.03 604.38 1298.34 C 607.643 1301.94 613.223 1307.77 613.01 1312.49 C 605.565 1314.65 607.907 1306.79 601.158 1304.31 C 599.355 1307.46 599.923 1309.3 599.847 1313.32 C 599.872 1319.37 600.757 1334.46 598.219 1339.09 C 592.314 1333 594.791 1311.87 594.761 1302.95 z"/>
<path transform="translate(0,0)" fill="rgb(0,0,1)" d="M 739.041 903.097 C 753.698 902.725 796.525 917.503 810.471 926.681 C 813.959 928.976 813.626 929.953 814.067 933.174 C 803.63 930.225 788.833 922.046 777.718 917.862 C 766.51 913.642 749.864 910.645 739.915 906.441 L 739.041 903.097 z"/>
<path transform="translate(0,0)" fill="rgb(0,0,1)" d="M 1244.03 1372.79 L 1241.85 1375.91 C 1239.82 1378.86 1239.65 1379.88 1236.25 1381.18 L 1234.63 1380.42 C 1233.71 1370.68 1245.38 1359.06 1253.82 1368.9 C 1256.97 1372.58 1259.85 1376.46 1262.19 1380.7 L 1258.43 1381.96 C 1255.93 1379.3 1254.14 1377.18 1251.19 1374.98 C 1249.09 1376.96 1249.78 1378.36 1249.5 1382.25 C 1249.38 1387.93 1249.44 1400.09 1248.5 1405.13 C 1241.13 1400.75 1243.82 1381.39 1244.03 1372.79 z"/>
<path transform="translate(0,0)" fill="rgb(0,0,1)" d="M 752.21 1323.59 C 758.712 1324.19 766.082 1333.98 766.546 1340.46 L 765.258 1341.1 C 760.906 1338.77 759.199 1335.53 756.263 1331.47 C 756.037 1341.23 755.989 1351 756.116 1360.77 L 754.375 1361.56 L 752.668 1360.67 C 751.663 1356.75 750.971 1339.42 750.442 1333.79 C 747.701 1337.2 745.981 1340.07 742.089 1341.9 L 740.857 1341.09 C 742.491 1333.29 746.909 1329.49 752.21 1323.59 z"/>
<path transform="translate(0,0)" fill="rgb(0,0,1)" d="M 690.421 1176.4 C 695.751 1178.05 702.47 1185.51 701.368 1191.52 L 699.764 1191.7 C 697.238 1189.83 697.769 1189.91 694.966 1188.83 C 693.261 1193.34 693.414 1203.9 692.549 1210.19 L 689.829 1208.89 C 688.104 1204.71 688.584 1193.57 688.603 1188.55 C 685.867 1190.66 685.379 1191.24 681.992 1192.3 L 680.438 1191.47 C 680.665 1185.87 686.64 1180.33 690.421 1176.4 z"/>
<path transform="translate(0,0)" fill="rgb(0,0,1)" d="M 476.373 1317.37 L 486.533 1317.09 C 497.438 1319.93 522.041 1315.32 528.94 1320.54 L 528.409 1321.7 C 519.507 1324.54 507.112 1323.21 497.669 1322.99 C 491.768 1322.85 475.447 1324.22 471.916 1320.36 L 472.623 1318.64 L 476.373 1317.37 z"/>
<path transform="translate(0,0)" fill="rgb(0,0,1)" d="M 1414.31 1188.51 C 1415.3 1188.68 1416.92 1189.17 1417.94 1189.44 C 1418.35 1192.89 1416.44 1193.4 1415.26 1196.43 C 1406.98 1217.61 1433.6 1215.4 1418.28 1240.29 C 1414.62 1239.82 1415.67 1240.7 1414.01 1238.64 L 1415.21 1235.51 C 1423.72 1213.96 1395.63 1209.07 1414.31 1188.51 z"/>
<path transform="translate(0,0)" fill="rgb(0,0,1)" d="M 792.662 1367.44 C 796.68 1369.71 805.122 1376.86 803.783 1382 C 800.046 1381.7 799.266 1379.4 796.595 1379.5 C 793.927 1385.9 796.205 1389.78 794.076 1397.43 C 792.859 1396.84 792.166 1396.19 791.067 1395.36 C 789.33 1391.21 790.211 1385.78 789.82 1380.97 C 786.687 1379.06 787.369 1382.94 781.491 1382.75 L 780.89 1380.47 C 782.517 1375.84 788.912 1370.36 792.662 1367.44 z"/>
<path transform="translate(0,0)" fill="rgb(24,24,24)" d="M 1244.46 816.459 L 1246.59 818.016 C 1246.79 819.982 1230.15 854.386 1227.98 858.531 L 1225.54 857.532 C 1223 847.768 1237.91 824.006 1244.46 816.459 z"/>
<path transform="translate(0,0)" fill="rgb(0,0,1)" d="M 1538.99 1317.4 C 1544.41 1317.25 1561.88 1316.08 1564.68 1320.9 C 1561.79 1322.73 1559.56 1322.59 1556.05 1323.02 C 1545.62 1323.13 1532.8 1323.94 1522.9 1321.28 C 1530.14 1317.89 1531.07 1318.08 1538.99 1317.4 z"/>
<path transform="translate(0,0)" fill="rgb(185,184,186)" fill-opacity="0.00784314" d="M 820.129 1215.15 C 820.079 1227.67 822.51 1244.65 822.041 1255.47 L 820.54 1262.85 C 820.72 1263.16 818.992 1249.67 818.61 1247.65 C 816.428 1248.48 818.836 1248.83 816.423 1250.25 C 816.434 1250.33 816.006 1247.59 816.006 1247.13 C 816.019 1237.85 816.214 1227.9 817.264 1218.7 C 818.432 1217.25 819.387 1216.07 820.129 1215.15 z"/>
<path transform="translate(0,0)" fill="rgb(0,0,1)" d="M 824.418 825.661 C 833.109 827.897 843.592 846.087 845.993 854.235 C 844.638 854.397 843.409 854.867 842.729 854.095 C 837.977 848.689 825.497 832.133 824.418 825.661 z"/>
<path transform="translate(0,0)" fill="rgb(0,0,1)" d="M 1433.05 1201.27 C 1435.24 1202.1 1434.22 1201.49 1436.08 1203.16 C 1434.72 1215.94 1442.06 1221.06 1436.47 1231.39 C 1435.74 1231.24 1434.67 1230.75 1433.94 1230.46 C 1433.7 1219.62 1427.2 1210.47 1433.05 1201.27 z"/>
<path transform="translate(0,0)" fill="rgb(0,0,1)" d="M 1078.51 1409.45 C 1083.73 1409.21 1095.26 1408.03 1099.14 1411.29 L 1099.15 1412.91 L 1096.76 1414.36 C 1091.74 1414.88 1081.64 1415.83 1077.39 1413.53 L 1076.96 1411.49 L 1078.51 1409.45 z"/>
<path transform="translate(0,0)" fill="url(#Gradient2)" d="M 476.373 1317.37 L 472.185 1316.75 L 471.663 1315.4 C 475.456 1311.69 488.86 1312.61 494.022 1313.4 L 492.448 1313.6 C 497.796 1313.67 499.021 1313.36 503.684 1315.84 C 497.535 1316 492.633 1316.47 486.533 1317.09 L 476.373 1317.37 z"/>
<path transform="translate(0,0)" fill="rgb(0,0,1)" d="M 1113.01 1409.41 C 1118.33 1409.21 1130.51 1407.28 1132.79 1411.96 L 1131.75 1413.89 C 1126.39 1414.17 1114.65 1416.47 1112.17 1412.04 L 1113.01 1409.41 z"/>
<path transform="translate(0,0)" fill="rgb(0,0,1)" d="M 491.081 1333.28 C 495.413 1333.1 504.106 1332.15 507.505 1334.41 C 509.165 1335.51 508.62 1335.98 509.077 1338.66 C 503.718 1339.05 494.955 1340.82 491.019 1337.05 L 491.081 1333.28 z"/>
<path transform="translate(0,0)" fill="url(#Gradient1)" d="M 207.448 910.184 C 204.514 910.581 203.694 909.994 200.866 909.034 C 196.917 904.853 196.36 901.183 200.709 897.089 L 204.445 898.146 C 205.26 903.599 205.497 905.069 207.448 910.184 z"/>
<path transform="translate(0,0)" fill="rgb(0,0,1)" d="M 1547.74 1333.22 C 1551.92 1333.14 1557.93 1332.38 1561.3 1334.15 C 1562.53 1336.89 1562.25 1335.42 1561.33 1338.74 C 1556.61 1339.07 1552.55 1339.8 1548.11 1338.4 C 1546.4 1335.64 1546.86 1337.23 1547.74 1333.22 z"/>
<path transform="translate(0,0)" fill="rgb(253,252,253)" fill-opacity="0.878431" d="M 1813.28 888.587 L 1813.87 887.692 C 1815.91 892.352 1815.79 890.24 1814.14 895.319 C 1811.11 897.908 1812.81 897.171 1808.84 897.595 C 1804.33 894.977 1802.35 888.738 1803.44 883.827 L 1804.66 883.022 C 1805.86 885.888 1805.56 887.377 1806.33 890.094 L 1807.37 893.293 L 1809.36 893.665 C 1811.86 891.781 1811.84 891.314 1813.28 888.587 z"/>
<path transform="translate(0,0)" fill="rgb(0,0,1)" d="M 1317.5 646.804 C 1319.67 647.204 1318.73 646.689 1320.26 648.466 C 1318.78 653.142 1315.07 654.523 1310.88 656.655 C 1309.66 656.375 1309.11 655.823 1307.96 655.09 L 1308.07 652.906 C 1310.87 649.756 1313.73 648.71 1317.5 646.804 z"/>
<path transform="translate(0,0)" fill="rgb(0,0,1)" d="M 204.445 898.146 L 208.023 897.277 C 211.229 899.471 209.911 898.085 211.75 901.909 C 211.727 904.845 212.043 906.198 210.328 908.549 L 207.448 910.184 C 205.497 905.069 205.26 903.599 204.445 898.146 z"/>
<path transform="translate(0,0)" fill="rgb(253,252,253)" fill-opacity="0.0156863" d="M 1806.33 890.094 C 1808.79 887.137 1806.95 887.31 1810.37 885.529 L 1813.28 888.587 C 1811.84 891.314 1811.86 891.781 1809.36 893.665 L 1807.37 893.293 L 1806.33 890.094 z"/>
</svg>